<?xml version="1.0" standalone="no"?>
<!DOCTYPE svg PUBLIC "-//W3C//DTD SVG 1.1//EN" "http://www.w3.org/Graphics/SVG/1.1/DTD/svg11.dtd" >
<svg>
<metadata>
Created by FontForge 20110222 at Wed May 28 11:35:15 2014
 By Orthosie Webhosting
Copyright (c) 2012 by Svet Simov. All rights reserved.
</metadata>
<defs>
<font id="KelsonSans-LightRU" horiz-adv-x="471" >
  <font-face 
    font-family="Kelson Sans RU"
    font-weight="300"
    font-stretch="normal"
    units-per-em="1000"
    panose-1="2 0 5 0 0 0 0 0 0 0"
    ascent="750"
    descent="-250"
    x-height="581"
    cap-height="772"
    bbox="-81 -267 921 973"
    underline-thickness="50"
    underline-position="-50"
    stemh="91"
    stemv="96"
    unicode-range="U+000D-FB02"
  />
<missing-glyph horiz-adv-x="628" 
d="M42 773h538v-773h-538v773zM157 504h71c0 72 22 96 90 96c61 0 87 -28 88 -115c0 -4 0 29 0 -1c0 -147 -147 -64 -147 -247h72c0 143 150 64 150 248v2c0 126 -58 182 -161 182c-145 0 -163 -82 -163 -165zM250 145c0 -60 90 -55 90 0c0 60 -90 57 -90 0z" />
    <glyph glyph-name=".notdef" horiz-adv-x="628" 
d="M42 773h538v-773h-538v773zM157 504h71c0 72 22 96 90 96c61 0 87 -28 88 -115c0 -4 0 29 0 -1c0 -147 -147 -64 -147 -247h72c0 143 150 64 150 248v2c0 126 -58 182 -161 182c-145 0 -163 -82 -163 -165zM250 145c0 -60 90 -55 90 0c0 60 -90 57 -90 0z" />
    <glyph glyph-name=".null" horiz-adv-x="0" 
 />
    <glyph glyph-name="CR" unicode="&#xd;" horiz-adv-x="268" 
 />
    <glyph glyph-name="space" unicode=" " horiz-adv-x="251" 
 />
    <glyph glyph-name="Aringacute" unicode="&#x1fa;" horiz-adv-x="465" 
d="M259 962h50l-53 -52h-45zM110 190l-49 -191h-52l190 740c-33 11 -56 34 -56 77c0 52 45 77 92 77c44 0 90 -24 90 -76c0 -42 -24 -65 -56 -77l191 -741h-53l-50 191h-247zM236 696h-1l-113 -459h224zM234 861c-72 0 -74 -88 -6 -93h6c76 0 73 93 0 93z" />
    <glyph glyph-name="AEacute" unicode="&#x1fc;" horiz-adv-x="623" 
d="M305 772h286v-44h-227v-292h206v-47h-206v-340h247v-49h-297v189h-183l-73 -190h-54zM148 237h166l2 439zM426 819h-42v4l49 109h56v-3z" />
    <glyph glyph-name="B" unicode="B" horiz-adv-x="507" 
d="M110 47h128c169 0 180 54 183 170c0 88 -14 167 -183 167h-128v-337zM60 -2l1 774h147c137 0 199 -58 199 -190c0 -72 -27 -134 -82 -161c112 -19 146 -100 146 -197c0 -165 -50 -226 -233 -226h-178zM208 727h-97l-1 -293h92c120 2 157 56 157 148
c0 109 -45 145 -151 145z" />
    <glyph glyph-name="C" unicode="C" horiz-adv-x="523" 
d="M479 575h-47c0 109 -30 163 -156 163c-157 0 -168 -88 -168 -213v-275c0 -133 11 -211 168 -211c130 0 152 52 157 163h46c-5 -139 -44 -209 -203 -209c-177 0 -217 81 -217 255v273c0 172 37 261 217 261c158 0 203 -67 203 -207z" />
    <glyph glyph-name="D" unicode="D" horiz-adv-x="535" 
d="M71 0v772h189c188 0 222 -80 222 -262v-255c0 -176 -41 -255 -224 -255h-187zM258 727h-137v-678h137c169 0 174 73 174 206v257c0 134 -5 215 -174 215z" />
    <glyph glyph-name="Dcroat" unicode="&#x110;" horiz-adv-x="535" 
d="M71 0v380h-71v47h71v347h189c188 0 222 -80 222 -262v-257c0 -176 -41 -255 -224 -255h-187zM274 427v-47h-153v-331h137c169 0 174 73 174 206v259c0 134 -5 215 -174 215h-137v-302h153z" />
    <glyph glyph-name="E" unicode="E" horiz-adv-x="476" 
d="M70 772h349v-46h-299v-290h269v-47h-269v-340h319v-49h-369v772z" />
    <glyph glyph-name="F" unicode="F" horiz-adv-x="464" 
d="M432 772v-48h-313v-287h277v-49h-277v-388h-50v772h363z" />
    <glyph glyph-name="G" unicode="G" horiz-adv-x="558" 
d="M501 565l-45 -1c-4 122 -39 171 -175 171c-169 0 -174 -81 -174 -212v-271c0 -118 5 -207 174 -207c149 0 178 65 178 190v121h-177v45h222v-166c0 -159 -40 -240 -223 -240s-224 81 -224 257v270c0 181 38 258 224 258c170 0 216 -69 220 -215z" />
    <glyph glyph-name="Gdotaccent" unicode="&#x120;" horiz-adv-x="601" 
d="M250 875c0 46 76 46 76 0c0 -45 -76 -45 -76 0zM497 565l-45 -1c-4 122 -39 171 -175 171c-169 0 -174 -81 -174 -212v-271c0 -118 5 -207 174 -207c149 0 178 65 178 190v121h-177v45h222v-166c0 -159 -40 -240 -223 -240s-224 81 -224 257v270c0 181 38 258 224 258
c170 0 216 -69 220 -215z" />
    <glyph glyph-name="H" unicode="H" horiz-adv-x="511" 
d="M442 772v-772h-50v385h-270v-385h-52v772h52v-337h270v337h50z" />
    <glyph glyph-name="Hcircumflex" unicode="&#x124;" horiz-adv-x="498" 
d="M442 769v-769h-50v385h-270v-386h-52v770h52v-334h270v334h50zM118 829l125 114h31l125 -114v-4h-53l-88 79l-87 -79h-53v4z" />
    <glyph glyph-name="I" unicode="I" horiz-adv-x="193" 
d="M123 772v-772h-53v772h53z" />
    <glyph glyph-name="IJ" unicode="&#x132;" horiz-adv-x="685" 
d="M129 773v-774h-53v774h53zM441 44c115 0 136 55 138 134v597h50v-595c0 -130 -62 -186 -188 -186s-182 61 -182 191h48c0 -81 19 -141 134 -141z" />
    <glyph glyph-name="J" unicode="J" horiz-adv-x="438" 
d="M190 44c115 0 136 55 138 134v594h50v-592c0 -130 -62 -186 -188 -186s-182 61 -182 191h48c0 -81 19 -141 134 -141z" />
    <glyph glyph-name="K" unicode="K" horiz-adv-x="473" 
d="M469 0h-65l-246 374h-40v-374h-53v772h53v-345h38l239 345h63l-257 -367z" />
    <glyph glyph-name="Kcommaaccent" unicode="&#x136;" horiz-adv-x="470" 
d="M469 0h-65l-246 374h-40v-373h-53v774h53v-348h38l239 347h63l-257 -369zM207 -187l-19 27c45 21 55 47 50 121h50c0 -89 -10 -112 -81 -148z" />
    <glyph glyph-name="L" unicode="L" horiz-adv-x="443" 
d="M419 46v-46h-349v772h50v-726h299z" />
    <glyph glyph-name="Lcaron" unicode="&#x13d;" horiz-adv-x="442" 
d="M353 629h-37l34 141h48zM419 46v-46h-349v769h50v-723h299z" />
    <glyph glyph-name="Lcommaaccent" unicode="&#x13b;" horiz-adv-x="443" 
d="M419 46v-46h-349v769h50v-723h299zM201 -208l-19 27c45 21 55 47 50 121h50c0 -89 -10 -112 -81 -148z" />
    <glyph glyph-name="M" unicode="M" horiz-adv-x="582" 
d="M283 176l-168 473l7 -203v-446h-52v772h55l166 -486l167 486h55v-772h-51v446l6 203l-168 -473h-17z" />
    <glyph glyph-name="N" unicode="N" horiz-adv-x="511" 
d="M442 772v-771h-58l-267 655h-2l7 -242v-413h-53v771h53l274 -662h2l-9 275v387h53z" />
    <glyph glyph-name="Ncommaaccent" unicode="&#x145;" horiz-adv-x="511" 
d="M442 774v-773h-58l-267 657h-2l7 -242v-415h-53v773h53l274 -664h2l-9 275v389h53zM211 -196l-19 27c45 21 55 47 50 121h50c0 -89 -10 -112 -81 -148z" />
    <glyph glyph-name="O" unicode="O" horiz-adv-x="569" 
d="M283 -7c-183 0 -224 81 -224 254v279c0 177 38 254 224 254s224 -77 224 -255v-277c0 -174 -41 -255 -224 -255zM283 734c-169 0 -174 -77 -174 -211v-273c0 -124 5 -211 174 -211s174 84 174 211v273c0 131 -5 211 -174 211z" />
    <glyph glyph-name="Oslashacute" unicode="&#x1fe;" horiz-adv-x="558" 
d="M283 -7c-54 0 -95 7 -127 21l-28 -72h-48l38 96c-46 41 -59 110 -59 209v279c0 177 38 254 224 254c52 0 92 -6 123 -19l30 75h48l-39 -97c49 -40 62 -110 62 -214v-277c0 -174 -41 -255 -224 -255zM457 523c0 72 -2 129 -32 166l-251 -630c25 -13 60 -20 109 -20
c169 0 174 84 174 211v273zM283 734c-169 0 -174 -77 -174 -211v-273c0 -68 1 -124 30 -161l249 627c-25 12 -59 18 -105 18zM307 834h-38v4l44 98h50v-2z" />
    <glyph glyph-name="P" unicode="P" horiz-adv-x="483" 
d="M123 319h133c108 0 135 46 135 169v63c0 123 -20 173 -135 173h-133v-405zM256 271h-133v-271h-53v772h186c126 0 185 -40 185 -216v-67c0 -168 -59 -218 -185 -218z" />
    <glyph glyph-name="Thorn" unicode="&#xde;" horiz-adv-x="480" 
d="M256 138h-133v-138h-53v772h53v-132h133c126 0 185 -40 185 -216v-68c0 -168 -59 -218 -185 -218zM123 186h133c108 0 135 46 135 169v64c0 123 -20 173 -135 173h-133v-406z" />
    <glyph glyph-name="Q" unicode="Q" horiz-adv-x="567" 
d="M465 -108v-50c-129 0 -185 29 -188 156c-178 2 -218 83 -218 240v299c0 163 38 240 224 240s224 -77 224 -240v-299c0 -145 -38 -225 -181 -238c2 -96 41 -108 139 -108zM283 729c-169 0 -174 -75 -174 -209v-265c0 -133 5 -207 174 -207s174 74 174 207v265
c0 134 -5 209 -174 209z" />
    <glyph glyph-name="R" unicode="R" horiz-adv-x="476" 
d="M441 487c0 -142 -48 -192 -149 -201l163 -286h-62l-158 285h-112v-285h-53v772h186c126 0 185 -48 185 -226v-59zM123 332h133c108 0 135 33 135 156v58c0 126 -20 175 -135 175h-133v-389z" />
    <glyph glyph-name="Rcommaaccent" unicode="&#x156;" horiz-adv-x="476" 
d="M441 487c0 -142 -48 -192 -149 -201l163 -286h-62l-158 285h-112v-285h-53v774h186c126 0 185 -48 185 -226v-61zM123 332h133c108 0 135 33 135 156v60c0 126 -20 175 -135 175h-133v-391zM211 -208l-19 27c45 21 55 47 50 121h50c0 -89 -10 -112 -81 -148z" />
    <glyph glyph-name="S" unicode="S" horiz-adv-x="519" 
d="M455 608h-48c-1 94 -61 129 -150 129c-104 0 -162 -33 -162 -159c0 -140 83 -138 201 -152c113 -15 178 -89 178 -202c0 -190 -91 -232 -225 -232c-136 1 -205 59 -205 183h48c0 -95 54 -135 158 -135c128 1 173 52 173 185c0 137 -96 154 -211 165
c-80 8 -166 43 -166 188s72 203 212 204c108 0 191 -37 197 -174z" />
    <glyph glyph-name="Scommaaccent" unicode="&#x218;" horiz-adv-x="517" 
d="M236 -60h49c-1 -90 -14 -118 -81 -158l-19 32c42 22 54 53 51 126zM455 608h-48c-1 94 -61 129 -150 129c-104 0 -162 -33 -162 -159c0 -140 83 -138 201 -152c113 -15 178 -89 178 -202c0 -190 -91 -232 -225 -232c-136 1 -205 59 -205 183h48c0 -95 54 -135 158 -135
c128 1 173 52 173 185c0 137 -96 154 -211 165c-80 8 -166 43 -166 188s72 203 212 204c108 0 191 -37 197 -174z" />
    <glyph glyph-name="T" unicode="T" horiz-adv-x="388" 
d="M380 772v-47h-161v-725h-50v725h-161v47h372z" />
    <glyph glyph-name="U" unicode="U" horiz-adv-x="542" 
d="M425 772h51v-522c0 -171 -32 -252 -208 -252s-208 81 -208 252v522h51v-522c0 -131 11 -207 157 -207s157 76 157 207v522z" />
    <glyph glyph-name="V" unicode="V" horiz-adv-x="469" 
d="M405 772h55l-198 -773h-55l-198 773h55l100 -395l70 -298h1l69 297z" />
    <glyph glyph-name="W" unicode="W" horiz-adv-x="760" 
d="M215 90l143 640h40l143 -640h2l66 318l83 364h55l-179 -773h-55l-81 355l-54 270l-53 -265l-82 -360h-55l-179 773h55l83 -364l66 -318h2z" />
    <glyph glyph-name="Wacute" unicode="&#x1e82;" horiz-adv-x="754" 
d="M215 90l143 642h40l143 -642h2l66 318l83 366h55l-179 -775h-55l-81 355l-54 272l-53 -267l-82 -360h-55l-179 775h55l83 -366l66 -318h2zM402 810h-42v5l49 118h56v-3z" />
    <glyph glyph-name="Wdieresis" unicode="&#x1e84;" horiz-adv-x="757" 
d="M215 90l143 642h40l143 -642h2l66 318l83 366h55l-179 -775h-55l-81 355l-54 272l-53 -267l-82 -360h-55l-179 775h55l83 -366l66 -318h2zM251 854c0 47 73 48 73 0c0 -46 -73 -47 -73 0zM433 854c0 47 73 48 73 0c0 -46 -73 -47 -73 0z" />
    <glyph glyph-name="Wgrave" unicode="&#x1e80;" horiz-adv-x="749" 
d="M215 90l143 642h40l143 -642h2l66 318l83 366h55l-179 -775h-55l-81 355l-54 272l-53 -267l-82 -360h-55l-179 775h55l83 -366l66 -318h2zM370 818l-63 120v3h56l49 -118v-5h-42z" />
    <glyph glyph-name="X" unicode="X" horiz-adv-x="436" 
d="M25 772h54l77 -181l62 -160l63 160l76 181h54l-162 -389l178 -383h-56l-71 151l-82 186l-84 -191l-69 -146h-56l178 383z" />
    <glyph glyph-name="Y" unicode="Y" horiz-adv-x="394" 
d="M339 772h58l-174 -443v-330h-54v330l-171 443h58l71 -187l69 -199l70 199z" />
    <glyph glyph-name="Ygrave" unicode="&#x1ef2;" horiz-adv-x="403" 
d="M339 774h58l-174 -445v-330h-54v330l-171 445h58l71 -189l69 -199l70 199zM188 814l-63 120v3h56l49 -118v-5h-42z" />
    <glyph glyph-name="Z" unicode="Z" horiz-adv-x="406" 
d="M393 48v-48h-379l302 724h-258v48h335l-304 -724h304z" />
    <glyph glyph-name="uni021A" unicode="&#x21a;" horiz-adv-x="391" 
d="M175 -54h49c-1 -90 -14 -118 -81 -158l-19 32c42 22 54 53 51 126zM380 767v-47h-161v-720h-50v720h-161v47h372z" />
    <glyph glyph-name="a" unicode="a" horiz-adv-x="484" 
d="M421 0h-42l-1 78c-40 -65 -94 -83 -172 -83c-96 0 -163 44 -163 155c0 145 125 175 330 159v84c1 104 -35 148 -127 148c-83 0 -127 -26 -127 -137h-48c0 123 49 182 175 182c118 0 175 -56 175 -192v-394zM373 186v75c-191 19 -280 -10 -280 -112
c0 -75 43 -107 131 -107c111 0 149 84 149 144z" />
    <glyph glyph-name="aringacute" unicode="&#x1fb;" horiz-adv-x="513" 
d="M284 895h52l-69 -76h-40v3zM421 0h-42l-1 78c-40 -65 -94 -83 -172 -83c-96 0 -163 44 -163 155c0 145 125 175 330 159v84c1 104 -35 148 -127 148c-83 0 -127 -26 -127 -137h-48c0 123 49 182 175 182c118 0 175 -56 175 -192v-394zM373 186v75
c-191 19 -280 -10 -280 -112c0 -75 43 -107 131 -107c111 0 149 84 149 144zM158 702c0 55 47 84 97 84c48 0 98 -28 98 -83c0 -54 -46 -84 -99 -84s-97 30 -96 83zM255 756c-83 0 -83 -107 0 -107c86 0 84 107 0 107z" />
    <glyph glyph-name="aeacute" unicode="&#x1fd;" horiz-adv-x="751" 
d="M652 159h45c0 -106 -44 -162 -163 -162c-80 0 -131 24 -156 85c-38 -66 -95 -87 -166 -87c-96 0 -162 44 -162 155c0 145 105 175 310 159v84c1 104 -19 151 -111 151c-83 0 -123 -29 -123 -140h-48c0 123 45 185 171 185c72 0 115 -23 136 -86c20 63 74 89 149 89
c135 0 170 -79 170 -221v-87h-296v-83c0 -115 26 -159 126 -159c107 0 118 48 118 117zM230 42c71 0 113 43 133 100c-2 18 -3 38 -3 60v59c-191 19 -260 -10 -260 -112c0 -75 42 -107 130 -107zM408 394v-64h252v40c0 103 -10 180 -126 180c-97 0 -122 -44 -127 -141
c0 -5 1 -10 1 -15zM398 658h-41v4l48 108h55v-3z" />
    <glyph glyph-name="b" unicode="b" horiz-adv-x="480" 
d="M55 214v592h50v-275c29 50 86 65 135 65c130 0 185 -60 185 -226v-162c0 -155 -59 -216 -185 -216s-185 46 -185 222zM240 42c108 0 135 46 135 169v160c0 126 -27 175 -135 175c-90 0 -136 -39 -136 -151v-182c0 -126 28 -171 136 -171z" />
    <glyph glyph-name="c" unicode="c" horiz-adv-x="462" 
d="M370 174h47c0 -123 -60 -181 -182 -181c-126 0 -185 61 -185 221v155c0 162 63 219 189 219c128 0 171 -57 176 -168h-47c-4 72 -28 121 -129 121c-106 0 -139 -49 -139 -172v-152c0 -120 24 -175 135 -175s133 49 135 132z" />
    <glyph glyph-name="d" unicode="d" horiz-adv-x="501" 
d="M230 -3c-123 0 -176 58 -176 211v189c0 138 69 195 185 195c61 0 103 -15 135 -52v272h50v-812h-44l-5 64c-28 -41 -73 -67 -145 -67zM104 209c0 -131 43 -165 131 -165c102 2 139 57 139 152v193c1 111 -27 157 -135 157s-135 -53 -135 -151v-186z" />
    <glyph glyph-name="dcaron" unicode="&#x10f;" horiz-adv-x="570" 
d="M521 795h46l-33 -176h-39zM230 -3c-123 0 -176 58 -176 211v189c0 138 69 195 185 195c61 0 103 -15 135 -52v272h50v-812h-44l-5 64c-28 -41 -73 -67 -145 -67zM104 209c0 -131 43 -165 131 -165c102 2 139 57 139 152v193c1 111 -27 157 -135 157s-135 -53 -135 -151
v-186z" />
    <glyph glyph-name="dcroat" unicode="&#x111;" horiz-adv-x="483" 
d="M230 -3c-123 0 -176 58 -176 211v189c0 138 69 195 185 195c61 0 103 -15 135 -52v139h-83v41h83v92h50v-92h58v-41h-58v-679h-44l-5 64c-28 -41 -73 -67 -145 -67zM104 209c0 -131 43 -165 131 -165c102 2 139 57 139 152v193c1 111 -27 157 -135 157
s-135 -53 -135 -151v-186z" />
    <glyph glyph-name="e" unicode="e" 
d="M366 159h45c0 -106 -54 -162 -173 -162c-126 0 -185 58 -185 217v157c0 160 59 221 185 221c135 0 180 -67 180 -221v-87h-317v-66c0 -119 28 -176 137 -176c107 0 128 48 128 117zM101 330h273v40c0 112 -20 180 -136 180c-108 0 -137 -54 -137 -177v-43z" />
    <glyph glyph-name="f" unicode="f" horiz-adv-x="268" 
d="M223 531v-45h-114v-486h-50v570c0 151 56 216 185 207v-44c-109 6 -135 -41 -135 -164v-38h114z" />
    <glyph glyph-name="g" unicode="g" horiz-adv-x="474" 
d="M66 -79h47c3 -62 27 -100 122 -100c111 0 140 51 140 171v75c-29 -54 -80 -70 -146 -70c-119 0 -179 53 -179 201v182c0 158 60 206 188 209c69 0 115 -22 141 -73v65h45v-589c0 -160 -63 -217 -189 -217c-110 0 -164 44 -169 146zM373 196v167c0 113 -30 179 -135 179
c-105 -2 -138 -40 -138 -163v-182c2 -120 43 -151 134 -151c100 0 139 53 139 150z" />
    <glyph glyph-name="h" unicode="h" horiz-adv-x="472" 
d="M417 0h-50v371c0 123 -23 171 -131 171c-90 0 -132 -41 -132 -147v-395h-49v772h50v-241c25 44 86 61 131 61c130 0 181 -59 181 -222v-370z" />
    <glyph glyph-name="i" unicode="i" horiz-adv-x="199" 
d="M126 590v-590h-49v590h49zM63 738c0 47 74 48 74 0c0 -47 -74 -48 -74 0z" />
    <glyph glyph-name="ij" unicode="&#x133;" horiz-adv-x="363" 
d="M126 590v-590h-49v590h49zM63 738c0 47 74 48 74 0c0 -47 -74 -48 -74 0zM170 -182v46c69 -1 86 18 86 138v588h50v-585c0 -132 -24 -192 -136 -187zM243 745c0 47 74 48 74 0c0 -47 -74 -48 -74 0z" />
    <glyph glyph-name="j" unicode="j" horiz-adv-x="206" 
d="M1 -182v46c69 -1 86 18 86 138v588h50v-585c0 -132 -24 -192 -136 -187zM74 745c0 47 74 48 74 0c0 -47 -74 -48 -74 0z" />
    <glyph glyph-name="dotlessj" unicode="&#x237;" horiz-adv-x="206" 
d="M1 -182v46c69 -1 86 18 86 138v588h50v-585c0 -132 -24 -192 -136 -187z" />
    <glyph glyph-name="k" unicode="k" horiz-adv-x="438" 
d="M433 0h-62l-209 291h-55v-291h-52v772h51v-429h55l187 249h60l-205 -275z" />
    <glyph glyph-name="kgreenlandic" unicode="&#x138;" horiz-adv-x="438" 
d="M55 586h51v-257h55l187 258h60l-205 -284l230 -303h-62l-209 277h-55v-277h-52v586z" />
    <glyph glyph-name="l" unicode="l" horiz-adv-x="244" 
d="M214 44v-45c-122 -8 -144 35 -144 165v608h50v-611c0 -103 12 -117 94 -117z" />
    <glyph glyph-name="lcaron" unicode="&#x13e;" horiz-adv-x="284" 
d="M244 629h-37l34 141h48zM214 44v-45c-122 -8 -144 35 -144 165v607h50v-610c0 -103 12 -117 94 -117z" />
    <glyph glyph-name="lcommaaccent" unicode="&#x13c;" horiz-adv-x="239" 
d="M92 -210l-19 27c45 21 55 47 50 121h50c0 -89 -10 -112 -81 -148zM214 44v-45c-122 -8 -144 35 -144 165v607h50v-610c0 -103 12 -117 94 -117z" />
    <glyph glyph-name="m" unicode="m" horiz-adv-x="847" 
d="M74 0v581h46l5 -47c31 42 80 58 144 58c86 0 136 -36 157 -86c48 73 104 86 168 86c143 0 179 -76 179 -214v-378h-50v379c0 124 -24 167 -134 167c-109 0 -141 -68 -141 -152v-394h-50v379c0 109 -24 167 -134 167c-109 0 -140 -51 -140 -133v-413h-50z" />
    <glyph glyph-name="n" unicode="n" horiz-adv-x="522" 
d="M79 581h44l4 -62c27 43 75 73 147 73c137 0 179 -62 179 -213v-379h-50v379c0 130 -29 169 -134 169s-140 -73 -140 -140v-408h-50v581z" />
    <glyph glyph-name="napostrophe" unicode="&#x149;" horiz-adv-x="522" 
d="M79 583h44l4 -64c27 43 75 73 147 73c137 0 179 -62 179 -213v-379h-50v379c0 130 -29 169 -134 169s-140 -73 -140 -140v-408h-50v583z" />
    <glyph glyph-name="ncommaaccent" unicode="&#x146;" horiz-adv-x="522" 
d="M79 583h44l4 -64c27 43 75 73 147 73c137 0 179 -62 179 -213v-379h-50v379c0 130 -29 169 -134 169s-140 -73 -140 -140v-408h-50v583zM210 -195l-19 27c45 21 55 47 50 121h50c0 -89 -10 -112 -81 -148z" />
    <glyph glyph-name="o" unicode="o" horiz-adv-x="470" 
d="M235 39c108 0 135 52 135 175v155c0 126 -20 174 -135 174c-108 0 -135 -49 -135 -172v-155c0 -126 20 -177 135 -177zM235 -7c-126 0 -185 49 -185 219v160c0 165 59 218 185 218s185 -49 185 -221v-157c0 -162 -59 -219 -185 -219z" />
    <glyph glyph-name="oslashacute" unicode="&#x1ff;" horiz-adv-x="466" 
d="M355 646h43l-36 -90c39 -32 58 -90 58 -187v-157c0 -162 -59 -219 -185 -219c-36 0 -66 4 -91 13l-29 -73h-43l37 93c-40 31 -59 89 -59 186v160c0 165 59 218 185 218c36 0 67 -4 92 -14zM100 216c0 -67 6 -113 28 -141l181 456c-19 8 -43 12 -74 12
c-108 0 -135 -49 -135 -172v-155zM235 39c108 0 135 52 135 175v155c0 65 -6 110 -27 138l-182 -457c19 -8 43 -11 74 -11zM252 668h-41v4l47 95h55v-2z" />
    <glyph glyph-name="p" unicode="p" horiz-adv-x="497" 
d="M260 592c123 0 176 -58 176 -211v-189c0 -138 -69 -195 -185 -195c-61 0 -103 15 -135 52v-231h-50v771h44l5 -64c28 41 73 67 145 67zM386 380c0 131 -43 165 -131 165c-102 -2 -139 -57 -139 -152v-193c-1 -111 27 -157 135 -157s135 53 135 151v186z" />
    <glyph glyph-name="thorn" unicode="&#xfe;" horiz-adv-x="497" 
d="M66 768h50v-231c32 37 74 52 135 52c116 0 185 -57 185 -195v-202c0 -138 -69 -195 -185 -195c-61 0 -103 15 -135 52v-231h-50v950zM386 194v198c0 98 -27 151 -135 151s-136 -46 -135 -157v-186c-1 -111 27 -157 135 -157s135 53 135 151z" />
    <glyph glyph-name="q" unicode="q" horiz-adv-x="482" 
d="M423 370v-552h-50v240c-29 -50 -86 -61 -135 -61c-130 0 -185 56 -185 222v157c0 155 59 216 185 216s185 -46 185 -222zM238 542c-108 0 -135 -46 -135 -169v-155c0 -126 27 -171 135 -171c90 0 136 35 136 147v177c0 126 -28 171 -136 171z" />
    <glyph glyph-name="r" unicode="r" horiz-adv-x="293" 
d="M60 590h45l3 -70c24 48 84 82 156 69v-47c-89 14 -153 -43 -153 -126l-1 -416h-50v590z" />
    <glyph glyph-name="rcommaaccent" unicode="&#x157;" horiz-adv-x="283" 
d="M60 590h45l3 -70c24 48 84 82 156 69v-47c-89 14 -153 -43 -153 -126l-1 -416h-50v590zM21 -197l-20 25c47 20 57 43 52 111h51c0 -81 -10 -103 -83 -136z" />
    <glyph glyph-name="s" unicode="s" horiz-adv-x="444" 
d="M38 163h50c0 -68 35 -118 138 -118c90 0 135 44 135 119c0 106 -84 108 -166 119c-78 10 -155 29 -155 153c0 96 62 156 181 156c124 0 177 -59 177 -155h-49c-2 72 -38 108 -127 108c-90 0 -129 -42 -129 -108c0 -101 70 -102 145 -112c85 -12 175 -30 175 -160
c0 -102 -59 -168 -187 -168c-114 0 -188 45 -188 166z" />
    <glyph glyph-name="scommaaccent" unicode="&#x219;" horiz-adv-x="448" 
d="M211 -60h49c-1 -90 -14 -118 -81 -158l-19 32c42 22 54 53 51 126zM38 163h50c0 -68 35 -118 138 -118c90 0 135 44 135 119c0 106 -84 108 -166 119c-78 10 -155 29 -155 153c0 96 62 156 181 156c124 0 177 -59 177 -155h-49c-2 72 -38 108 -127 108
c-90 0 -129 -42 -129 -108c0 -101 70 -102 145 -112c85 -12 175 -30 175 -160c0 -102 -59 -168 -187 -168c-114 0 -188 45 -188 166z" />
    <glyph glyph-name="germandbls" unicode="&#xdf;" horiz-adv-x="513" 
d="M175 -2v50h48c169 0 180 74 183 169c0 76 -14 168 -183 168h-45v49h13c120 2 152 50 152 148c0 64 -12 139 -119 141c-100 0 -115 -67 -115 -137v-586h-51l1 589c0 84 25 182 166 182c137 0 169 -97 169 -187c0 -84 -20 -131 -74 -163c110 -27 136 -121 136 -197
c0 -138 -50 -226 -233 -226h-48z" />
    <glyph glyph-name="longs" unicode="&#x17f;" horiz-adv-x="259" 
d="M109 569v-570h-50v571c0 151 56 216 185 207v-44c-109 6 -135 -41 -135 -164z" />
    <glyph glyph-name="t" unicode="t" horiz-adv-x="273" 
d="M64 164v557l50 7v-138h121v-47h-121v-378c0 -109 33 -130 128 -123v-44c-134 -13 -178 36 -178 166z" />
    <glyph glyph-name="tbar" unicode="&#x167;" horiz-adv-x="273" 
d="M64 164v126h-45v34h45v397l50 7v-138h121v-47h-121v-219h99v-34h-99v-125c0 -109 33 -130 128 -123v-44c-134 -13 -178 36 -178 166z" />
    <glyph glyph-name="tcaron" unicode="&#x165;" horiz-adv-x="342" 
d="M296 709h51l-40 -171h-38zM64 164v557l50 7v-138h96v-45h-96v-380c0 -109 33 -130 128 -123v-44c-134 -13 -178 36 -178 166z" />
    <glyph glyph-name="u" unicode="u" horiz-adv-x="510" 
d="M440 0h-44l-4 64c-27 -43 -75 -73 -147 -73c-137 0 -179 62 -179 213v377h50v-377c0 -130 29 -169 134 -169s140 73 140 140v406h50v-581z" />
    <glyph glyph-name="uni021B" unicode="&#x21b;" horiz-adv-x="269" 
d="M141 -62h49c-1 -90 -14 -118 -81 -158l-19 32c42 22 54 53 51 126zM64 164v557l50 7v-138h121v-47h-121v-378c0 -109 33 -130 128 -123v-44c-134 -13 -178 36 -178 166z" />
    <glyph glyph-name="v" unicode="v" horiz-adv-x="374" 
d="M3 581h55l64 -236l65 -270h1l65 270l64 236h55l-156 -582h-57z" />
    <glyph glyph-name="w" unicode="w" horiz-adv-x="608" 
d="M282 581h43l121 -508h1l41 224l61 284h50l-124 -582h-59l-68 290l-44 198l-43 -203l-64 -285h-56l-133 582h52l67 -290l42 -218h1z" />
    <glyph glyph-name="wacute" unicode="&#x1e83;" horiz-adv-x="608" 
d="M282 582h43l121 -509h1l41 224l61 285h50l-124 -583h-59l-68 290l-44 199l-43 -204l-64 -285h-56l-133 583h52l67 -291l42 -218h1zM321 656h-42v5l49 118h56v-3z" />
    <glyph glyph-name="wdieresis" unicode="&#x1e85;" horiz-adv-x="606" 
d="M282 582h43l121 -509h1l41 224l61 285h50l-124 -583h-59l-68 290l-44 199l-43 -204l-64 -285h-56l-133 583h52l67 -291l42 -218h1zM177 740c0 47 73 48 73 0c0 -46 -73 -47 -73 0zM359 740c0 47 73 48 73 0c0 -46 -73 -47 -73 0z" />
    <glyph glyph-name="wgrave" unicode="&#x1e81;" horiz-adv-x="606" 
d="M292 658l-63 120v3h56l49 -118v-5h-42zM282 582h43l121 -509h1l41 224l61 285h50l-124 -583h-59l-68 290l-44 199l-43 -204l-64 -285h-56l-133 583h52l67 -291l42 -218h1z" />
    <glyph glyph-name="x" unicode="x" horiz-adv-x="406" 
d="M64 0h-55l163 302l-153 279h56l72 -133l55 -112l58 115l73 130h56l-157 -279l166 -302h-58l-80 151l-58 117l-62 -123z" />
    <glyph glyph-name="y" unicode="y" horiz-adv-x="412" 
d="M19 -213l17 44c71 -26 101 -5 123 63l27 103l-171 584h55l64 -236l79 -270h1l67 270l64 236h55l-192 -693c-29 -103 -86 -134 -189 -101z" />
    <glyph glyph-name="ygrave" unicode="&#x1ef3;" horiz-adv-x="412" 
d="M19 -213l17 44c71 -26 101 -5 123 63l27 103l-171 584h55l64 -236l79 -270h1l67 270l64 236h55l-192 -693c-29 -103 -86 -134 -189 -101zM193 656l-63 120v3h56l49 -118v-5h-42z" />
    <glyph glyph-name="z" unicode="z" horiz-adv-x="432" 
d="M31 0v9l303 526h-282v46h357v-10l-304 -524h307v-47h-381z" />
    <glyph glyph-name="fi" unicode="&#xfb01;" horiz-adv-x="387" 
d="M220 775v-43c-91 -1 -111 -38 -111 -152h222v-580h-49v535h-173v-536h-50v582c0 141 49 194 161 194zM270 741c0 47 74 48 74 0c0 -47 -74 -48 -74 0z" />
    <glyph glyph-name="fl" unicode="&#xfb02;" horiz-adv-x="456" 
d="M223 531v-45h-114v-487h-50v571c0 151 56 216 185 207v-44c-109 6 -135 -41 -135 -164v-38h114zM441 44v-45c-122 -8 -144 35 -144 165v607h50v-610c0 -103 12 -117 94 -117z" />
    <glyph glyph-name="a.alt" 
d="M422 0h-45l-5 68c-24 -42 -73 -71 -145 -71c-119 0 -179 71 -179 201v182c0 143 60 209 188 212c128 0 186 -67 186 -212v-380zM371 196v183c0 107 -30 166 -135 166c-105 -2 -138 -55 -138 -166v-182c2 -111 43 -151 134 -151c100 0 139 65 139 150z" />
    <glyph glyph-name="aacute.alt" 
d="M422 0h-45l-5 68c-24 -42 -73 -71 -145 -71c-119 0 -179 71 -179 201v182c0 143 60 209 188 212c128 0 186 -67 186 -212v-380zM371 196v183c0 107 -30 166 -135 166c-105 -2 -138 -55 -138 -166v-182c2 -111 43 -151 134 -151c100 0 139 65 139 150zM255 653h-42v5
l49 118h56v-3z" />
    <glyph glyph-name="abreve.alt" 
d="M422 0h-45l-5 68c-24 -42 -73 -71 -145 -71c-119 0 -179 71 -179 201v182c0 143 60 209 188 212c128 0 186 -67 186 -212v-380zM371 196v183c0 107 -30 166 -135 166c-105 -2 -138 -55 -138 -166v-182c2 -111 43 -151 134 -151c100 0 139 65 139 150zM125 772h38
c3 -45 28 -68 75 -68c46 0 72 23 75 68h38c-3 -78 -48 -105 -113 -106c-65 1 -109 29 -113 106z" />
    <glyph glyph-name="acircumflex.alt" 
d="M422 0h-45l-5 68c-24 -42 -73 -71 -145 -71c-119 0 -179 71 -179 201v182c0 143 60 209 188 212c128 0 186 -67 186 -212v-380zM371 196v183c0 107 -30 166 -135 166c-105 -2 -138 -55 -138 -166v-182c2 -111 43 -151 134 -151c100 0 139 65 139 150zM103 668l125 114h31
l125 -114v-4h-53l-88 79l-87 -79h-53v4z" />
    <glyph glyph-name="adieresis.alt" 
d="M422 0h-45l-5 68c-24 -42 -73 -71 -145 -71c-119 0 -179 71 -179 201v182c0 143 60 209 188 212c128 0 186 -67 186 -212v-380zM371 196v183c0 107 -30 166 -135 166c-105 -2 -138 -55 -138 -166v-182c2 -111 43 -151 134 -151c100 0 139 65 139 150zM110 736
c0 47 73 48 73 0c0 -46 -73 -47 -73 0zM292 736c0 47 73 48 73 0c0 -46 -73 -47 -73 0z" />
    <glyph glyph-name="agrave.alt" 
d="M422 0h-45l-5 68c-24 -42 -73 -71 -145 -71c-119 0 -179 71 -179 201v182c0 143 60 209 188 212c128 0 186 -67 186 -212v-380zM371 196v183c0 107 -30 166 -135 166c-105 -2 -138 -55 -138 -166v-182c2 -111 43 -151 134 -151c100 0 139 65 139 150zM225 658l-63 120v3
h56l49 -118v-5h-42z" />
    <glyph glyph-name="amacron.alt" 
d="M422 0h-45l-5 68c-24 -42 -73 -71 -145 -71c-119 0 -179 71 -179 201v182c0 143 60 209 188 212c128 0 186 -67 186 -212v-380zM371 196v183c0 107 -30 166 -135 166c-105 -2 -138 -55 -138 -166v-182c2 -111 43 -151 134 -151c100 0 139 65 139 150zM132 735h217v-42
h-217v42z" />
    <glyph glyph-name="aogonek.alt" 
d="M422 0c-68 -47 -90 -76 -90 -103c0 -28 21 -35 51 -35c12 0 31 1 39 2v-46c-68 -4 -139 -3 -139 72c0 51 55 96 93 117l-4 61c-24 -42 -73 -71 -145 -71c-119 0 -179 71 -179 201v182c0 143 60 209 188 212c128 0 186 -67 186 -212v-380zM371 196v183
c0 107 -30 166 -135 166c-105 -2 -138 -55 -138 -166v-182c2 -111 43 -151 134 -151c100 0 139 65 139 150z" />
    <glyph glyph-name="aring.alt" 
d="M422 0h-45l-5 68c-24 -42 -73 -71 -145 -71c-119 0 -179 71 -179 201v182c0 143 60 209 188 212c128 0 186 -67 186 -212v-380zM371 196v183c0 107 -30 166 -135 166c-105 -2 -138 -55 -138 -166v-182c2 -111 43 -151 134 -151c100 0 139 65 139 150zM135 729
c0 56 49 86 100 86c49 0 100 -29 100 -85c0 -57 -47 -88 -101 -88c-55 0 -100 31 -99 87zM235 784c-86 0 -86 -111 0 -111c88 0 85 111 0 111z" />
    <glyph glyph-name="aringacute.alt" 
d="M257 888h56l-50 -67h-45v3zM136 708v-2c0 -56 45 -86 102 -86c54 0 102 30 102 87s-51 86 -102 86c-52 0 -102 -29 -102 -85zM236 758h-1c82 0 85 -104 1 -104c-80 0 -80 104 0 104zM422 0h-45l-5 68c-24 -42 -73 -71 -145 -71c-119 0 -179 71 -179 201v182
c0 143 60 209 188 212c128 0 186 -67 186 -212v-380zM371 196v183c0 107 -30 166 -135 166c-105 -2 -138 -55 -138 -166v-182c2 -111 43 -151 134 -151c100 0 139 65 139 150z" />
    <glyph glyph-name="atilde.alt" 
d="M422 0h-45l-5 68c-24 -42 -73 -71 -145 -71c-119 0 -179 71 -179 201v182c0 143 60 209 188 212c128 0 186 -67 186 -212v-380zM371 196v183c0 107 -30 166 -135 166c-105 -2 -138 -55 -138 -166v-182c2 -111 43 -151 134 -151c100 0 139 65 139 150zM156 702l-34 13
c16 42 54 73 109 50l41 -18c22 -8 47 -16 59 18l35 -8c-12 -60 -60 -68 -103 -50l-41 19c-29 13 -51 5 -66 -24z" />
    <glyph glyph-name="g.alt" horiz-adv-x="473" 
d="M460 603l6 -43c-37 -7 -60 -21 -75 -46c15 -28 22 -65 22 -110v-112c0 -84 -18 -132 -43 -163c51 -37 68 -95 68 -156c0 -111 -96 -162 -200 -162c-79 0 -151 32 -193 91l35 34c44 -59 96 -73 159 -73c80 0 148 37 148 110c0 51 -3 93 -51 126c-28 -15 -64 -22 -108 -22
c-126 0 -185 50 -185 213v89c0 152 59 213 185 213c61 0 106 -14 137 -42c25 32 54 47 95 53zM228 127c108 0 135 46 135 169v75c0 126 -20 173 -135 173c-108 0 -135 -48 -135 -171v-81c0 -120 20 -165 135 -165z" />
    <glyph glyph-name="gbreve.alt" horiz-adv-x="473" 
d="M460 603l6 -43c-37 -7 -60 -21 -75 -46c15 -28 22 -65 22 -110v-112c0 -84 -18 -132 -43 -163c51 -37 68 -95 68 -156c0 -111 -96 -162 -200 -162c-79 0 -151 32 -193 91l35 34c44 -59 96 -73 159 -73c80 0 148 37 148 110c0 51 -3 93 -51 126c-28 -15 -64 -22 -108 -22
c-126 0 -185 50 -185 213v89c0 152 59 213 185 213c61 0 106 -14 137 -42c25 32 54 47 95 53zM228 127c108 0 135 46 135 169v75c0 126 -20 173 -135 173c-108 0 -135 -48 -135 -171v-81c0 -120 20 -165 135 -165zM120 770h38c3 -45 28 -68 75 -68c46 0 72 23 75 68h38
c-3 -78 -48 -105 -113 -106c-65 1 -109 29 -113 106z" />
    <glyph glyph-name="gcircumflex.alt" horiz-adv-x="473" 
d="M460 603l6 -43c-37 -7 -60 -21 -75 -46c15 -28 22 -65 22 -110v-112c0 -84 -18 -132 -43 -163c51 -37 68 -95 68 -156c0 -111 -96 -162 -200 -162c-79 0 -151 32 -193 91l35 34c44 -59 96 -73 159 -73c80 0 148 37 148 110c0 51 -3 93 -51 126c-28 -15 -64 -22 -108 -22
c-126 0 -185 50 -185 213v89c0 152 59 213 185 213c61 0 106 -14 137 -42c25 32 54 47 95 53zM228 127c108 0 135 46 135 169v75c0 126 -20 173 -135 173c-108 0 -135 -48 -135 -171v-81c0 -120 20 -165 135 -165zM89 672l125 114h31l125 -114v-4h-53l-88 79l-87 -79h-53v4z
" />
    <glyph glyph-name="gcommaaccent.alt" horiz-adv-x="473" 
d="M460 603l6 -43c-37 -7 -60 -21 -75 -46c15 -28 22 -65 22 -110v-112c0 -84 -18 -132 -43 -163c51 -37 68 -95 68 -156c0 -111 -96 -162 -200 -162c-79 0 -151 32 -193 91l35 34c44 -59 96 -73 159 -73c80 0 148 37 148 110c0 51 -3 93 -51 126c-28 -15 -64 -22 -108 -22
c-126 0 -185 50 -185 213v89c0 152 59 213 185 213c61 0 106 -14 137 -42c25 32 54 47 95 53zM228 127c108 0 135 46 135 169v75c0 126 -20 173 -135 173c-108 0 -135 -48 -135 -171v-81c0 -120 20 -165 135 -165zM256 657h-46c2 81 16 107 81 145l19 -32
c-40 -21 -55 -48 -54 -113z" />
    <glyph glyph-name="gdotaccent.alt" horiz-adv-x="473" 
d="M196 723c0 51 82 51 82 -1c0 -51 -82 -51 -82 1zM460 603l6 -43c-37 -7 -60 -21 -75 -46c15 -28 22 -65 22 -110v-112c0 -84 -18 -132 -43 -163c51 -37 68 -95 68 -156c0 -111 -96 -162 -200 -162c-79 0 -151 32 -193 91l35 34c44 -59 96 -73 159 -73
c80 0 148 37 148 110c0 51 -3 93 -51 126c-28 -15 -64 -22 -108 -22c-126 0 -185 50 -185 213v89c0 152 59 213 185 213c61 0 106 -14 137 -42c25 32 54 47 95 53zM228 127c108 0 135 46 135 169v75c0 126 -20 173 -135 173c-108 0 -135 -48 -135 -171v-81
c0 -120 20 -165 135 -165z" />
    <glyph glyph-name="y.alt" horiz-adv-x="477" 
d="M376 581h51v-589c0 -160 -63 -217 -189 -217c-110 0 -164 44 -169 146h47c3 -62 27 -100 122 -100c111 0 140 51 140 171v75c-29 -54 -80 -70 -146 -70c-119 0 -179 53 -179 201v383h50v-384c2 -120 43 -151 134 -151c100 0 139 53 139 150v385z" />
    <glyph glyph-name="yacute.alt" horiz-adv-x="477" 
d="M376 581h51v-589c0 -160 -63 -217 -189 -217c-110 0 -164 44 -169 146h47c3 -62 27 -100 122 -100c111 0 140 51 140 171v75c-29 -54 -80 -70 -146 -70c-119 0 -179 53 -179 201v383h50v-384c2 -120 43 -151 134 -151c100 0 139 53 139 150v385zM258 650h-42v5l49 118h56
v-3z" />
    <glyph glyph-name="ycircumflex.alt" horiz-adv-x="477" 
d="M376 581h51v-589c0 -160 -63 -217 -189 -217c-110 0 -164 44 -169 146h47c3 -62 27 -100 122 -100c111 0 140 51 140 171v75c-29 -54 -80 -70 -146 -70c-119 0 -179 53 -179 201v383h50v-384c2 -120 43 -151 134 -151c100 0 139 53 139 150v385zM102 668l125 114h31
l125 -114v-4h-53l-88 79l-87 -79h-53v4z" />
    <glyph glyph-name="ydieresis.alt" horiz-adv-x="477" 
d="M376 581h51v-589c0 -160 -63 -217 -189 -217c-110 0 -164 44 -169 146h47c3 -62 27 -100 122 -100c111 0 140 51 140 171v75c-29 -54 -80 -70 -146 -70c-119 0 -179 53 -179 201v383h50v-384c2 -120 43 -151 134 -151c100 0 139 53 139 150v385zM115 736c0 47 73 48 73 0
c0 -46 -73 -47 -73 0zM297 736c0 47 73 48 73 0c0 -46 -73 -47 -73 0z" />
    <glyph glyph-name="ygrave.alt" horiz-adv-x="477" 
d="M376 581h51v-589c0 -160 -63 -217 -189 -217c-110 0 -164 44 -169 146h47c3 -62 27 -100 122 -100c111 0 140 51 140 171v75c-29 -54 -80 -70 -146 -70c-119 0 -179 53 -179 201v383h50v-384c2 -120 43 -151 134 -151c100 0 139 53 139 150v385zM232 650l-63 120v3h56
l49 -118v-5h-42z" />
    <glyph glyph-name="mu" unicode="&#x3bc;" horiz-adv-x="504" 
d="M68 -221v1v801h46v-392c0 -101 71 -149 146 -149c73 0 139 48 139 161v379h45v-580h-33l-7 74c-32 -58 -92 -78 -147 -78c-56 0 -127 27 -147 82v-299h-42z" />
    <glyph glyph-name="zero" unicode="0" horiz-adv-x="470" 
d="M237 40c108 0 137 53 137 149v401c0 90 -22 142 -137 142c-108 0 -137 -47 -137 -140v-406c0 -87 22 -146 137 -146zM237 -5c-126 0 -185 64 -185 194v402c0 127 59 188 185 188s185 -58 185 -188v-405c0 -133 -59 -191 -185 -191z" />
    <glyph glyph-name="one" unicode="1" horiz-adv-x="395" 
d="M50 723v49h182v-726h147v-46h-355v46h158v677h-132z" />
    <glyph glyph-name="two" unicode="2" horiz-adv-x="505" 
d="M56 0v151c0 262 351 166 351 407c0 127 -60 173 -153 173c-109 0 -155 -61 -155 -157h-50c0 154 93 205 208 205c95 0 200 -42 200 -221c0 -283 -349 -187 -349 -402v-105h355v-51h-407z" />
    <glyph glyph-name="three" unicode="3" horiz-adv-x="473" 
d="M240 450c142 -4 194 -104 194 -227c0 -159 -58 -226 -213 -226c-118 0 -183 60 -183 197h51c0 -89 37 -148 134 -148c115 0 162 47 162 172c0 119 -43 188 -169 188h-44v21l177 296h-295v48h368v-7z" />
    <glyph glyph-name="four" unicode="4" horiz-adv-x="539" 
d="M352 187h-343l-11 30l341 556h63v-538h79v-48h-79v-187h-50v187zM352 235l3 477l-292 -477h289z" />
    <glyph glyph-name="five" unicode="5" 
d="M238 47c109 0 143 39 143 153v104c0 111 -27 157 -135 157h-186v310h340v-49h-289v-211h135c126 0 185 -55 185 -206v-106c0 -148 -63 -202 -194 -202c-140 0 -197 61 -197 192h47c0 -98 33 -142 151 -142z" />
    <glyph glyph-name="six" unicode="6" horiz-adv-x="478" 
d="M345 773l1 -4c-86 -55 -158 -157 -195 -227c29 19 76 25 113 25c102 0 161 -59 161 -220v-135c0 -162 -59 -219 -185 -219s-185 49 -185 219v138c0 156 76 290 224 423h66zM240 39c108 0 135 52 135 175v133c0 122 -19 174 -124 177c-107 0 -146 -54 -146 -175v-133
c0 -126 20 -177 135 -177z" />
    <glyph glyph-name="seven" unicode="7" horiz-adv-x="430" 
d="M409 772v-18l-297 -754h-52l286 725h-333v47h396z" />
    <glyph glyph-name="eight" unicode="8" horiz-adv-x="528" 
d="M40 218c0 100 25 171 96 206c-37 26 -66 59 -66 159c0 143 61 195 187 195s183 -49 183 -198c0 -95 -29 -129 -62 -155c70 -31 100 -96 100 -207c0 -139 -34 -223 -220 -223s-218 113 -218 223zM428 218c0 125 -35 181 -173 182h-1c-148 0 -164 -85 -164 -182
c0 -85 19 -173 167 -173c139 0 171 47 171 173zM255 447c108 0 135 40 135 131c0 117 -22 155 -133 155c-108 0 -137 -57 -137 -148c0 -105 22 -138 135 -138z" />
    <glyph glyph-name="nine" unicode="9" horiz-adv-x="478" 
d="M135 0l-1 4c86 55 158 157 195 227c-29 -19 -76 -25 -113 -25c-102 0 -161 59 -161 220v135c0 162 59 219 185 219s185 -49 185 -219v-138c0 -156 -76 -290 -224 -423h-66zM240 734c-108 0 -135 -52 -135 -175v-133c0 -122 19 -174 124 -177c107 0 146 54 146 175v133
c0 126 -20 177 -135 177z" />
    <glyph glyph-name="fraction" unicode="&#x2044;" horiz-adv-x="125" 
d="M149 770h48l-230 -781h-48z" />
    <glyph glyph-name="onehalf" unicode="&#xbd;" horiz-adv-x="710" 
d="M144 -2l366 770h42l-368 -770h-40zM73 397v35h71v304h-48v33h84v-337h65v-35h-172zM632 41v-39h-193v97c0 81 44 101 86 115c36 12 71 18 71 79c0 51 -28 65 -61 65c-36 0 -57 -17 -57 -62h-35c0 68 39 97 92 97c54 0 97 -27 97 -96c0 -89 -56 -106 -102 -122
c-30 -10 -56 -24 -56 -78v-56h158z" />
    <glyph glyph-name="onequarter" unicode="&#xbc;" horiz-adv-x="710" 
d="M148 -2l366 770h42l-368 -770h-40zM557 96h-160l-9 20l167 281h40v-263h45v-38h-45v-96h-38v96zM557 134l2 202l-116 -202h114zM73 397v35h71v304h-48v33h84v-337h65v-35h-172z" />
    <glyph glyph-name="threequarters" unicode="&#xbe;" horiz-adv-x="710" 
d="M148 -2l366 770h42l-368 -770h-40zM557 96h-160l-9 20l167 281h40v-263h45v-38h-45v-96h-38v96zM557 134l2 202l-116 -202h114zM126 575v37h27c35 0 67 17 67 63c0 52 -30 64 -62 64c-36 0 -55 -21 -55 -66h-36c0 68 38 102 91 102c54 0 97 -31 97 -100
c0 -41 -21 -70 -55 -83c35 -19 62 -45 62 -92c0 -85 -51 -116 -104 -116c-54 0 -98 18 -98 111h32c0 -62 29 -77 66 -77c35 0 68 24 68 80c0 43 -34 76 -73 77h-27z" />
    <glyph glyph-name="ordfeminine" unicode="&#xaa;" horiz-adv-x="359" 
d="M291 431h-36l-3 47c-32 -41 -59 -52 -107 -52c-58 0 -103 44 -103 140v82c0 93 38 139 131 139c20 0 118 -1 118 -1v-355zM160 474c40 0 88 1 88 137v133h-75c-73 0 -84 -33 -84 -109v-52c0 -76 11 -109 71 -109zM50 368h251v-45h-251v45z" />
    <glyph glyph-name="ordmasculine" unicode="&#xba;" horiz-adv-x="321" 
d="M48 433h224v-42h-224v42zM156 488c-80 0 -118 53 -118 135v43c0 80 38 130 118 130c81 0 119 -48 119 -130v-43c0 -82 -38 -135 -119 -135zM156 528c62 0 78 36 78 101v28c0 65 -16 101 -78 101s-78 -36 -78 -101v-28c0 -65 16 -101 78 -101z" />
    <glyph glyph-name="onesuperior" unicode="&#xb9;" horiz-adv-x="265" 
d="M31 417v35h71v318h-48v33h84v-351h65v-35h-172z" />
    <glyph glyph-name="twosuperior" unicode="&#xb2;" horiz-adv-x="290" 
d="M242 453v-39h-193v97c0 81 44 101 86 115c36 12 71 18 71 79c0 51 -28 65 -61 65c-36 0 -57 -17 -57 -62h-35c0 68 39 97 92 97c54 0 97 -27 97 -96c0 -89 -56 -106 -102 -122c-30 -10 -56 -24 -56 -78v-56h158z" />
    <glyph glyph-name="threesuperior" unicode="&#xb3;" horiz-adv-x="273" 
d="M105 602v37h27c35 0 67 17 67 63c0 52 -30 64 -62 64c-36 0 -55 -21 -55 -66h-36c0 68 38 102 91 102c54 0 97 -31 97 -100c0 -41 -21 -70 -55 -83c35 -19 62 -45 62 -92c0 -85 -51 -116 -104 -116c-54 0 -98 18 -98 111h32c0 -62 29 -77 66 -77c35 0 68 24 68 80
c0 43 -34 76 -73 77h-27z" />
    <glyph glyph-name="asterisk" unicode="*" horiz-adv-x="244" 
d="M154 686l-1 -18c23 -8 52 -35 69 -52l-34 -35c-17 17 -44 45 -53 69h-17c-8 -23 -37 -52 -54 -70l-35 35c23 23 50 47 70 56l1 18c-23 7 -52 35 -69 52l34 35c17 -17 44 -46 53 -70h16c8 24 37 53 55 70l35 -34c-23 -23 -50 -47 -70 -56z" />
    <glyph glyph-name="backslash" unicode="\" horiz-adv-x="336" 
d="M100 769l198 -770h-55l-198 770h55z" />
    <glyph glyph-name="bullet" unicode="&#x2022;" horiz-adv-x="263" 
d="M138 243c-48 0 -83 32 -83 81s35 81 83 81c46 0 81 -32 81 -82c0 -48 -35 -80 -81 -80z" />
    <glyph glyph-name="comma" unicode="," horiz-adv-x="146" 
d="M19 -131l-19 32c45 24 55 54 50 139h50c0 -102 -10 -129 -81 -171z" />
    <glyph glyph-name="exclam" unicode="!" horiz-adv-x="187" 
d="M121 774v-653h-53v653h53zM60 33c0 47 74 48 74 0c0 -47 -74 -48 -74 0z" />
    <glyph glyph-name="numbersign" unicode="#" horiz-adv-x="618" 
d="M127 0h-49l50 244h-96l9 46h96l41 201h-96l9 45h96l46 227h49l-46 -227h211l46 227h48l-46 -226h98l-9 -46h-98l-41 -201h98l-9 -46h-97l-50 -244h-49l50 244h-211zM227 491l-41 -201h211l41 201h-211z" />
    <glyph glyph-name="period" unicode="." horiz-adv-x="160" 
d="M50 33c0 47 74 48 74 0c0 -47 -74 -48 -74 0z" />
    <glyph glyph-name="periodcentered" unicode="&#xb7;" horiz-adv-x="169" 
d="M50 340c0 47 74 48 74 0c0 -47 -74 -48 -74 0z" />
    <glyph glyph-name="question" unicode="?" horiz-adv-x="445" 
d="M75 607h-45c0 122 66 174 184 174c161 0 181 -106 181 -199v-66c0 -231 -188 -160 -188 -365h-48c0 231 189 160 189 363v67c0 119 -35 156 -134 156c-90 0 -139 -29 -139 -130zM146 33c0 47 74 48 74 0c0 -47 -74 -48 -74 0z" />
    <glyph glyph-name="quotedbl" unicode="&#x22;" horiz-adv-x="199" 
d="M77 604h-41l-1 170h47zM170 604h-41l-1 170h47z" />
    <glyph glyph-name="quotesingle" unicode="'" horiz-adv-x="115" 
d="M77 604h-41l-1 170h47z" />
    <glyph glyph-name="semicolon" unicode=";" horiz-adv-x="160" 
d="M50 379c0 47 74 48 74 0c0 -47 -74 -48 -74 0zM31 -131l-19 32c45 24 55 54 50 139h50c0 -102 -10 -129 -81 -171z" />
    <glyph glyph-name="slash" unicode="/" horiz-adv-x="361" 
d="M270 770h48l-230 -781h-48z" />
    <glyph glyph-name="underscore" unicode="_" horiz-adv-x="440" 
d="M407 -2v-44h-372v44h372z" />
    <glyph glyph-name="braceleft" unicode="{" horiz-adv-x="281" 
d="M116 671c0 107 36 160 143 153v-40c-80 11 -96 -43 -96 -115v-180c0 -38 0 -111 -53 -135c46 -18 54 -80 54 -131v-202c0 -72 15 -123 95 -112v-45c-107 -7 -143 46 -143 153v205c0 47 -10 112 -75 112v39c65 0 75 62 75 116v182z" />
    <glyph glyph-name="braceright" unicode="}" horiz-adv-x="300" 
d="M178 671v-182c0 -54 10 -116 75 -116v-39c-65 0 -75 -65 -75 -112v-205c0 -107 -36 -160 -143 -153v45c80 -11 95 40 95 112v202c0 51 8 113 54 131c-53 24 -53 97 -53 135v180c0 72 -16 126 -96 115v40c107 7 143 -46 143 -153z" />
    <glyph glyph-name="bracketleft" unicode="[" horiz-adv-x="281" 
d="M91 -114v891h157v-44h-107v-800h107v-47h-157z" />
    <glyph glyph-name="bracketright" unicode="]" horiz-adv-x="290" 
d="M199 777v-891h-157v47h107v800h-107v44h157z" />
    <glyph glyph-name="parenleft" unicode="(" horiz-adv-x="210" 
d="M108 599v-476c0 -96 4 -139 79 -139v-43c-97 -1 -129 41 -129 184v472c0 143 32 185 129 184v-43c-75 0 -79 -43 -79 -139z" />
    <glyph glyph-name="parenright" unicode=")" horiz-adv-x="219" 
d="M110 123v476c0 96 -4 139 -79 139v43c97 1 129 -41 129 -184v-472c0 -143 -32 -185 -129 -184v43c75 0 79 43 79 139z" />
    <glyph glyph-name="emdash" unicode="&#x2014;" horiz-adv-x="658" 
d="M609 326v-43h-574v43h574z" />
    <glyph glyph-name="endash" unicode="&#x2013;" horiz-adv-x="524" 
d="M479 326v-43h-444v43h444z" />
    <glyph glyph-name="hyphen" unicode="-" horiz-adv-x="406" 
d="M350 337v-45h-289v45h289z" />
    <glyph glyph-name="guillemotleft" unicode="&#xab;" horiz-adv-x="369" 
d="M37 321l138 220h53l-137 -220l137 -221h-53zM145 321l138 220h53l-137 -220l137 -221h-53z" />
    <glyph glyph-name="guillemotright" unicode="&#xbb;" horiz-adv-x="369" 
d="M326 322l-138 -221h-53l137 221l-137 220h53zM80 542l138 -220l-138 -221h-53l137 221l-137 220h53z" />
    <glyph glyph-name="guilsinglleft" unicode="&#x2039;" horiz-adv-x="276" 
d="M37 321l138 220h53l-137 -220l137 -221h-53z" />
    <glyph glyph-name="guilsinglright" unicode="&#x203a;" horiz-adv-x="276" 
d="M233 321l-138 -221h-53l137 221l-137 220h53z" />
    <glyph glyph-name="quotedblbase" unicode="&#x201e;" horiz-adv-x="287" 
d="M28 -131l-19 32c45 24 59 54 54 139h46c0 -102 -10 -129 -81 -171zM145 -131l-19 32c45 24 58 54 53 139h47c0 -102 -10 -129 -81 -171z" />
    <glyph glyph-name="quotedblleft" unicode="&#x201c;" horiz-adv-x="267" 
d="M91 605h-47l57 167h41zM191 605h-48l57 167h41z" />
    <glyph glyph-name="quotedblright" unicode="&#x201d;" horiz-adv-x="266" 
d="M193 771h47l-57 -167h-41zM93 771h48l-57 -167h-41z" />
    <glyph glyph-name="quoteleft" unicode="&#x2018;" horiz-adv-x="187" 
d="M92 605h-50l59 167h42z" />
    <glyph glyph-name="quoteright" unicode="&#x2019;" horiz-adv-x="174" 
d="M92 771h50l-59 -167h-42z" />
    <glyph glyph-name="quotesinglbase" unicode="&#x201a;" horiz-adv-x="155" 
d="M28 -131l-19 32c45 24 55 54 50 139h50c0 -102 -10 -129 -81 -171z" />
    <glyph glyph-name="A" unicode="A" horiz-adv-x="469" 
d="M110 190l-49 -190h-52l198 772h55l198 -772h-53l-50 190h-247zM236 699h-1l-113 -462h224z" />
    <glyph glyph-name="florin" unicode="&#x192;" horiz-adv-x="316" 
d="M108 488h-98v43h98v39c0 151 56 216 185 207v-44c-109 6 -135 -41 -135 -164v-38h114v-43h-114v-494c0 -151 -56 -201 -185 -192v44c109 -6 135 26 135 149v493z" />
    <glyph glyph-name="Euro" unicode="&#x20ac;" horiz-adv-x="518" 
d="M459 66l21 -43c-194 -84 -379 -32 -379 215v59h-68v45h68v78h-68v45h68v66c0 224 200 309 366 204l-23 -37c-143 88 -293 12 -293 -165v-68h214v-45h-214v-78h214v-45h-214v-61c0 -181 121 -254 308 -170z" />
    <glyph glyph-name="cent" unicode="&#xa2;" horiz-adv-x="462" 
d="M370 174h47c0 -116 -53 -174 -161 -180v-85h-43v85c-111 6 -163 69 -163 220v155c0 150 54 210 163 218v87h43v-87c115 -5 154 -61 159 -167h-47c-4 72 -28 121 -129 121c-106 0 -139 -49 -139 -172v-152c0 -120 24 -175 135 -175s133 49 135 132z" />
    <glyph glyph-name="dollar" unicode="$" horiz-adv-x="504" 
d="M234 -94v86c-126 5 -190 63 -190 183h48c0 -95 54 -135 158 -135c128 1 173 52 173 185c0 137 -96 154 -211 165c-80 8 -166 43 -166 188c0 136 64 196 188 203v93h42v-93c99 -4 173 -44 179 -173h-48c-1 94 -61 129 -150 129c-104 0 -162 -33 -162 -159
c0 -140 83 -138 201 -152c113 -15 178 -89 178 -202c0 -177 -79 -225 -198 -231v-87h-42z" />
    <glyph glyph-name="sterling" unicode="&#xa3;" horiz-adv-x="589" 
d="M40 0v47h109v337h-100v48h100v160c0 130 59 183 185 183s185 -61 185 -188h-50c0 81 -20 140 -135 140s-133 -54 -135 -133v-162h221v-48h-221v-337h333v-47h-492z" />
    <glyph glyph-name="yen" unicode="&#xa5;" horiz-adv-x="394" 
d="M339 774h58l-153 -390h108v-42h-124l-5 -13v-62h129v-41h-129v-227h-54v227h-133v41h133v62l-5 13h-128v42h112l-150 390h58l71 -189l69 -199l70 199z" />
    <glyph glyph-name="asciitilde" unicode="~" horiz-adv-x="582" 
d="M340 270l-118 58c-43 20 -95 15 -125 -63l-37 17c29 85 104 121 182 83l119 -57c45 -19 89 -26 120 57l37 -16c-29 -86 -90 -122 -178 -79z" />
    <glyph glyph-name="divide" unicode="&#xf7;" horiz-adv-x="416" 
d="M36 324h313v45h-313v-45zM161 226c0 46 69 46 69 0c0 -45 -69 -45 -69 0zM161 463c0 46 69 46 69 0c0 -45 -69 -45 -69 0z" />
    <glyph glyph-name="equal" unicode="=" horiz-adv-x="490" 
d="M412 439v-49h-334v49h334zM412 268v-47h-334v47h334z" />
    <glyph glyph-name="greater" unicode="&#x3e;" horiz-adv-x="339" 
d="M289 321l-196 -186l-31 29l172 165v1l-171 165l30 29l196 -186v-17z" />
    <glyph glyph-name="less" unicode="&#x3c;" horiz-adv-x="337" 
d="M246 135l-196 186v17l196 186l30 -29l-171 -165v-1l172 -165z" />
    <glyph glyph-name="logicalnot" unicode="&#xac;" horiz-adv-x="527" 
d="M421 388h-371v47h416v-218h-45v171z" />
    <glyph glyph-name="multiply" unicode="&#xd7;" horiz-adv-x="400" 
d="M241 300l113 -113l-33 -32l-113 113l-113 -114l-30 32l113 113l-113 113l32 32l113 -113l113 113l32 -31z" />
    <glyph glyph-name="percent" unicode="%" horiz-adv-x="639" 
d="M475 37c69 0 84 30 84 108v14c0 81 -11 110 -84 110c-69 0 -84 -30 -84 -108v-15c0 -80 11 -109 84 -109zM475 -5c-84 0 -124 38 -124 125v66c0 85 40 126 124 126s124 -39 124 -126v-66c0 -85 -40 -125 -124 -125zM154 506c69 0 84 30 84 108v14c0 81 -11 110 -84 110
c-69 0 -84 -30 -84 -108v-15c0 -80 11 -109 84 -109zM154 464c-84 0 -124 38 -124 125v66c0 85 40 126 124 126s124 -39 124 -126v-66c0 -85 -40 -125 -124 -125zM456 791h46l-327 -794l-45 2z" />
    <glyph glyph-name="perthousand" unicode="&#x2030;" horiz-adv-x="962" 
d="M480 37c69 0 84 30 84 108v14c0 81 -11 110 -84 110c-69 0 -84 -30 -84 -108v-15c0 -80 11 -109 84 -109zM480 -5c-84 0 -124 38 -124 125v66c0 85 40 126 124 126s124 -39 124 -126v-66c0 -85 -40 -125 -124 -125zM159 506c69 0 84 30 84 108v14c0 81 -11 110 -84 110
c-69 0 -84 -30 -84 -108v-15c0 -80 11 -109 84 -109zM159 464c-84 0 -124 38 -124 125v66c0 85 40 126 124 126s124 -39 124 -126v-66c0 -85 -40 -125 -124 -125zM461 791h46l-327 -794l-45 2zM797 37c69 0 84 30 84 108v14c0 81 -11 110 -84 110c-69 0 -84 -30 -84 -108
v-15c0 -80 11 -109 84 -109zM797 -5c-84 0 -124 38 -124 125v66c0 85 40 126 124 126s124 -39 124 -126v-66c0 -85 -40 -125 -124 -125z" />
    <glyph glyph-name="plus" unicode="+" horiz-adv-x="419" 
d="M381 407v-45h-149v-152h-49v152h-150v45h150v151h49v-151h149z" />
    <glyph glyph-name="plusminus" unicode="&#xb1;" horiz-adv-x="462" 
d="M407 385v-45h-164v-165h-44v165h-164v45h164v162h44v-162h164zM400 100v-45h-358v45h358z" />
    <glyph glyph-name="ampersand" unicode="&#x26;" horiz-adv-x="559" 
d="M434 586h-47c-3 90 -36 140 -134 140c-95 0 -135 -72 -135 -146c0 -73 57 -145 132 -145h263v-45h-78v-188c0 -82 3 -167 95 -152v-51c-82 -9 -118 28 -130 93c-37 -55 -85 -95 -151 -95c-116 0 -197 65 -197 220c0 107 52 157 112 195c-60 32 -98 90 -98 167
c0 110 75 193 187 193c105 0 181 -43 181 -186zM386 204v186h-137c-77 0 -144 -75 -144 -174c0 -110 54 -165 144 -165c75 0 137 72 137 153z" />
    <glyph glyph-name="at" unicode="@" horiz-adv-x="648" 
d="M503 47c34 0 50 13 50 62v275c0 144 -34 160 -149 160h-160c-115 0 -149 -22 -149 -160v-367c0 -73 19 -129 119 -129h200v-50h-190c-117 0 -179 43 -179 162v383c0 164 43 209 200 209h158c158 0 200 -48 200 -200v-279c0 -82 -39 -111 -100 -111c-71 0 -91 46 -94 73
c-11 -18 -46 -46 -101 -46c-76 0 -122 36 -122 124v110c0 93 69 133 142 133h121v-275c0 -43 14 -74 54 -74zM319 79c55 0 80 31 80 110v160h-74c-60 0 -89 -29 -89 -87v-106c0 -60 23 -77 83 -77z" />
    <glyph glyph-name="bar" unicode="|" horiz-adv-x="228" 
d="M137 779v-882h-46v882h46z" />
    <glyph glyph-name="brokenbar" unicode="&#xa6;" horiz-adv-x="214" 
d="M81 408v363h46v-363h-46zM127 337v-386h-46v386h46z" />
    <glyph glyph-name="copyright" unicode="&#xa9;" horiz-adv-x="901" 
d="M591 317h41c0 -129 -32 -194 -180 -194s-181 65 -181 194v132c0 132 31 194 181 194c144 0 179 -62 179 -194h-40c0 95 -23 154 -139 154c-137 0 -141 -59 -141 -167v-105c0 -108 4 -167 141 -167c120 0 139 52 139 153zM447 -11c-508 0 -508 792 0 792
c514 0 514 -792 0 -792zM447 736c-450 0 -450 -702 0 -702c456 0 456 702 0 702z" />
    <glyph glyph-name="dagger" unicode="&#x2020;" horiz-adv-x="391" 
d="M379 320v-51h-164v-536h-50v536h-158v51h158v297h50v-297h164z" />
    <glyph glyph-name="daggerdbl" unicode="&#x2021;" horiz-adv-x="442" 
d="M397 320v-51h-164v-110h164v-51h-164v-375h-50v375h-158v51h158v110h-158v51h158v297h50v-297h164z" />
    <glyph glyph-name="paragraph" unicode="&#xb6;" horiz-adv-x="662" 
d="M35 584c0 127 59 188 185 188h387v-51h-89v-821h-53v821h-121v-821h-53v439h-71c-126 0 -185 58 -185 188v57z" />
    <glyph glyph-name="registered" unicode="&#xae;" horiz-adv-x="474" 
d="M20 614c0 134 89 210 203 210s206 -72 206 -206s-89 -210 -203 -210s-206 72 -206 206zM401 616c0 118 -79 179 -175 179c-93 0 -178 -55 -178 -179c0 -118 78 -179 175 -179c93 0 178 55 178 179zM279 488l-56 103h-37v-103h-25v256h61c53 0 80 -19 80 -78
c0 -52 -19 -66 -54 -73l56 -105h-25zM279 667c0 37 -9 55 -57 55h-36v-109h36c45 0 57 2 57 54z" />
    <glyph glyph-name="section" unicode="&#xa7;" horiz-adv-x="440" 
d="M375 659h-47c0 82 -27 116 -121 116c-86 0 -121 -36 -121 -99c0 -82 57 -100 123 -108c84 -10 181 -28 181 -153c0 -66 -31 -114 -84 -140c44 -20 83 -55 83 -134c0 -97 -55 -165 -177 -165c-112 0 -177 47 -177 172h48c0 -65 24 -124 129 -124c86 0 129 35 129 111
c0 93 -62 107 -133 118c-81 12 -174 21 -174 151c0 73 38 115 85 139c-46 16 -84 49 -84 130c0 92 57 149 171 149c128 0 169 -60 169 -163zM214 518c-91 0 -132 -48 -132 -111c0 -68 51 -105 130 -105c85 0 129 39 129 109c0 79 -51 107 -127 107z" />
    <glyph glyph-name="trademark" unicode="&#x2122;" horiz-adv-x="454" 
d="M402 774v-308h-23v280l-57 -220h-23l-57 219v-279h-23v308h39l52 -201l52 201h40zM171 773v-21h-64v-285h-23v285h-64v21h151z" />
    <glyph glyph-name="asciicircum" unicode="^" horiz-adv-x="540" 
d="M54 458l190 317h39l188 -317h-54l-154 267l-156 -267h-53z" />
    <glyph glyph-name="acute" unicode="&#xb4;" horiz-adv-x="190" 
d="M86 650h-42v5l49 118h56v-3z" />
    <glyph glyph-name="breve" unicode="&#x2d8;" horiz-adv-x="300" 
d="M39 772h38c3 -45 28 -68 75 -68c46 0 72 23 75 68h38c-3 -78 -48 -105 -113 -106c-65 1 -109 29 -113 106z" />
    <glyph glyph-name="caron" unicode="&#x2c7;" horiz-adv-x="322" 
d="M306 767l-125 -114h-31l-125 114v4h53l88 -79l87 79h53v-4z" />
    <glyph glyph-name="cedilla" unicode="&#xb8;" horiz-adv-x="294" 
d="M102 -71l21 95h36l-12 -57c75 -1 100 -64 92 -108c-11 -60 -56 -86 -115 -82c-31 2 -70 14 -93 53l23 29c15 -27 48 -44 73 -44c49 0 66 18 73 46c8 33 -15 86 -98 68z" />
    <glyph glyph-name="circumflex" unicode="&#x2c6;" horiz-adv-x="355" 
d="M29 668l125 114h31l125 -114v-4h-53l-88 79l-87 -79h-53v4z" />
    <glyph glyph-name="dieresis" unicode="&#xa8;" horiz-adv-x="382" 
d="M63 736c0 47 73 48 73 0c0 -46 -73 -47 -73 0zM245 736c0 47 73 48 73 0c0 -46 -73 -47 -73 0z" />
    <glyph glyph-name="dotaccent" unicode="&#x2d9;" horiz-adv-x="156" 
d="M37 738c0 50 79 52 79 0c0 -49 -79 -52 -79 0z" />
    <glyph glyph-name="grave" unicode="`" horiz-adv-x="200" 
d="M91 650l-63 120v3h56l49 -118v-5h-42z" />
    <glyph glyph-name="hungarumlaut" unicode="&#x2dd;" horiz-adv-x="290" 
d="M87 681h-48l56 94h57v-2zM198 680h-47l60 95h56v-2z" />
    <glyph glyph-name="macron" unicode="&#xaf;" horiz-adv-x="367" 
d="M67 774h229v-45h-229v45z" />
    <glyph glyph-name="ogonek" unicode="&#x2db;" horiz-adv-x="298" 
d="M197 12l36 -12c-68 -47 -90 -76 -90 -103c0 -28 21 -35 51 -35c12 0 31 1 39 2v-46c-68 -4 -139 -3 -139 72c0 55 66 103 103 122z" />
    <glyph glyph-name="ring" unicode="&#x2da;" horiz-adv-x="320" 
d="M54 673c0 68 52 104 107 104c53 0 108 -35 108 -103s-51 -105 -109 -105c-59 0 -107 37 -106 104zM161 740c-92 0 -92 -134 0 -134c95 0 92 134 0 134z" />
    <glyph glyph-name="tilde" unicode="&#x2dc;" horiz-adv-x="357" 
d="M81 702l-37 15c18 45 59 79 118 54l45 -20c24 -8 50 -17 63 20l38 -9c-13 -65 -65 -73 -111 -54l-44 20c-32 14 -56 6 -72 -26z" />
    <glyph glyph-name="_0004" horiz-adv-x="0" 
 />
    <glyph glyph-name="eth" unicode="&#xf0;" horiz-adv-x="494" 
d="M342 743l20 -29l-62 -38c86 -102 130 -208 130 -326v-138c0 -170 -59 -219 -185 -219s-185 57 -185 219v135c0 161 59 220 161 220c37 0 84 -6 113 -25c-17 32 -42 72 -72 110l-55 -33l-20 29l52 32c-30 34 -64 65 -100 89l1 4h66c26 -24 49 -47 71 -70zM245 39
c115 0 135 51 135 177v133c0 121 -39 175 -146 175c-105 -3 -124 -55 -124 -177v-133c0 -123 27 -175 135 -175z" />
    <glyph glyph-name="currency" unicode="&#xa4;" horiz-adv-x="540" 
d="M273 121c-49 0 -89 17 -119 45l-44 -50l-32 32l48 53c-22 34 -32 75 -32 117c0 48 14 95 42 133l-48 53l31 31l47 -53c29 23 64 35 107 35c45 0 81 -11 110 -33l47 51l31 -31l-47 -52c25 -35 38 -81 38 -134c0 -44 -10 -84 -29 -117l48 -53l-32 -32l-44 49
c-30 -28 -71 -44 -122 -44zM273 165c88 0 136 68 136 153c0 90 -48 154 -136 154c-87 0 -136 -77 -136 -154c0 -76 49 -153 136 -153z" />
    <glyph glyph-name="degree" unicode="&#xb0;" horiz-adv-x="326" 
d="M157 733c-100 0 -105 -149 0 -149c99 0 97 149 0 149zM157 772c151 0 154 -226 1 -226c-160 0 -152 226 -1 226z" />
    <glyph glyph-name="_181" unicode="&#xb5;" horiz-adv-x="504" 
d="M68 -221v1v801h46v-392c0 -101 71 -149 146 -149c73 0 139 48 139 161v379h45v-580h-33l-7 74c-32 -58 -92 -78 -147 -78c-56 0 -127 27 -147 82v-299h-42z" />
    <glyph glyph-name="uni00AD" unicode="&#xad;" horiz-adv-x="432" 
d="M53 353h334v-48h-334v48z" />
    <glyph glyph-name="OE" unicode="&#x152;" horiz-adv-x="710" 
d="M264 774h401v-46h-267v-292h237v-47h-237v-340h275v-49h-409c-183 0 -224 74 -224 247v268c0 180 38 259 224 259zM90 250c0 -124 5 -204 174 -204h86v682h-86c-169 0 -174 -76 -174 -216v-262z" />
    <glyph glyph-name="oe" unicode="&#x153;" horiz-adv-x="752" 
d="M647 159h45c0 -106 -46 -162 -165 -162c-78 0 -127 22 -153 77c-23 -58 -69 -81 -149 -81c-126 0 -180 49 -180 219v160c0 165 54 218 180 218c79 0 126 -20 149 -78c25 56 74 80 152 80c135 0 173 -67 173 -221v-87h-304v-66c0 -119 23 -176 132 -176
c107 0 120 48 120 117zM225 39c104 0 124 49 125 163v181c-1 115 -15 160 -125 160c-108 0 -130 -49 -130 -172v-155c0 -126 15 -177 130 -177zM395 330h260v40c0 112 -13 180 -129 180c-106 0 -130 -52 -131 -169v-12v-39z" />
    <glyph glyph-name="ellipsis" unicode="&#x2026;" horiz-adv-x="494" 
d="M51 33c0 47 74 48 74 0c0 -47 -74 -48 -74 0zM203 33c0 47 74 48 74 0c0 -47 -74 -48 -74 0zM355 33c0 47 74 48 74 0c0 -47 -74 -48 -74 0z" />
    <glyph glyph-name="_0010" horiz-adv-x="0" 
 />
    <glyph glyph-name="exclamdown" unicode="&#xa1;" horiz-adv-x="187" 
d="M65 -183v653h53v-653h-53zM126 558c0 -47 -74 -48 -74 0c0 47 74 48 74 0z" />
    <glyph glyph-name="questiondown" unicode="&#xbf;" horiz-adv-x="445" 
d="M352 -7h45c0 -122 -66 -174 -184 -174c-161 0 -181 106 -181 199v66c0 231 188 160 188 365h48c0 -231 -189 -160 -189 -363v-67c0 -119 35 -156 134 -156c90 0 139 29 139 130zM281 567c0 -47 -74 -48 -74 0c0 47 74 48 74 0z" />
    <glyph glyph-name="Agrave" unicode="&#xc0;" horiz-adv-x="469" 
d="M110 190l-49 -191h-52l198 770h55l198 -770h-53l-50 191h-247zM236 696h-1l-113 -459h224zM220 813l-63 120v3h56l49 -118v-5h-42z" />
    <glyph glyph-name="Aacute" unicode="&#xc1;" horiz-adv-x="469" 
d="M110 190l-49 -191h-52l198 770h55l198 -770h-53l-50 191h-247zM236 696h-1l-113 -459h224zM248 812h-42v5l49 118h56v-3z" />
    <glyph glyph-name="Acircumflex" unicode="&#xc2;" horiz-adv-x="469" 
d="M110 190l-49 -191h-52l198 770h55l198 -770h-53l-50 191h-247zM236 696h-1l-113 -459h224zM96 809l125 114h31l125 -114v-4h-53l-88 79l-87 -79h-53v4z" />
    <glyph glyph-name="Atilde" unicode="&#xc3;" horiz-adv-x="469" 
d="M110 190l-49 -191h-52l198 770h55l198 -770h-53l-50 191h-247zM236 696h-1l-113 -459h224zM138 820l-37 15c18 45 59 79 118 54l45 -20c24 -8 50 -17 63 20l38 -9c-13 -65 -65 -73 -111 -54l-44 20c-32 14 -56 6 -72 -26z" />
    <glyph glyph-name="Adieresis" unicode="&#xc4;" horiz-adv-x="469" 
d="M110 190l-49 -191h-52l198 770h55l198 -770h-53l-50 191h-247zM236 696h-1l-113 -459h224zM108 845c0 47 73 48 73 0c0 -46 -73 -47 -73 0zM290 845c0 47 73 48 73 0c0 -46 -73 -47 -73 0z" />
    <glyph glyph-name="Aring" unicode="&#xc5;" horiz-adv-x="469" 
d="M110 190l-49 -191h-52l190 740c-33 11 -56 40 -56 83c0 58 44 88 91 88c44 0 91 -29 91 -87c0 -42 -24 -71 -56 -83l191 -741h-53l-50 191h-247zM236 696h-1l-113 -459h224zM234 876c-72 0 -74 -102 -6 -107h6c76 0 73 107 0 107z" />
    <glyph glyph-name="AE" unicode="&#xc6;" horiz-adv-x="643" 
d="M305 772h286v-44h-227v-292h206v-47h-206v-340h247v-49h-297v189h-183l-73 -190h-54zM148 237h166l2 439z" />
    <glyph glyph-name="Ccedilla" unicode="&#xc7;" horiz-adv-x="523" 
d="M244 -92l19 85c-166 4 -204 85 -204 255v273c0 172 37 261 217 261c158 0 203 -67 203 -207h-47c0 109 -30 163 -156 163c-157 0 -168 -88 -168 -213v-275c0 -133 11 -211 168 -211c130 0 152 52 157 163h46c-5 -132 -40 -202 -180 -208l-10 -48c75 -1 100 -64 92 -108
c-11 -60 -56 -86 -115 -82c-31 2 -70 14 -93 53l23 29c15 -27 48 -44 73 -44c49 0 66 18 73 46c8 33 -15 86 -98 68z" />
    <glyph glyph-name="Idieresis" unicode="&#xcf;" horiz-adv-x="193" 
d="M-11 863c0 47 73 48 73 0c0 -46 -73 -47 -73 0zM137 863c0 47 73 48 73 0c0 -46 -73 -47 -73 0zM123 773v-774h-53v774h53z" />
    <glyph glyph-name="Icircumflex" unicode="&#xce;" horiz-adv-x="193" 
d="M123 773v-774h-53v774h53zM-44 816l125 114h31l125 -114v-4h-53l-88 79l-87 -79h-53v4z" />
    <glyph glyph-name="Iacute" unicode="&#xcd;" horiz-adv-x="193" 
d="M123 773v-774h-53v774h53zM113 819h-42v5l49 118h56v-3z" />
    <glyph glyph-name="Igrave" unicode="&#xcc;" horiz-adv-x="193" 
d="M123 773v-774h-53v774h53zM81 821l-63 120v3h56l49 -118v-5h-42z" />
    <glyph glyph-name="Edieresis" unicode="&#xcb;" horiz-adv-x="476" 
d="M70 774h349v-46h-299v-292h269v-47h-269v-340h319v-49h-369v774zM128 868c0 47 73 48 73 0c0 -46 -73 -47 -73 0zM310 868c0 47 73 48 73 0c0 -46 -73 -47 -73 0z" />
    <glyph glyph-name="Ecircumflex" unicode="&#xca;" horiz-adv-x="476" 
d="M70 774h349v-46h-299v-292h269v-47h-269v-340h319v-49h-369v774zM112 828l125 114h31l125 -114v-4h-53l-88 79l-87 -79h-53v4z" />
    <glyph glyph-name="Eacute" unicode="&#xc9;" horiz-adv-x="476" 
d="M70 774h349v-46h-299v-292h269v-47h-269v-340h319v-49h-369v774zM273 817h-42v5l49 118h56v-3z" />
    <glyph glyph-name="Egrave" unicode="&#xc8;" horiz-adv-x="476" 
d="M70 774h349v-46h-299v-292h269v-47h-269v-340h319v-49h-369v774zM250 820l-63 120v3h56l49 -118v-5h-42z" />
    <glyph glyph-name="Eth" unicode="&#xd0;" horiz-adv-x="535" 
d="M71 0v380h-71v47h71v347h189c188 0 222 -80 222 -262v-257c0 -176 -41 -255 -224 -255h-187zM274 427v-47h-153v-331h137c169 0 174 73 174 206v259c0 134 -5 215 -174 215h-137v-302h153z" />
    <glyph glyph-name="Ntilde" unicode="&#xd1;" horiz-adv-x="511" 
d="M442 774v-773h-58l-267 657h-2l7 -242v-415h-53v773h53l274 -664h2l-9 275v389h53zM163 844l-37 15c18 45 59 79 118 54l45 -20c24 -8 50 -17 63 20l38 -9c-13 -65 -65 -73 -111 -54l-44 20c-32 14 -56 6 -72 -26z" />
    <glyph glyph-name="Odieresis" unicode="&#xd6;" horiz-adv-x="569" 
d="M283 -7c-183 0 -224 81 -224 254v279c0 177 38 254 224 254s224 -77 224 -255v-277c0 -174 -41 -255 -224 -255zM283 734c-169 0 -174 -77 -174 -211v-273c0 -124 5 -211 174 -211s174 84 174 211v273c0 131 -5 211 -174 211zM161 875c0 47 73 48 73 0
c0 -46 -73 -47 -73 0zM343 875c0 47 73 48 73 0c0 -46 -73 -47 -73 0z" />
    <glyph glyph-name="Otilde" unicode="&#xd5;" horiz-adv-x="569" 
d="M283 -7c-183 0 -224 81 -224 254v279c0 177 38 254 224 254s224 -77 224 -255v-277c0 -174 -41 -255 -224 -255zM283 734c-169 0 -174 -77 -174 -211v-273c0 -124 5 -211 174 -211s174 84 174 211v273c0 131 -5 211 -174 211zM198 849l-37 15c18 45 59 79 118 54l45 -20
c24 -8 50 -17 63 20l38 -9c-13 -65 -65 -73 -111 -54l-44 20c-32 14 -56 6 -72 -26z" />
    <glyph glyph-name="Ocircumflex" unicode="&#xd4;" horiz-adv-x="569" 
d="M283 -7c-183 0 -224 81 -224 254v279c0 177 38 254 224 254s224 -77 224 -255v-277c0 -174 -41 -255 -224 -255zM283 734c-169 0 -174 -77 -174 -211v-273c0 -124 5 -211 174 -211s174 84 174 211v273c0 131 -5 211 -174 211zM147 831l125 114h31l125 -114v-4h-53l-88 79
l-87 -79h-53v4z" />
    <glyph glyph-name="Oacute" unicode="&#xd3;" horiz-adv-x="569" 
d="M283 -7c-183 0 -224 81 -224 254v279c0 177 38 254 224 254s224 -77 224 -255v-277c0 -174 -41 -255 -224 -255zM283 734c-169 0 -174 -77 -174 -211v-273c0 -124 5 -211 174 -211s174 84 174 211v273c0 131 -5 211 -174 211zM295 832h-42v5l49 118h56v-3z" />
    <glyph glyph-name="Ograve" unicode="&#xd2;" horiz-adv-x="569" 
d="M283 -7c-183 0 -224 81 -224 254v279c0 177 38 254 224 254s224 -77 224 -255v-277c0 -174 -41 -255 -224 -255zM283 734c-169 0 -174 -77 -174 -211v-273c0 -124 5 -211 174 -211s174 84 174 211v273c0 131 -5 211 -174 211zM274 836l-63 120v3h56l49 -118v-5h-42z" />
    <glyph glyph-name="Oslash" unicode="&#xd8;" horiz-adv-x="569" 
d="M283 -7c-54 0 -95 7 -127 21l-28 -72h-48l38 96c-46 41 -59 110 -59 209v279c0 177 38 254 224 254c52 0 92 -6 123 -19l30 75h48l-39 -97c49 -40 62 -110 62 -214v-277c0 -174 -41 -255 -224 -255zM457 523c0 72 -2 129 -32 166l-251 -630c25 -13 60 -20 109 -20
c169 0 174 84 174 211v273zM283 734c-169 0 -174 -77 -174 -211v-273c0 -68 1 -124 30 -161l249 627c-25 12 -59 18 -105 18z" />
    <glyph glyph-name="Yacute" unicode="&#xdd;" horiz-adv-x="394" 
d="M339 774h58l-174 -445v-330h-54v330l-171 445h58l71 -189l69 -199l70 199zM209 806h-42v5l49 118h56v-3z" />
    <glyph glyph-name="Udieresis" unicode="&#xdc;" horiz-adv-x="542" 
d="M425 774h51v-524c0 -171 -32 -252 -208 -252s-208 81 -208 252v524h51v-524c0 -131 11 -207 157 -207s157 76 157 207v524zM143 860c0 47 73 48 73 0c0 -46 -73 -47 -73 0zM325 860c0 47 73 48 73 0c0 -46 -73 -47 -73 0z" />
    <glyph glyph-name="Ucircumflex" unicode="&#xdb;" horiz-adv-x="542" 
d="M425 774h51v-524c0 -171 -32 -252 -208 -252s-208 81 -208 252v524h51v-524c0 -131 11 -207 157 -207s157 76 157 207v524zM132 827l125 114h31l125 -114v-4h-53l-88 79l-87 -79h-53v4z" />
    <glyph glyph-name="Uacute" unicode="&#xda;" horiz-adv-x="542" 
d="M425 774h51v-524c0 -171 -32 -252 -208 -252s-208 81 -208 252v524h51v-524c0 -131 11 -207 157 -207s157 76 157 207v524zM282 824h-42v5l49 118h56v-3z" />
    <glyph glyph-name="Ugrave" unicode="&#xd9;" horiz-adv-x="542" 
d="M425 774h51v-524c0 -171 -32 -252 -208 -252s-208 81 -208 252v524h51v-524c0 -131 11 -207 157 -207s157 76 157 207v524zM265 829l-63 120v3h56l49 -118v-5h-42z" />
    <glyph glyph-name="aring" unicode="&#xe5;" horiz-adv-x="484" 
d="M421 0h-42l-1 78c-40 -65 -94 -83 -172 -83c-96 0 -163 44 -163 155c0 145 125 175 330 159v84c1 104 -35 148 -127 148c-83 0 -127 -26 -127 -137h-48c0 123 49 182 175 182c118 0 175 -56 175 -192v-394zM373 186v75c-191 19 -280 -10 -280 -112
c0 -75 43 -107 131 -107c111 0 149 84 149 144zM162 715c0 57 46 87 94 87c47 0 96 -29 96 -86s-45 -88 -97 -88s-94 31 -93 87zM256 771c-81 0 -81 -112 0 -112c84 0 82 112 0 112z" />
    <glyph glyph-name="adieresis" unicode="&#xe4;" horiz-adv-x="484" 
d="M421 0h-42l-1 78c-40 -65 -94 -83 -172 -83c-96 0 -163 44 -163 155c0 145 125 175 330 159v84c1 104 -35 148 -127 148c-83 0 -127 -26 -127 -137h-48c0 123 49 182 175 182c118 0 175 -56 175 -192v-394zM373 186v75c-191 19 -280 -10 -280 -112
c0 -75 43 -107 131 -107c111 0 149 84 149 144zM123 711c0 47 73 48 73 0c0 -46 -73 -47 -73 0zM305 711c0 47 73 48 73 0c0 -46 -73 -47 -73 0z" />
    <glyph glyph-name="atilde" unicode="&#xe3;" horiz-adv-x="484" 
d="M421 0h-42l-1 78c-40 -65 -94 -83 -172 -83c-96 0 -163 44 -163 155c0 145 125 175 330 159v84c1 104 -35 148 -127 148c-83 0 -127 -26 -127 -137h-48c0 123 49 182 175 182c118 0 175 -56 175 -192v-394zM373 186v75c-191 19 -280 -10 -280 -112
c0 -75 43 -107 131 -107c111 0 149 84 149 144zM153 690l-37 15c18 45 59 79 118 54l45 -20c24 -8 50 -17 63 20l38 -9c-13 -65 -65 -73 -111 -54l-44 20c-32 14 -56 6 -72 -26z" />
    <glyph glyph-name="acircumflex" unicode="&#xe2;" horiz-adv-x="484" 
d="M421 0h-42l-1 78c-40 -65 -94 -83 -172 -83c-96 0 -163 44 -163 155c0 145 125 175 330 159v84c1 104 -35 148 -127 148c-83 0 -127 -26 -127 -137h-48c0 123 49 182 175 182c118 0 175 -56 175 -192v-394zM373 186v75c-191 19 -280 -10 -280 -112
c0 -75 43 -107 131 -107c111 0 149 84 149 144zM119 659l117 113h28l117 -113v-4h-49l-82 79l-82 -79h-49v4z" />
    <glyph glyph-name="aacute" unicode="&#xe1;" horiz-adv-x="484" 
d="M421 0h-42l-1 78c-40 -65 -94 -83 -172 -83c-96 0 -163 44 -163 155c0 145 125 175 330 159v84c1 104 -35 148 -127 148c-83 0 -127 -26 -127 -137h-48c0 123 49 182 175 182c118 0 175 -56 175 -192v-394zM373 186v75c-191 19 -280 -10 -280 -112
c0 -75 43 -107 131 -107c111 0 149 84 149 144zM264 650h-42v5l49 118h56v-3z" />
    <glyph glyph-name="agrave" unicode="&#xe0;" horiz-adv-x="484" 
d="M421 0h-42l-1 78c-40 -65 -94 -83 -172 -83c-96 0 -163 44 -163 155c0 145 125 175 330 159v84c1 104 -35 148 -127 148c-83 0 -127 -26 -127 -137h-48c0 123 49 182 175 182c118 0 175 -56 175 -192v-394zM373 186v75c-191 19 -280 -10 -280 -112
c0 -75 43 -107 131 -107c111 0 149 84 149 144zM237 650l-63 120v3h56l49 -118v-5h-42z" />
    <glyph glyph-name="ae" unicode="&#xe6;" horiz-adv-x="760" 
d="M652 159h45c0 -106 -44 -162 -163 -162c-80 0 -131 24 -156 85c-38 -66 -95 -87 -166 -87c-96 0 -162 44 -162 155c0 145 105 175 310 159v84c1 104 -19 151 -111 151c-83 0 -123 -29 -123 -140h-48c0 123 45 185 171 185c72 0 115 -23 136 -86c20 63 74 89 149 89
c135 0 170 -79 170 -221v-87h-296v-83c0 -115 26 -159 126 -159c107 0 118 48 118 117zM230 42c71 0 113 43 133 100c-2 18 -3 38 -3 60v59c-191 19 -260 -10 -260 -112c0 -75 42 -107 130 -107zM408 394v-64h252v40c0 103 -10 180 -126 180c-97 0 -122 -44 -127 -141
c0 -5 1 -10 1 -15z" />
    <glyph glyph-name="ccedilla" unicode="&#xe7;" horiz-adv-x="462" 
d="M370 174h47c0 -117 -55 -175 -165 -180l-8 -41c67 -1 88 -57 81 -96c-18 -94 -135 -103 -179 -33l20 29c26 -41 105 -58 124 6c6 26 -11 73 -86 57l16 78c-116 5 -170 66 -170 220v155c0 162 63 219 189 219c128 0 171 -57 176 -168h-47c-4 72 -28 121 -129 121
c-106 0 -139 -49 -139 -172v-152c0 -120 24 -175 135 -175s133 49 135 132z" />
    <glyph glyph-name="edieresis" unicode="&#xeb;" 
d="M366 159h45c0 -106 -54 -162 -173 -162c-126 0 -185 58 -185 217v157c0 160 59 221 185 221c135 0 180 -67 180 -221v-87h-317v-66c0 -119 28 -176 137 -176c107 0 128 48 128 117zM101 330h273v40c0 112 -20 180 -136 180c-108 0 -137 -54 -137 -177v-43zM117 706
c0 47 73 48 73 0c0 -46 -73 -47 -73 0zM299 706c0 47 73 48 73 0c0 -46 -73 -47 -73 0z" />
    <glyph glyph-name="ecircumflex" unicode="&#xea;" 
d="M366 159h45c0 -106 -54 -162 -173 -162c-126 0 -185 58 -185 217v157c0 160 59 221 185 221c135 0 180 -67 180 -221v-87h-317v-66c0 -119 28 -176 137 -176c107 0 128 48 128 117zM101 330h273v40c0 112 -20 180 -136 180c-108 0 -137 -54 -137 -177v-43zM106 659
l120 123h30l120 -123v-4h-51l-85 85l-83 -85h-51v4z" />
    <glyph glyph-name="eacute" unicode="&#xe9;" 
d="M366 159h45c0 -106 -54 -162 -173 -162c-126 0 -185 58 -185 217v157c0 160 59 221 185 221c135 0 180 -67 180 -221v-87h-317v-66c0 -119 28 -176 137 -176c107 0 128 48 128 117zM101 330h273v40c0 112 -20 180 -136 180c-108 0 -137 -54 -137 -177v-43zM257 650h-42v5
l49 118h56v-3z" />
    <glyph glyph-name="egrave" unicode="&#xe8;" 
d="M366 159h45c0 -106 -54 -162 -173 -162c-126 0 -185 58 -185 217v157c0 160 59 221 185 221c135 0 180 -67 180 -221v-87h-317v-66c0 -119 28 -176 137 -176c107 0 128 48 128 117zM101 330h273v40c0 112 -20 180 -136 180c-108 0 -137 -54 -137 -177v-43zM231 650
l-63 120v3h56l49 -118v-5h-42z" />
    <glyph glyph-name="idieresis" unicode="&#xef;" horiz-adv-x="204" 
d="M-1 735c0 47 73 48 73 0c0 -46 -73 -47 -73 0zM131 735c0 47 73 48 73 0c0 -46 -73 -47 -73 0zM126 590v-590h-49v590h49z" />
    <glyph glyph-name="icircumflex" unicode="&#xee;" horiz-adv-x="206" 
d="M3 646l91 128h23l91 -128v-4h-42l-61 82l-60 -82h-42v4zM130 590v-590h-49v590h49z" />
    <glyph glyph-name="iacute" unicode="&#xed;" horiz-adv-x="202" 
d="M126 590v-590h-49v590h49zM118 650h-42v5l49 118h56v-3z" />
    <glyph glyph-name="igrave" unicode="&#xec;" horiz-adv-x="195" 
d="M123 590v-590h-49v590h49zM83 653l-63 120v3h56l49 -118v-5h-42z" />
    <glyph glyph-name="ntilde" unicode="&#xf1;" horiz-adv-x="522" 
d="M79 583h44l4 -64c27 43 75 73 147 73c137 0 179 -62 179 -213v-379h-50v379c0 130 -29 169 -134 169s-140 -73 -140 -140v-408h-50v583zM175 699l-37 15c18 45 59 79 118 54l45 -20c24 -8 50 -17 63 20l38 -9c-13 -65 -65 -73 -111 -54l-44 20c-32 14 -56 6 -72 -26z" />
    <glyph glyph-name="odieresis" unicode="&#xf6;" horiz-adv-x="470" 
d="M116 720c0 47 73 48 73 0c0 -46 -73 -47 -73 0zM289 720c0 47 73 48 73 0c0 -46 -73 -47 -73 0zM235 39c108 0 135 52 135 175v155c0 126 -20 174 -135 174c-108 0 -135 -49 -135 -172v-155c0 -126 20 -177 135 -177zM235 -7c-126 0 -185 49 -185 219v160
c0 165 59 218 185 218s185 -49 185 -221v-157c0 -162 -59 -219 -185 -219z" />
    <glyph glyph-name="otilde" unicode="&#xf5;" horiz-adv-x="470" 
d="M235 39c108 0 135 52 135 175v155c0 126 -20 174 -135 174c-108 0 -135 -49 -135 -172v-155c0 -126 20 -177 135 -177zM235 -7c-126 0 -185 49 -185 219v160c0 165 59 218 185 218s185 -49 185 -221v-157c0 -162 -59 -219 -185 -219zM149 692l-35 15c17 44 56 77 112 52
l43 -19c23 -8 47 -17 60 19l36 -8c-13 -64 -62 -71 -106 -53l-42 20c-30 13 -53 5 -68 -26z" />
    <glyph glyph-name="ocircumflex" unicode="&#xf4;" horiz-adv-x="470" 
d="M235 39c108 0 135 52 135 175v155c0 126 -20 174 -135 174c-108 0 -135 -49 -135 -172v-155c0 -126 20 -177 135 -177zM235 -7c-126 0 -185 49 -185 219v160c0 165 59 218 185 218s185 -49 185 -221v-157c0 -162 -59 -219 -185 -219zM110 656l116 126h29l116 -126v-4h-49
l-82 87l-81 -87h-49v4z" />
    <glyph glyph-name="oacute" unicode="&#xf3;" horiz-adv-x="470" 
d="M235 39c108 0 135 52 135 175v155c0 126 -20 174 -135 174c-108 0 -135 -49 -135 -172v-155c0 -126 20 -177 135 -177zM235 -7c-126 0 -185 49 -185 219v160c0 165 59 218 185 218s185 -49 185 -221v-157c0 -162 -59 -219 -185 -219zM255 650h-42v5l49 118h56v-3z" />
    <glyph glyph-name="ograve" unicode="&#xf2;" horiz-adv-x="470" 
d="M235 39c108 0 135 52 135 175v155c0 126 -20 174 -135 174c-108 0 -135 -49 -135 -172v-155c0 -126 20 -177 135 -177zM235 -7c-126 0 -185 49 -185 219v160c0 165 59 218 185 218s185 -49 185 -221v-157c0 -162 -59 -219 -185 -219zM232 650l-63 120v3h56l49 -118v-5
h-42z" />
    <glyph glyph-name="oslash" unicode="&#xf8;" horiz-adv-x="470" 
d="M355 646h43l-36 -90c39 -32 58 -90 58 -187v-157c0 -162 -59 -219 -185 -219c-36 0 -66 4 -91 13l-29 -73h-43l37 93c-40 31 -59 89 -59 186v160c0 165 59 218 185 218c36 0 67 -4 92 -14zM100 216c0 -67 6 -113 28 -141l181 456c-19 8 -43 12 -74 12
c-108 0 -135 -49 -135 -172v-155zM235 39c108 0 135 52 135 175v155c0 65 -6 110 -27 138l-182 -457c19 -8 43 -11 74 -11z" />
    <glyph glyph-name="ydieresis" unicode="&#xff;" horiz-adv-x="412" 
d="M19 -213l17 44c71 -26 101 -5 123 63l27 103l-171 584h55l64 -236l79 -270h1l67 270l64 236h55l-192 -693c-29 -103 -86 -134 -189 -101zM82 711c0 47 73 48 73 0c0 -46 -73 -47 -73 0zM264 711c0 47 73 48 73 0c0 -46 -73 -47 -73 0z" />
    <glyph glyph-name="yacute" unicode="&#xfd;" horiz-adv-x="412" 
d="M19 -213l17 44c71 -26 101 -5 123 63l27 103l-171 584h55l64 -236l79 -270h1l67 270l64 236h55l-192 -693c-29 -103 -86 -134 -189 -101zM220 650h-42v5l49 118h56v-3z" />
    <glyph glyph-name="udieresis" unicode="&#xfc;" horiz-adv-x="510" 
d="M440 0h-44l-4 64c-27 -43 -75 -73 -147 -73c-137 0 -179 62 -179 213v378h50v-378c0 -130 29 -169 134 -169s140 73 140 140v407h50v-582zM127 736c0 47 73 48 73 0c0 -46 -73 -47 -73 0zM309 736c0 47 73 48 73 0c0 -46 -73 -47 -73 0z" />
    <glyph glyph-name="ucircumflex" unicode="&#xfb;" horiz-adv-x="510" 
d="M440 0h-44l-4 64c-27 -43 -75 -73 -147 -73c-137 0 -179 62 -179 213v378h50v-378c0 -130 29 -169 134 -169s140 73 140 140v407h50v-582zM114 668l125 114h31l125 -114v-4h-53l-88 79l-87 -79h-53v4z" />
    <glyph glyph-name="uacute" unicode="&#xfa;" horiz-adv-x="510" 
d="M440 0h-44l-4 64c-27 -43 -75 -73 -147 -73c-137 0 -179 62 -179 213v378h50v-378c0 -130 29 -169 134 -169s140 73 140 140v407h50v-582zM266 650h-42v5l49 118h56v-3z" />
    <glyph glyph-name="ugrave" unicode="&#xf9;" horiz-adv-x="510" 
d="M440 0h-44l-4 64c-27 -43 -75 -73 -147 -73c-137 0 -179 62 -179 213v378h50v-378c0 -130 29 -169 134 -169s140 73 140 140v407h50v-582zM248 650l-63 120v3h56l49 -118v-5h-42z" />
    <glyph glyph-name="colon" unicode=":" horiz-adv-x="160" 
d="M50 43c0 47 74 48 74 0c0 -47 -74 -48 -74 0zM50 379c0 47 74 48 74 0c0 -47 -74 -48 -74 0z" />
    <glyph glyph-name="Amacron" unicode="&#x100;" horiz-adv-x="469" 
d="M110 190l-49 -191h-52l198 770h55l198 -770h-53l-50 191h-247zM236 696h-1l-113 -459h224zM121 871h229v-45h-229v45z" />
    <glyph glyph-name="amacron" unicode="&#x101;" horiz-adv-x="484" 
d="M421 0h-42l-1 78c-40 -65 -94 -83 -172 -83c-96 0 -163 44 -163 155c0 145 125 175 330 159v84c1 104 -35 148 -127 148c-83 0 -127 -26 -127 -137h-48c0 123 49 182 175 182c118 0 175 -56 175 -192v-394zM373 186v75c-191 19 -280 -10 -280 -112
c0 -75 43 -107 131 -107c111 0 149 84 149 144zM136 750h229v-45h-229v45z" />
    <glyph glyph-name="Abreve" unicode="&#x102;" horiz-adv-x="469" 
d="M110 190l-49 -191h-52l198 770h55l198 -770h-53l-50 191h-247zM236 696h-1l-113 -459h224zM121 925h38c3 -45 28 -68 75 -68c46 0 72 23 75 68h38c-3 -78 -48 -105 -113 -106c-65 1 -109 29 -113 106z" />
    <glyph glyph-name="abreve" unicode="&#x103;" horiz-adv-x="484" 
d="M421 0h-42l-1 78c-40 -65 -94 -83 -172 -83c-96 0 -163 44 -163 155c0 145 125 175 330 159v84c1 104 -35 148 -127 148c-83 0 -127 -26 -127 -137h-48c0 123 49 182 175 182c118 0 175 -56 175 -192v-394zM373 186v75c-191 19 -280 -10 -280 -112
c0 -75 43 -107 131 -107c111 0 149 84 149 144zM136 766h38c3 -45 28 -68 75 -68c46 0 72 23 75 68h38c-3 -78 -48 -105 -113 -106c-65 1 -109 29 -113 106z" />
    <glyph glyph-name="Aogonek" unicode="&#x104;" horiz-adv-x="469" 
d="M110 190l-49 -190h-52l198 772h55l198 -772c-68 -47 -90 -76 -90 -103c0 -28 21 -35 51 -35c12 0 31 1 39 2v-46c-68 -4 -139 -3 -139 72c0 47 47 92 84 115l-48 185h-247zM236 699h-1l-113 -462h224z" />
    <glyph glyph-name="aogonek" unicode="&#x105;" horiz-adv-x="484" 
d="M421 0c-68 -47 -90 -76 -90 -103c0 -28 21 -35 51 -35c12 0 31 1 39 2v-46c-68 -4 -139 -3 -139 72c0 52 59 98 97 119l-1 69c-40 -65 -94 -83 -172 -83c-96 0 -163 44 -163 155c0 145 125 175 330 159v84c1 104 -35 148 -127 148c-83 0 -127 -26 -127 -137h-48
c0 123 49 182 175 182c118 0 175 -56 175 -192v-394zM373 186v75c-191 19 -280 -10 -280 -112c0 -75 43 -107 131 -107c111 0 149 84 149 144z" />
    <glyph glyph-name="ccaron" unicode="&#x10d;" horiz-adv-x="462" 
d="M370 174h47c0 -123 -60 -181 -182 -181c-126 0 -185 61 -185 221v155c0 162 63 219 189 219c128 0 171 -57 176 -168h-47c-4 72 -28 121 -129 121c-106 0 -139 -49 -139 -172v-152c0 -120 24 -175 135 -175s133 49 135 132zM379 767l-119 -109h-29l-118 109v4h50l83 -75
l82 75h51v-4z" />
    <glyph glyph-name="cdotaccent" unicode="&#x10b;" horiz-adv-x="462" 
d="M370 174h47c0 -123 -60 -181 -182 -181c-126 0 -185 61 -185 221v155c0 162 63 219 189 219c128 0 171 -57 176 -168h-47c-4 72 -28 121 -129 121c-106 0 -139 -49 -139 -172v-152c0 -120 24 -175 135 -175s133 49 135 132zM202 720c0 50 79 52 79 0c0 -49 -79 -52 -79 0
z" />
    <glyph glyph-name="Ccaron" unicode="&#x10c;" horiz-adv-x="523" 
d="M479 575h-47c0 109 -30 163 -156 163c-157 0 -168 -88 -168 -213v-275c0 -133 11 -211 168 -211c130 0 152 52 157 163h46c-5 -139 -44 -209 -203 -209c-177 0 -217 81 -217 255v273c0 172 37 261 217 261c158 0 203 -67 203 -207zM414 934l-116 -105h-28l-116 105v4h49
l82 -73l80 73h49v-4z" />
    <glyph glyph-name="Cdotaccent" unicode="&#x10a;" horiz-adv-x="523" 
d="M479 575h-47c0 109 -30 163 -156 163c-157 0 -168 -88 -168 -213v-275c0 -133 11 -211 168 -211c130 0 152 52 157 163h46c-5 -139 -44 -209 -203 -209c-177 0 -217 81 -217 255v273c0 172 37 261 217 261c158 0 203 -67 203 -207zM239 892c0 50 79 52 79 0
c0 -49 -79 -52 -79 0z" />
    <glyph glyph-name="ccircumflex" unicode="&#x109;" horiz-adv-x="462" 
d="M370 174h47c0 -123 -60 -181 -182 -181c-126 0 -185 61 -185 221v155c0 162 63 219 189 219c128 0 171 -57 176 -168h-47c-4 72 -28 121 -129 121c-106 0 -139 -49 -139 -172v-152c0 -120 24 -175 135 -175s133 49 135 132zM112 665l114 117h28l113 -117v-4h-48l-80 81
l-79 -81h-48v4z" />
    <glyph glyph-name="Ccircumflex" unicode="&#x108;" horiz-adv-x="523" 
d="M479 575h-47c0 109 -30 163 -156 163c-157 0 -168 -88 -168 -213v-275c0 -133 11 -211 168 -211c130 0 152 52 157 163h46c-5 -139 -44 -209 -203 -209c-177 0 -217 81 -217 255v273c0 172 37 261 217 261c158 0 203 -67 203 -207zM121 859l125 114h31l125 -114v-4h-53
l-88 79l-87 -79h-53v4z" />
    <glyph glyph-name="cacute" unicode="&#x107;" horiz-adv-x="462" 
d="M370 174h47c0 -123 -60 -181 -182 -181c-126 0 -185 61 -185 221v155c0 162 63 219 189 219c128 0 171 -57 176 -168h-47c-4 72 -28 121 -129 121c-106 0 -139 -49 -139 -172v-152c0 -120 24 -175 135 -175s133 49 135 132zM253 650h-42v5l49 118h56v-3z" />
    <glyph glyph-name="Cacute" unicode="&#x106;" horiz-adv-x="523" 
d="M479 575h-47c0 109 -30 163 -156 163c-157 0 -168 -88 -168 -213v-275c0 -133 11 -211 168 -211c130 0 152 52 157 163h46c-5 -139 -44 -209 -203 -209c-177 0 -217 81 -217 255v273c0 172 37 261 217 261c158 0 203 -67 203 -207zM290 832h-42v5l49 118h56v-3z" />
    <glyph glyph-name="Dcaron" unicode="&#x10e;" horiz-adv-x="535" 
d="M71 0v774h189c188 0 222 -80 222 -262v-257c0 -176 -41 -255 -224 -255h-187zM258 729h-137v-680h137c169 0 174 73 174 206v259c0 134 -5 215 -174 215zM396 946l-125 -114h-31l-125 114v4h53l88 -79l87 79h53v-4z" />
    <glyph glyph-name="emacron" unicode="&#x113;" 
d="M366 159h45c0 -106 -54 -162 -173 -162c-126 0 -185 58 -185 217v157c0 160 59 221 185 221c135 0 180 -67 180 -221v-87h-317v-66c0 -119 28 -176 137 -176c107 0 128 48 128 117zM101 330h273v40c0 112 -20 180 -136 180c-108 0 -137 -54 -137 -177v-43zM139 738h203
v-40h-203v40z" />
    <glyph glyph-name="Emacron" unicode="&#x112;" horiz-adv-x="476" 
d="M70 774h349v-46h-299v-292h269v-47h-269v-340h319v-49h-369v774zM132 890h229v-45h-229v45z" />
    <glyph glyph-name="ebreve" unicode="&#x115;" 
d="M366 159h45c0 -106 -54 -162 -173 -162c-126 0 -185 58 -185 217v157c0 160 59 221 185 221c135 0 180 -67 180 -221v-87h-317v-66c0 -119 28 -176 137 -176c107 0 128 48 128 117zM101 330h273v40c0 112 -20 180 -136 180c-108 0 -137 -54 -137 -177v-43zM134 767h37
c2 -43 26 -65 71 -65c44 0 69 22 72 65h36c-3 -75 -46 -100 -108 -101c-62 1 -104 27 -108 101z" />
    <glyph glyph-name="Ebreve" unicode="&#x114;" horiz-adv-x="476" 
d="M70 774h349v-46h-299v-292h269v-47h-269v-340h319v-49h-369v774zM138 926h36c3 -42 26 -64 71 -64c43 0 68 22 71 64h36c-3 -73 -46 -99 -107 -100c-62 1 -103 28 -107 100z" />
    <glyph glyph-name="edotaccent" unicode="&#x117;" 
d="M366 159h45c0 -106 -54 -162 -173 -162c-126 0 -185 58 -185 217v157c0 160 59 221 185 221c135 0 180 -67 180 -221v-87h-317v-66c0 -119 28 -176 137 -176c107 0 128 48 128 117zM101 330h273v40c0 112 -20 180 -136 180c-108 0 -137 -54 -137 -177v-43zM195 721
c0 46 78 48 78 0c0 -45 -78 -47 -78 0z" />
    <glyph glyph-name="Edotaccent" unicode="&#x116;" horiz-adv-x="476" 
d="M70 774h349v-46h-299v-292h269v-47h-269v-340h319v-49h-369v774zM213 868c0 46 75 48 75 0c0 -45 -75 -47 -75 0z" />
    <glyph glyph-name="eogonek" unicode="&#x119;" 
d="M366 159h45c0 -53 -14 -93 -41 -120c-68 -69 -94 -115 -94 -142c0 -28 21 -35 51 -35c12 0 31 1 39 2v-46c-68 -4 -139 -3 -139 72c0 38 30 81 62 111c-16 -2 -33 -4 -51 -4c-126 0 -185 58 -185 217v157c0 160 59 221 185 221c135 0 180 -67 180 -221v-87h-317v-66
c0 -119 28 -176 137 -176c107 0 128 48 128 117zM101 330h273v40c0 112 -20 180 -136 180c-108 0 -137 -54 -137 -177v-43z" />
    <glyph glyph-name="Eogonek" unicode="&#x118;" horiz-adv-x="476" 
d="M70 772h349v-46h-299v-290h269v-47h-269v-340h319v-49c-68 -47 -90 -76 -90 -103c0 -28 21 -35 51 -35c12 0 31 1 39 2v-46c-68 -4 -139 -3 -139 72c0 43 40 85 75 110h-305v772z" />
    <glyph glyph-name="ecaron" unicode="&#x11b;" 
d="M366 159h45c0 -106 -54 -162 -173 -162c-126 0 -185 58 -185 217v157c0 160 59 221 185 221c135 0 180 -67 180 -221v-87h-317v-66c0 -119 28 -176 137 -176c107 0 128 48 128 117zM101 330h273v40c0 112 -20 180 -136 180c-108 0 -137 -54 -137 -177v-43zM370 768
l-119 -108h-29l-118 108v4h50l83 -75l82 75h51v-4z" />
    <glyph glyph-name="Ecaron" unicode="&#x11a;" horiz-adv-x="476" 
d="M70 774h349v-46h-299v-292h269v-47h-269v-340h319v-49h-369v774zM382 917l-115 -97h-29l-115 97v3h49l81 -67l80 67h49v-3z" />
    <glyph glyph-name="gdotaccent" unicode="&#x121;" horiz-adv-x="474" 
d="M66 -79h47c3 -62 27 -100 122 -100c111 0 140 51 140 171v75c-29 -54 -80 -70 -146 -70c-119 0 -179 53 -179 201v182c0 158 60 206 188 209c69 0 115 -22 141 -73v65h45v-589c0 -160 -63 -217 -189 -217c-110 0 -164 44 -169 146zM373 196v167c0 113 -30 179 -135 179
c-105 -2 -138 -40 -138 -163v-182c2 -120 43 -151 134 -151c100 0 139 53 139 150zM211 726c0 50 79 52 79 0c0 -49 -79 -52 -79 0z" />
    <glyph glyph-name="Gcircumflex" unicode="&#x11c;" horiz-adv-x="558" 
d="M501 565l-45 -1c-4 122 -39 171 -175 171c-169 0 -174 -81 -174 -212v-271c0 -118 5 -207 174 -207c149 0 178 65 178 190v121h-177v45h222v-166c0 -159 -40 -240 -223 -240s-224 81 -224 257v270c0 181 38 258 224 258c170 0 216 -69 220 -215zM150 831l125 114h31
l125 -114v-4h-53l-88 79l-87 -79h-53v4z" />
    <glyph glyph-name="gcircumflex" unicode="&#x11d;" horiz-adv-x="474" 
d="M66 -79h47c3 -62 27 -100 122 -100c111 0 140 51 140 171v75c-29 -54 -80 -70 -146 -70c-119 0 -179 53 -179 201v182c0 158 60 206 188 209c69 0 115 -22 141 -73v65h45v-589c0 -160 -63 -217 -189 -217c-110 0 -164 44 -169 146zM373 196v167c0 113 -30 179 -135 179
c-105 -2 -138 -40 -138 -163v-182c2 -120 43 -151 134 -151c100 0 139 53 139 150zM113 660l125 114h31l125 -114v-4h-53l-88 79l-87 -79h-53v4z" />
    <glyph glyph-name="Gbreve" unicode="&#x11e;" horiz-adv-x="558" 
d="M501 565l-45 -1c-4 122 -39 171 -175 171c-169 0 -174 -81 -174 -212v-271c0 -118 5 -207 174 -207c149 0 178 65 178 190v121h-177v45h222v-166c0 -159 -40 -240 -223 -240s-224 81 -224 257v270c0 181 38 258 224 258c170 0 216 -69 220 -215zM172 940h38
c3 -45 28 -68 75 -68c46 0 72 23 75 68h38c-3 -78 -48 -105 -113 -106c-65 1 -109 29 -113 106z" />
    <glyph glyph-name="gbreve" unicode="&#x11f;" horiz-adv-x="474" 
d="M66 -79h47c3 -62 27 -100 122 -100c111 0 140 51 140 171v75c-29 -54 -80 -70 -146 -70c-119 0 -179 53 -179 201v182c0 158 60 206 188 209c69 0 115 -22 141 -73v65h45v-589c0 -160 -63 -217 -189 -217c-110 0 -164 44 -169 146zM373 196v167c0 113 -30 179 -135 179
c-105 -2 -138 -40 -138 -163v-182c2 -120 43 -151 134 -151c100 0 139 53 139 150zM133 761h38c3 -45 28 -68 75 -68c46 0 72 23 75 68h38c-3 -78 -48 -105 -113 -106c-65 1 -109 29 -113 106z" />
    <glyph glyph-name="uni0123" unicode="&#x123;" horiz-adv-x="474" 
d="M260 645h-47c2 85 13 110 79 149l19 -32c-41 -22 -53 -49 -51 -117zM66 -79h47c3 -62 27 -100 122 -100c111 0 140 51 140 171v75c-29 -54 -80 -70 -146 -70c-119 0 -179 53 -179 201v182c0 158 60 206 188 209c69 0 115 -22 141 -73v65h45v-589
c0 -160 -63 -217 -189 -217c-110 0 -164 44 -169 146zM373 196v167c0 113 -30 179 -135 179c-105 -2 -138 -40 -138 -163v-182c2 -120 43 -151 134 -151c100 0 139 53 139 150z" />
    <glyph glyph-name="uni0122" unicode="&#x122;" horiz-adv-x="556" 
d="M255 -66h47c-2 -85 -13 -110 -79 -149l-19 32c41 22 53 49 51 117zM497 565l-45 -1c-4 122 -39 171 -175 171c-169 0 -174 -81 -174 -212v-271c0 -118 5 -207 174 -207c149 0 178 65 178 190v121h-177v45h222v-166c0 -159 -40 -240 -223 -240s-224 81 -224 257v270
c0 181 38 258 224 258c170 0 216 -69 220 -215z" />
    <glyph glyph-name="hcircumflex" unicode="&#x125;" horiz-adv-x="472" 
d="M417 0h-50v371c0 123 -23 171 -131 171c-90 0 -132 -41 -132 -147v-395h-49v771h50v-240c25 44 86 61 131 61c130 0 181 -59 181 -222v-370zM77 823l121 110h29l121 -110v-4h-51l-85 77l-84 -77h-51v4z" />
    <glyph glyph-name="Hbar" unicode="&#x126;" horiz-adv-x="511" 
d="M442 769v-152h62v-40h-62v-577h-50v385h-270v-386h-52v578h-61v40h61v152h52v-152h270v152h50zM122 435h270v142h-270v-142z" />
    <glyph glyph-name="hbar" unicode="&#x127;" horiz-adv-x="472" 
d="M3 694h52v77h50v-77h93v-38h-93v-125c25 44 86 61 131 61c130 0 181 -59 181 -222v-370h-50v371c0 123 -23 171 -131 171c-90 0 -132 -41 -132 -147v-395h-49v656h-52v38z" />
    <glyph glyph-name="Itilde" unicode="&#x128;" horiz-adv-x="193" 
d="M123 773v-774h-53v774h53zM12 849l-32 15c16 45 51 79 102 54l39 -20c20 -8 43 -17 54 20l33 -9c-11 -65 -56 -72 -96 -54l-38 20c-28 14 -48 6 -62 -26z" />
    <glyph glyph-name="dotlessi" unicode="&#x131;" horiz-adv-x="199" 
d="M126 590v-590h-49v590h49z" />
    <glyph glyph-name="Idotaccent" unicode="&#x130;" horiz-adv-x="193" 
d="M123 773v-774h-53v774h53zM59 886c0 50 79 52 79 0c0 -49 -79 -52 -79 0z" />
    <glyph glyph-name="iogonek" unicode="&#x12f;" horiz-adv-x="199" 
d="M126 590v-590c-65 -5 -80 -37 -67 -73c11 -35 62 -30 100 -12l6 -34c-53 -24 -125 -27 -144 32c-15 40 1 91 56 105v572h49zM63 738c0 47 74 48 74 0c0 -47 -74 -48 -74 0z" />
    <glyph glyph-name="Iogonek" unicode="&#x12e;" horiz-adv-x="193" 
d="M123 773v-774h-3c-56 -9 -71 -40 -58 -76c12 -38 71 -33 109 -11l8 -34c-54 -29 -140 -31 -160 32c-14 38 2 81 51 103v760h53z" />
    <glyph glyph-name="ibreve" unicode="&#x12d;" horiz-adv-x="199" 
d="M126 590v-590h-49v590h49zM-6 765h36c2 -47 26 -70 69 -70s67 23 70 70h35c-3 -81 -44 -109 -105 -110c-60 1 -101 30 -105 110z" />
    <glyph glyph-name="Ibreve" unicode="&#x12c;" horiz-adv-x="193" 
d="M123 773v-774h-53v774h53zM-10 929h35c3 -42 26 -63 71 -63c43 0 67 21 70 63h36c-3 -73 -45 -98 -106 -99c-61 1 -103 27 -106 99z" />
    <glyph glyph-name="imacron" unicode="&#x12b;" horiz-adv-x="196" 
d="M126 590v-590h-49v590h49zM16 751h175v-46h-175v46z" />
    <glyph glyph-name="Imacron" unicode="&#x12a;" horiz-adv-x="193" 
d="M123 773v-774h-53v774h53zM-1 882h195v-42h-195v42z" />
    <glyph glyph-name="itilde" unicode="&#x129;" horiz-adv-x="199" 
d="M126 590v-590h-49v590h49zM25 703l-30 14c15 43 48 76 96 52l36 -19c19 -8 40 -16 51 19l30 -9c-10 -62 -52 -69 -89 -51l-36 19c-25 13 -45 6 -58 -25z" />
    <glyph glyph-name="jcircumflex" unicode="&#x135;" horiz-adv-x="206" 
d="M1 -182v46c69 -1 86 18 86 138v588h50v-585c0 -132 -24 -192 -136 -187zM-7 656l107 120h26l107 -120v-4h-45l-76 83l-74 -83h-45v4z" />
    <glyph glyph-name="Jcircumflex" unicode="&#x134;" horiz-adv-x="438" 
d="M190 44c115 0 136 55 138 134v597h50v-595c0 -130 -62 -186 -188 -186s-182 61 -182 191h48c0 -81 19 -141 134 -141zM220 814l114 117h28l113 -117v-4h-48l-80 81l-79 -81h-48v4z" />
    <glyph glyph-name="uni0137" unicode="&#x137;" horiz-adv-x="438" 
d="M433 0h-62l-209 291h-55v-291h-52v772h51v-429h55l187 249h60l-205 -275zM184 -187l-19 27c45 21 55 47 50 121h50c0 -89 -10 -112 -81 -148z" />
    <glyph glyph-name="lacute" unicode="&#x13a;" horiz-adv-x="244" 
d="M214 44v-45c-122 -8 -144 35 -144 165v607h50v-610c0 -103 12 -117 94 -117zM118 817h-42v5l49 118h56v-3z" />
    <glyph glyph-name="Lacute" unicode="&#x139;" horiz-adv-x="443" 
d="M419 46v-46h-349v769h50v-723h299zM124 820h-42v5l49 118h56v-3z" />
    <glyph glyph-name="Ldot" unicode="&#x13f;" horiz-adv-x="443" 
d="M419 46v-46h-349v769h50v-723h299zM274 373c0 47 74 48 74 0c0 -47 -74 -48 -74 0z" />
    <glyph glyph-name="ldot" unicode="&#x140;" horiz-adv-x="305" 
d="M214 44v-45c-122 -8 -144 35 -144 165v607h50v-610c0 -103 12 -117 94 -117zM219 340c0 47 74 48 74 0c0 -47 -74 -48 -74 0z" />
    <glyph glyph-name="Lslash" unicode="&#x141;" horiz-adv-x="429" 
d="M2 301v41l54 20v407h50v-389l168 62v-41l-168 -62v-293h299v-46h-349v321z" />
    <glyph glyph-name="lslash" unicode="&#x142;" horiz-adv-x="244" 
d="M2 345v41l68 25v360h50v-342l110 41v-41l-110 -41v-227c0 -103 12 -117 94 -117v-45c-122 -8 -144 35 -144 165v206z" />
    <glyph glyph-name="nacute" unicode="&#x144;" horiz-adv-x="522" 
d="M79 583h44l4 -64c27 43 75 73 147 73c137 0 179 -62 179 -213v-379h-50v379c0 130 -29 169 -134 169s-140 -73 -140 -140v-408h-50v583zM276 657h-40v5l47 111h52v-3z" />
    <glyph glyph-name="Nacute" unicode="&#x143;" horiz-adv-x="511" 
d="M442 774v-773h-58l-267 657h-2l7 -242v-415h-53v773h53l274 -664h2l-9 275v389h53zM270 810h-42v5l49 118h56v-3z" />
    <glyph glyph-name="Ncaron" unicode="&#x147;" horiz-adv-x="511" 
d="M442 774v-773h-58l-267 657h-2l7 -242v-415h-53v773h53l274 -664h2l-9 275v389h53zM386 914l-116 -106h-29l-117 106v4h50l82 -74l81 74h49v-4z" />
    <glyph glyph-name="ncaron" unicode="&#x148;" horiz-adv-x="522" 
d="M79 583h44l4 -64c27 43 75 73 147 73c137 0 179 -62 179 -213v-379h-50v379c0 130 -29 169 -134 169s-140 -73 -140 -140v-408h-50v583zM401 761l-119 -108h-29l-118 108v4h50l83 -75l82 75h51v-4z" />
    <glyph glyph-name="Eng" unicode="&#x14a;" horiz-adv-x="511" 
d="M442 774v-804c0 -110 -48 -179 -135 -179l-8 46c85 0 91 64 93 131v33l-275 657h-2l7 -242v-415h-53v773h53l274 -664h2l-9 275v389h53z" />
    <glyph glyph-name="eng" unicode="&#x14b;" horiz-adv-x="522" 
d="M79 583h44l4 -64c27 43 75 73 147 73c137 0 179 -62 179 -213v-374c0 -132 -24 -192 -136 -187v46c69 -1 86 18 86 138v377c0 130 -29 169 -134 169s-140 -73 -140 -140v-408h-50v583z" />
    <glyph glyph-name="ohungarumlaut" unicode="&#x151;" horiz-adv-x="470" 
d="M235 39c108 0 135 52 135 175v155c0 126 -20 174 -135 174c-108 0 -135 -49 -135 -172v-155c0 -126 20 -177 135 -177zM235 -7c-126 0 -185 49 -185 219v160c0 165 59 218 185 218s185 -49 185 -221v-157c0 -162 -59 -219 -185 -219zM205 675h-45l52 88h53v-2zM308 674
h-44l56 89h52v-2z" />
    <glyph glyph-name="Ohungarumlaut" unicode="&#x150;" horiz-adv-x="569" 
d="M283 -7c-183 0 -224 81 -224 254v279c0 177 38 254 224 254s224 -77 224 -255v-277c0 -174 -41 -255 -224 -255zM283 734c-169 0 -174 -77 -174 -211v-273c0 -124 5 -211 174 -211s174 84 174 211v273c0 131 -5 211 -174 211zM255 841h-45l53 89h53v-2zM360 840h-45
l57 90h53v-2z" />
    <glyph glyph-name="obreve" unicode="&#x14f;" horiz-adv-x="470" 
d="M235 39c108 0 135 52 135 175v155c0 126 -20 174 -135 174c-108 0 -135 -49 -135 -172v-155c0 -126 20 -177 135 -177zM235 -7c-126 0 -185 49 -185 219v160c0 165 59 218 185 218s185 -49 185 -221v-157c0 -162 -59 -219 -185 -219zM132 766h36c3 -42 27 -64 72 -64
c43 0 68 22 71 64h36c-3 -73 -46 -99 -107 -100c-62 1 -104 28 -108 100z" />
    <glyph glyph-name="Obreve" unicode="&#x14e;" horiz-adv-x="569" 
d="M283 -7c-183 0 -224 81 -224 254v279c0 177 38 254 224 254s224 -77 224 -255v-277c0 -174 -41 -255 -224 -255zM283 734c-169 0 -174 -77 -174 -211v-273c0 -124 5 -211 174 -211s174 84 174 211v273c0 131 -5 211 -174 211zM172 936h38c3 -45 28 -68 75 -68
c46 0 72 23 75 68h38c-3 -78 -48 -105 -113 -106c-65 1 -109 29 -113 106z" />
    <glyph glyph-name="omacron" unicode="&#x14d;" horiz-adv-x="470" 
d="M235 39c108 0 135 52 135 175v155c0 126 -20 174 -135 174c-108 0 -135 -49 -135 -172v-155c0 -126 20 -177 135 -177zM235 -7c-126 0 -185 49 -185 219v160c0 165 59 218 185 218s185 -49 185 -221v-157c0 -162 -59 -219 -185 -219zM122 738h229v-45h-229v45z" />
    <glyph glyph-name="Omacron" unicode="&#x14c;" horiz-adv-x="569" 
d="M283 -7c-183 0 -224 81 -224 254v279c0 177 38 254 224 254s224 -77 224 -255v-277c0 -174 -41 -255 -224 -255zM283 734c-169 0 -174 -77 -174 -211v-273c0 -124 5 -211 174 -211s174 84 174 211v273c0 131 -5 211 -174 211zM183 885h208v-41h-208v41z" />
    <glyph glyph-name="racute" unicode="&#x155;" horiz-adv-x="293" 
d="M60 590h45l3 -70c24 48 84 82 156 69v-47c-89 14 -153 -43 -153 -126l-1 -416h-50v590zM171 663h-37v5l43 102h48v-2z" />
    <glyph glyph-name="Racute" unicode="&#x154;" horiz-adv-x="476" 
d="M441 487c0 -142 -48 -192 -149 -201l163 -286h-62l-158 285h-112v-285h-53v774h186c126 0 185 -48 185 -226v-61zM123 332h133c108 0 135 33 135 156v60c0 126 -20 175 -135 175h-133v-391zM239 827h-38v4l44 107h50v-3z" />
    <glyph glyph-name="rcaron" unicode="&#x159;" horiz-adv-x="293" 
d="M60 590h45l3 -70c24 48 84 82 156 69v-47c-89 14 -153 -43 -153 -126l-1 -416h-50v590zM278 765l-100 -106h-25l-100 106v4h42l71 -74l70 74h42v-4z" />
    <glyph glyph-name="Rcaron" unicode="&#x158;" horiz-adv-x="476" 
d="M441 487c0 -142 -48 -192 -149 -201l163 -286h-62l-158 285h-112v-285h-53v774h186c126 0 185 -48 185 -226v-61zM123 332h133c108 0 135 33 135 156v60c0 126 -20 175 -135 175h-133v-391zM369 937l-117 -107h-29l-118 107v4h50l83 -74l82 74h49v-4z" />
    <glyph glyph-name="scircumflex" unicode="&#x15d;" horiz-adv-x="444" 
d="M38 163h50c0 -68 35 -118 138 -118c90 0 135 44 135 119c0 106 -84 108 -166 119c-78 10 -155 29 -155 153c0 96 62 156 181 156c124 0 177 -59 177 -155h-49c-2 72 -38 108 -127 108c-90 0 -129 -42 -129 -108c0 -101 70 -102 145 -112c85 -12 175 -30 175 -160
c0 -102 -59 -168 -187 -168c-114 0 -188 45 -188 166zM96 659l116 122h29l116 -122v-4h-49l-82 84l-81 -84h-49v4z" />
    <glyph glyph-name="Scircumflex" unicode="&#x15c;" horiz-adv-x="519" 
d="M455 608h-48c-1 94 -61 129 -150 129c-104 0 -162 -33 -162 -159c0 -140 83 -138 201 -152c113 -15 178 -89 178 -202c0 -190 -91 -232 -225 -232c-136 1 -205 59 -205 183h48c0 -95 54 -135 158 -135c128 1 173 52 173 185c0 137 -96 154 -211 165
c-80 8 -166 43 -166 188s72 203 212 204c108 0 191 -37 197 -174zM124 846l125 114h31l125 -114v-4h-53l-88 79l-87 -79h-53v4z" />
    <glyph glyph-name="sacute" unicode="&#x15b;" horiz-adv-x="444" 
d="M38 163h50c0 -68 35 -118 138 -118c90 0 135 44 135 119c0 106 -84 108 -166 119c-78 10 -155 29 -155 153c0 96 62 156 181 156c124 0 177 -59 177 -155h-49c-2 72 -38 108 -127 108c-90 0 -129 -42 -129 -108c0 -101 70 -102 145 -112c85 -12 175 -30 175 -160
c0 -102 -59 -168 -187 -168c-114 0 -188 45 -188 166zM225 650h-42v5l49 118h56v-3z" />
    <glyph glyph-name="Sacute" unicode="&#x15a;" horiz-adv-x="519" 
d="M455 608h-48c-1 94 -61 129 -150 129c-104 0 -162 -33 -162 -159c0 -140 83 -138 201 -152c113 -15 178 -89 178 -202c0 -190 -91 -232 -225 -232c-136 1 -205 59 -205 183h48c0 -95 54 -135 158 -135c128 1 173 52 173 185c0 137 -96 154 -211 165
c-80 8 -166 43 -166 188s72 203 212 204c108 0 191 -37 197 -174zM271 838h-38v5l45 108h52v-3z" />
    <glyph glyph-name="scaron" unicode="&#x161;" horiz-adv-x="444" 
d="M38 163h50c0 -68 35 -118 138 -118c90 0 135 44 135 119c0 106 -84 108 -166 119c-78 10 -155 29 -155 153c0 96 62 156 181 156c124 0 177 -59 177 -155h-49c-2 72 -38 108 -127 108c-90 0 -129 -42 -129 -108c0 -101 70 -102 145 -112c85 -12 175 -30 175 -160
c0 -102 -59 -168 -187 -168c-114 0 -188 45 -188 166zM361 760l-118 -110h-30l-117 110v4h50l83 -76l82 76h50v-4z" />
    <glyph glyph-name="Scaron" unicode="&#x160;" horiz-adv-x="519" 
d="M455 608h-48c-1 94 -61 129 -150 129c-104 0 -162 -33 -162 -159c0 -140 83 -138 201 -152c113 -15 178 -89 178 -202c0 -190 -91 -232 -225 -232c-136 1 -205 59 -205 183h48c0 -95 54 -135 158 -135c128 1 173 52 173 185c0 137 -96 154 -211 165
c-80 8 -166 43 -166 188s72 203 212 204c108 0 191 -37 197 -174zM404 945l-125 -114h-31l-125 114v4h53l88 -79l87 79h53v-4z" />
    <glyph glyph-name="scedilla" unicode="&#x15f;" horiz-adv-x="444" 
d="M191 -73l16 71c-103 4 -169 50 -169 165h50c0 -68 35 -118 138 -118c90 0 135 44 135 119c0 106 -84 108 -166 119c-78 10 -155 29 -155 153c0 96 62 156 181 156c124 0 177 -59 177 -155h-49c-2 72 -38 108 -127 108c-90 0 -129 -42 -129 -108c0 -101 70 -102 145 -112
c85 -12 175 -30 175 -160c0 -98 -55 -163 -172 -167l-7 -37c71 0 94 -57 87 -96c-11 -54 -53 -77 -109 -74c-30 2 -67 13 -89 48l22 26c14 -25 46 -40 70 -40c46 0 62 16 69 41c7 30 -14 77 -93 61z" />
    <glyph glyph-name="Scedilla" unicode="&#x15e;" horiz-adv-x="519" 
d="M214 -80l16 73c-124 6 -186 63 -186 182h48c0 -95 54 -135 158 -135c128 1 173 52 173 185c0 137 -96 154 -211 165c-80 8 -166 43 -166 188s72 203 212 204c108 0 191 -37 197 -174h-48c-1 94 -61 129 -150 129c-104 0 -162 -33 -162 -159c0 -140 83 -138 201 -152
c113 -15 178 -89 178 -202c0 -182 -84 -228 -208 -231l-8 -38c72 -1 96 -58 88 -99c-10 -54 -54 -78 -111 -74c-29 1 -67 12 -89 48l22 26c14 -24 46 -40 70 -40c47 0 64 17 71 42c7 30 -15 79 -95 62z" />
    <glyph glyph-name="uni0163" unicode="&#x163;" horiz-adv-x="273" 
d="M56 -175l18 30c16 -18 41 -31 60 -31c46 0 62 12 68 37c8 29 -16 74 -93 58l21 90c-48 22 -66 72 -66 155v557l50 7v-138h121v-47h-121v-378c0 -109 33 -130 128 -123v-44c-32 -3 -59 -2 -81 2l-10 -47c70 -1 95 -55 88 -94c-11 -54 -53 -72 -107 -68
c-24 1 -55 11 -76 34z" />
    <glyph glyph-name="uni0162" unicode="&#x162;" horiz-adv-x="388" 
d="M153 -73l17 73h-1v720h-161v47h372v-47h-161v-720h-16l-8 -39c70 -1 93 -57 86 -96c-11 -54 -53 -77 -107 -73c-29 1 -66 12 -87 47l21 26c14 -24 45 -40 68 -40c46 0 62 17 68 42c8 29 -14 76 -91 60z" />
    <glyph glyph-name="Tbar" unicode="&#x166;" horiz-adv-x="388" 
d="M380 767v-47h-161v-310h92v-40h-92v-370h-50v370h-87v40h87v310h-161v47h372z" />
    <glyph glyph-name="Tcaron" unicode="&#x164;" horiz-adv-x="388" 
d="M380 767v-47h-161v-720h-50v720h-161v47h372zM330 928l-125 -114h-31l-125 114v4h53l88 -79l87 79h53v-4z" />
    <glyph glyph-name="Utilde" unicode="&#x168;" horiz-adv-x="542" 
d="M425 774h51v-524c0 -171 -32 -252 -208 -252s-208 81 -208 252v524h51v-524c0 -131 11 -207 157 -207s157 76 157 207v524zM190 836l-34 13c16 42 54 73 109 50l41 -18c22 -8 47 -16 59 18l35 -8c-12 -60 -60 -68 -103 -50l-41 19c-29 13 -51 5 -66 -24z" />
    <glyph glyph-name="utilde" unicode="&#x169;" horiz-adv-x="510" 
d="M440 0h-44l-4 64c-27 -43 -75 -73 -147 -73c-137 0 -179 62 -179 213v378h50v-378c0 -130 29 -169 134 -169s140 73 140 140v407h50v-582zM172 684l-34 13c17 41 53 71 106 49l41 -18c21 -7 45 -15 56 18l34 -8c-11 -59 -58 -66 -99 -49l-40 18c-28 13 -50 6 -64 -23z
" />
    <glyph glyph-name="Umacron" unicode="&#x16a;" horiz-adv-x="542" 
d="M425 774h51v-524c0 -171 -32 -252 -208 -252s-208 81 -208 252v524h51v-524c0 -131 11 -207 157 -207s157 76 157 207v524zM160 885h229v-45h-229v45z" />
    <glyph glyph-name="umacron" unicode="&#x16b;" horiz-adv-x="510" 
d="M440 0h-44l-4 64c-27 -43 -75 -73 -147 -73c-137 0 -179 62 -179 213v378h50v-378c0 -130 29 -169 134 -169s140 73 140 140v407h50v-582zM148 742h214v-42h-214v42z" />
    <glyph glyph-name="Ubreve" unicode="&#x16c;" horiz-adv-x="542" 
d="M425 774h51v-524c0 -171 -32 -252 -208 -252s-208 81 -208 252v524h51v-524c0 -131 11 -207 157 -207s157 76 157 207v524zM157 922h38c3 -45 28 -68 75 -68c46 0 72 23 75 68h38c-3 -78 -48 -105 -113 -106c-65 1 -109 29 -113 106z" />
    <glyph glyph-name="ubreve" unicode="&#x16d;" horiz-adv-x="510" 
d="M440 0h-44l-4 64c-27 -43 -75 -73 -147 -73c-137 0 -179 62 -179 213v378h50v-378c0 -130 29 -169 134 -169s140 73 140 140v407h50v-582zM148 756h38c3 -45 28 -68 75 -68c46 0 72 23 75 68h38c-3 -78 -48 -105 -113 -106c-65 1 -109 29 -113 106z" />
    <glyph glyph-name="Uring" unicode="&#x16e;" horiz-adv-x="542" 
d="M425 774h51v-524c0 -171 -32 -252 -208 -252s-208 81 -208 252v524h51v-524c0 -131 11 -207 157 -207s157 76 157 207v524zM174 874c0 57 47 88 97 88c48 0 98 -30 98 -87s-46 -88 -99 -88s-97 31 -96 87zM271 931c-83 0 -83 -113 0 -113c86 0 84 113 0 113z" />
    <glyph glyph-name="uring" unicode="&#x16f;" horiz-adv-x="510" 
d="M440 0h-44l-4 64c-27 -43 -75 -73 -147 -73c-137 0 -179 62 -179 213v378h50v-378c0 -130 29 -169 134 -169s140 73 140 140v407h50v-582zM164 709c0 56 44 86 90 86c45 0 92 -29 92 -85c0 -57 -43 -88 -92 -88c-50 0 -91 31 -90 87zM254 764c-78 0 -78 -111 0 -111
c81 0 78 111 0 111z" />
    <glyph glyph-name="Uhungarumlaut" unicode="&#x170;" horiz-adv-x="542" 
d="M425 774h51v-524c0 -171 -32 -252 -208 -252s-208 81 -208 252v524h51v-524c0 -131 11 -207 157 -207s157 76 157 207v524zM228 824h-48l56 94h57v-2zM339 823h-47l60 95h56v-2z" />
    <glyph glyph-name="uhungarumlaut" unicode="&#x171;" horiz-adv-x="510" 
d="M440 0h-44l-4 64c-27 -43 -75 -73 -147 -73c-137 0 -179 62 -179 213v378h50v-378c0 -130 29 -169 134 -169s140 73 140 140v407h50v-582zM228 681h-43l51 86h52v-2zM330 680h-43l54 87h52v-2z" />
    <glyph glyph-name="Uogonek" unicode="&#x172;" horiz-adv-x="542" 
d="M425 774h51v-524c0 -138 -21 -217 -121 -243c-46 -11 -59 -40 -47 -74c12 -38 71 -33 109 -11l8 -34c-54 -29 -135 -31 -155 32c-11 29 -5 58 20 79c-7 -1 -15 -1 -22 -1c-176 0 -208 81 -208 252v524h51v-524c0 -131 11 -207 157 -207s157 76 157 207v524z" />
    <glyph glyph-name="uogonek" unicode="&#x173;" horiz-adv-x="510" 
d="M440 -21c-65 -9 -85 -40 -72 -77c12 -38 71 -33 109 -11l8 -34c-54 -29 -135 -31 -155 32c-14 43 7 93 66 111l-4 64c-27 -43 -75 -73 -147 -73c-137 0 -179 62 -179 213v378h50v-378c0 -130 29 -169 134 -169s140 73 140 140v407h50v-603z" />
    <glyph glyph-name="ycircumflex" unicode="&#x177;" horiz-adv-x="412" 
d="M19 -213l17 44c71 -26 101 -5 123 63l27 103l-171 584h55l64 -236l79 -270h1l67 270l64 236h55l-192 -693c-29 -103 -86 -134 -189 -101zM75 668l125 114h31l125 -114v-4h-53l-88 79l-87 -79h-53v4z" />
    <glyph glyph-name="Ycircumflex" unicode="&#x176;" horiz-adv-x="394" 
d="M339 774h58l-174 -445v-330h-54v330l-171 445h58l71 -189l69 -199l70 199zM57 829l125 114h31l125 -114v-4h-53l-88 79l-87 -79h-53v4z" />
    <glyph glyph-name="wcircumflex" unicode="&#x175;" horiz-adv-x="608" 
d="M282 582h43l121 -509h1l41 224l61 285h50l-124 -583h-59l-68 290l-44 199l-43 -204l-64 -285h-56l-133 583h52l67 -291l42 -218h1zM163 654l125 114h31l125 -114v-4h-53l-88 79l-87 -79h-53v4z" />
    <glyph glyph-name="Wcircumflex" unicode="&#x174;" horiz-adv-x="760" 
d="M215 90l143 642h40l143 -642h2l66 318l83 366h55l-179 -775h-55l-81 355l-54 272l-53 -267l-82 -360h-55l-179 775h55l83 -366l66 -318h2zM242 807l121 110h30l121 -110v-4h-51l-85 77l-85 -77h-51v4z" />
    <glyph glyph-name="Ydieresis" unicode="&#x178;" horiz-adv-x="394" 
d="M339 774h58l-174 -445v-330h-54v330l-171 445h58l71 -189l69 -199l70 199zM72 869c0 47 73 48 73 0c0 -46 -73 -47 -73 0zM254 869c0 47 73 48 73 0c0 -46 -73 -47 -73 0z" />
    <glyph glyph-name="zcaron" unicode="&#x17e;" horiz-adv-x="432" 
d="M31 0v9l303 527h-282v46h357v-10l-304 -525h307v-47h-381zM380 757l-125 -114h-31l-125 114v4h53l88 -79l87 79h53v-4z" />
    <glyph glyph-name="Zcaron" unicode="&#x17d;" horiz-adv-x="406" 
d="M393 48v-48h-379l302 725h-258v48h335l-304 -725h304zM367 928l-120 -100h-30l-120 100v4h51l85 -70l83 70h51v-4z" />
    <glyph glyph-name="zdotaccent" unicode="&#x17c;" horiz-adv-x="432" 
d="M191 738c0 47 74 48 74 0c0 -47 -74 -48 -74 0zM31 0v9l303 526h-282v46h357v-10l-304 -524h307v-47h-381z" />
    <glyph glyph-name="Zdotaccent" unicode="&#x17b;" horiz-adv-x="406" 
d="M191 874c0 47 74 48 74 0c0 -47 -74 -48 -74 0zM393 48v-48h-379l302 724h-258v48h335l-304 -724h304z" />
    <glyph glyph-name="zacute" unicode="&#x17a;" horiz-adv-x="432" 
d="M31 0v9l303 527h-282v46h357v-10l-304 -525h307v-47h-381zM249 650h-42v5l49 118h56v-3z" />
    <glyph glyph-name="Zacute" unicode="&#x179;" horiz-adv-x="406" 
d="M393 48v-48h-379l302 725h-258v48h335l-304 -725h304zM238 826h-42v5l49 118h56v-3z" />
    <glyph glyph-name="gcommaaccent" horiz-adv-x="474" 
d="M66 -79h47c3 -62 27 -100 122 -100c111 0 140 51 140 171v75c-29 -54 -80 -70 -146 -70c-119 0 -179 53 -179 201v182c0 158 60 206 188 209c69 0 115 -22 141 -73v65h45v-589c0 -160 -63 -217 -189 -217c-110 0 -164 44 -169 146zM373 196v167c0 113 -30 179 -135 179
c-105 -2 -138 -40 -138 -163v-182c2 -120 43 -151 134 -151c100 0 139 53 139 150zM236 796h-50l59 167h42z" />
    <glyph glyph-name="Gcommaaccent" horiz-adv-x="558" 
d="M501 565l-45 -1c-4 122 -39 171 -175 171c-169 0 -174 -81 -174 -212v-271c0 -118 5 -207 174 -207c149 0 178 65 178 190v121h-177v45h222v-166c0 -159 -40 -240 -223 -240s-224 81 -224 257v270c0 181 38 258 224 258c170 0 216 -69 220 -215z" />
    <glyph glyph-name="Tcommaaccent" horiz-adv-x="388" 
d="M380 767v-47h-161v-720h-50v720h-161v47h372z" />
    <glyph glyph-name="kcommaaccent" horiz-adv-x="438" 
d="M433 0h-62l-209 291h-55v-291h-52v772h51v-429h55l187 249h60l-205 -275z" />
    <glyph glyph-name="tcommaaccent" horiz-adv-x="273" 
d="M64 164v557l50 7v-138h121v-47h-121v-378c0 -109 33 -130 128 -123v-44c-134 -13 -178 36 -178 166z" />
    <glyph glyph-name="uni0402" unicode="&#x402;" horiz-adv-x="593" 
d="M482 352c0 123 -23 174 -131 174c-88 0 -130 -39 -132 -139v-387h-50v725h-161v47h372v-47h-160v-213c25 44 86 61 131 61c130 0 181 -59 181 -222v-166c0 -132 -24 -192 -136 -187v46c69 -1 86 18 86 138v170z" />
    <glyph glyph-name="uni0403" unicode="&#x403;" horiz-adv-x="397" 
d="M373 772v-47h-253v-725h-50v772h303zM235 828h-40v5l46 109h54v-3z" />
    <glyph glyph-name="uni0453" unicode="&#x453;" horiz-adv-x="348" 
d="M329 533v48h-268v-581h50v533h218zM206 653h-40v5l46 109h54v-3z" />
    <glyph glyph-name="uni040C" unicode="&#x40c;" horiz-adv-x="473" 
d="M469 0v0h-54l-225 378h-73v-378h-52v772h52v-346h41c74 0 99 85 124 166c31 103 61 202 178 175l-8 -43c-87 18 -105 -83 -124 -146c-21 -69 -42 -139 -93 -174zM253 805h-40v5l46 109h54v-3z" />
    <glyph glyph-name="uni040B" unicode="&#x40b;" horiz-adv-x="593" 
d="M532 0h-50v352c0 123 -23 174 -131 174c-88 0 -130 -39 -132 -139v-387h-50v725h-161v47h372v-47h-160v-213c25 44 86 61 131 61c130 0 181 -59 181 -222v-351z" />
    <glyph glyph-name="uni040F" unicode="&#x40f;" horiz-adv-x="511" 
d="M70 0v772h51v-725h269v726h52v-773h-162v-104h-49v104h-161z" />
    <glyph glyph-name="uni0452" unicode="&#x452;" horiz-adv-x="495" 
d="M384 352c0 123 -23 174 -131 174c-88 0 -130 -39 -132 -139v-387h-50v645h-73v42h73v85h51v-85h124v-42h-124v-133c25 44 86 61 131 61c130 0 181 -59 181 -222v-255c0 -132 -24 -192 -136 -187v46c69 -1 86 18 86 138v259z" />
    <glyph glyph-name="uni0459" unicode="&#x459;" horiz-adv-x="709" 
d="M386 581v-249h89c114 0 184 -40 184 -165s-70 -167 -184 -167h-138v536h-175v-239c0 -117 7 -306 -158 -299l2 47c122 -5 107 166 107 252v284h273zM609 167c0 89 -41 119 -134 119h-89v-241h89c93 0 134 34 134 122z" />
    <glyph glyph-name="uni045A" unicode="&#x45a;" horiz-adv-x="690" 
d="M472 0h-138v285h-226v-285h-49v581h49v-251h226v251h49v-249h89c114 0 184 -40 184 -165s-70 -167 -184 -167zM606 167c0 89 -41 119 -134 119h-89v-241h89c93 0 134 34 134 122z" />
    <glyph glyph-name="uni045C" unicode="&#x45c;" horiz-adv-x="436" 
d="M431 0h-62l-188 280h-73v-280h-52v581h51v-255h52c66 0 70 62 90 117c28 74 48 155 152 137l-4 -44c-75 11 -80 -50 -103 -110c-19 -50 -21 -105 -67 -128zM227 653h-40v5l46 109h54v-3z" />
    <glyph glyph-name="uni045B" unicode="&#x45b;" horiz-adv-x="495" 
d="M434 0h-50v352c0 123 -23 174 -131 174c-88 0 -130 -39 -132 -139v-387h-50v645h-73v42h73v85h51v-85h124v-42h-124v-133c25 44 86 61 131 61c130 0 181 -59 181 -222v-351z" />
    <glyph glyph-name="uni045F" unicode="&#x45f;" horiz-adv-x="485" 
d="M222 -83v83h-164v581h49v-536h273v536h49v-581h-160v-83h-47z" />
    <glyph glyph-name="uni040E" unicode="&#x40e;" horiz-adv-x="438" 
d="M35 6l18 45c71 -27 105 -7 125 61l27 93l-193 567h53l92 -269l74 -236h1l65 232l85 273h53l-207 -668c-32 -102 -90 -132 -193 -98zM309 927l43 -1c-1 -79 -51 -109 -124 -109s-125 30 -127 109l43 1c0 -53 37 -67 84 -67s80 15 81 67z" />
    <glyph glyph-name="uni045E" unicode="&#x45e;" horiz-adv-x="412" 
d="M19 -213l17 44c71 -26 101 -5 123 63l27 103l-171 584h55l64 -236l79 -270h1l67 270l64 236h55l-192 -693c-29 -103 -86 -134 -189 -101zM290 766l43 -1c-1 -79 -51 -109 -124 -109s-125 30 -127 109l43 1c0 -53 37 -65 84 -65s80 13 81 65z" />
    <glyph glyph-name="uni0408" unicode="&#x408;" horiz-adv-x="438" 
d="M190 44c115 0 136 55 138 134v594h50v-592c0 -130 -62 -186 -188 -186s-182 61 -182 191h48c0 -81 19 -141 134 -141z" />
    <glyph glyph-name="uni0490" unicode="&#x490;" horiz-adv-x="397" 
d="M373 850v-125h-253v-725h-50v772h257v78h46z" />
    <glyph glyph-name="uni0401" unicode="&#x401;" horiz-adv-x="476" 
d="M70 774h349v-46h-299v-292h269v-47h-269v-340h319v-49h-369v774zM128 868c0 47 73 48 73 0c0 -46 -73 -47 -73 0zM310 868c0 47 73 48 73 0c0 -46 -73 -47 -73 0z" />
    <glyph glyph-name="uni0404" unicode="&#x404;" horiz-adv-x="539" 
d="M479 574h-46c0 108 -31 162 -155 162c-158 0 -168 -88 -168 -212v-108h213v-46h-213v-120c0 -131 10 -210 168 -210c128 0 151 52 156 162h45c-4 -138 -43 -207 -201 -207c-177 0 -217 81 -217 253v272c0 171 37 260 217 260c157 0 201 -66 201 -206z" />
    <glyph glyph-name="uni0407" unicode="&#x407;" horiz-adv-x="193" 
d="M-11 863c0 47 73 48 73 0c0 -46 -73 -47 -73 0zM137 863c0 47 73 48 73 0c0 -46 -73 -47 -73 0zM123 773v-774h-53v774h53z" />
    <glyph glyph-name="uni0406" unicode="&#x406;" horiz-adv-x="193" 
d="M123 772v-772h-53v772h53z" />
    <glyph glyph-name="uni0456" unicode="&#x456;" horiz-adv-x="199" 
d="M126 590v-590h-49v590h49zM63 738c0 47 74 48 74 0c0 -47 -74 -48 -74 0z" />
    <glyph glyph-name="uni0491" unicode="&#x491;" horiz-adv-x="348" 
d="M285 581v69h44v-117h-218v-533h-50v581h224z" />
    <glyph glyph-name="uni0451" unicode="&#x451;" 
d="M366 159h45c0 -106 -54 -162 -173 -162c-126 0 -185 58 -185 217v157c0 160 59 221 185 221c135 0 180 -67 180 -221v-87h-317v-66c0 -119 28 -176 137 -176c107 0 128 48 128 117zM101 330h273v40c0 112 -20 180 -136 180c-108 0 -137 -54 -137 -177v-43zM117 706
c0 47 73 48 73 0c0 -46 -73 -47 -73 0zM299 706c0 47 73 48 73 0c0 -46 -73 -47 -73 0z" />
    <glyph glyph-name="uni2116" unicode="&#x2116;" horiz-adv-x="814" 
d="M442 772v-771h-58l-267 655h-2l7 -242v-413h-53v771h53l274 -662h2l-9 275v387h53zM549 414h224v-42h-224v42zM657 469c-80 0 -118 53 -118 135v43c0 80 38 130 118 130c81 0 119 -48 119 -130v-43c0 -82 -38 -135 -119 -135zM657 509c62 0 78 36 78 101v28
c0 65 -16 101 -78 101s-78 -36 -78 -101v-28c0 -65 16 -101 78 -101z" />
    <glyph glyph-name="uni0454" unicode="&#x454;" horiz-adv-x="466" 
d="M373 173h47c0 -122 -60 -180 -181 -180c-126 0 -185 61 -185 220v155c0 161 63 218 189 218c127 0 170 -57 175 -167h-47c-4 72 -27 120 -128 120c-106 0 -139 -48 -139 -171v-49h186v-46h-186v-57c0 -120 24 -175 135 -175c110 0 132 50 134 132z" />
    <glyph glyph-name="uni0458" unicode="&#x458;" horiz-adv-x="206" 
d="M1 -182v46c69 -1 86 18 86 138v588h50v-585c0 -132 -24 -192 -136 -187zM74 745c0 47 74 48 74 0c0 -47 -74 -48 -74 0z" />
    <glyph glyph-name="uni0405" unicode="&#x405;" horiz-adv-x="519" 
d="M455 608h-48c-1 94 -61 129 -150 129c-104 0 -162 -33 -162 -159c0 -140 83 -138 201 -152c113 -15 178 -89 178 -202c0 -190 -91 -232 -225 -232c-136 1 -205 59 -205 183h48c0 -95 54 -135 158 -135c128 1 173 52 173 185c0 137 -96 154 -211 165
c-80 8 -166 43 -166 188s72 203 212 204c108 0 191 -37 197 -174z" />
    <glyph glyph-name="uni0455" unicode="&#x455;" horiz-adv-x="444" 
d="M38 163h50c0 -68 35 -118 138 -118c90 0 135 44 135 119c0 106 -84 108 -166 119c-78 10 -155 29 -155 153c0 96 62 156 181 156c124 0 177 -59 177 -155h-49c-2 72 -38 108 -127 108c-90 0 -129 -42 -129 -108c0 -101 70 -102 145 -112c85 -12 175 -30 175 -160
c0 -102 -59 -168 -187 -168c-114 0 -188 45 -188 166z" />
    <glyph glyph-name="uni0457" unicode="&#x457;" horiz-adv-x="204" 
d="M-1 735c0 47 73 48 73 0c0 -46 -73 -47 -73 0zM131 735c0 47 73 48 73 0c0 -46 -73 -47 -73 0zM126 590v-590h-49v590h49z" />
    <glyph glyph-name="uni0410" unicode="&#x410;" horiz-adv-x="469" 
d="M110 190l-49 -190h-52l198 772h55l198 -772h-53l-50 190h-247zM236 699h-1l-113 -462h224z" />
    <glyph glyph-name="uni0411" unicode="&#x411;" horiz-adv-x="487" 
d="M405 772v0v-47h-295v-283h110c165 0 231 -49 231 -219s-66 -220 -231 -220h-160l1 769h344zM401 223v0c0 138 -33 170 -181 170h-110c-1 -113 -1 -227 -1 -341h111c148 0 181 32 181 171z" />
    <glyph glyph-name="uni0412" unicode="&#x412;" horiz-adv-x="487" 
d="M110 51v0h110c168 0 180 54 182 169c1 118 -17 168 -144 168h-148v-337zM60 2v0l1 770h167c136 0 198 -59 198 -190c0 -64 -25 -145 -94 -164c109 -17 119 -99 119 -191c0 -164 -49 -225 -231 -225h-160zM228 727v0h-117l-1 -293h112c119 0 156 57 156 148
c0 108 -45 145 -150 145z" />
    <glyph glyph-name="uni0413" unicode="&#x413;" horiz-adv-x="397" 
d="M373 772v-47h-253v-725h-50v772h303z" />
    <glyph glyph-name="uni0414" unicode="&#x414;" horiz-adv-x="554" 
d="M5 46h44c84 74 91 196 91 301v425h335v-726h55v-166h-47v120h-433v-120h-45v166zM107 46h319v680h-237v-379c0 -111 -7 -214 -82 -301z" />
    <glyph glyph-name="uni0415" unicode="&#x415;" horiz-adv-x="476" 
d="M70 772h349v-46h-299v-290h269v-47h-269v-340h319v-49h-369v772z" />
    <glyph glyph-name="uni0416" unicode="&#x416;" horiz-adv-x="727" 
d="M726 0v0h-62l-228 377h-44v-377h-51v377h-46l-227 -377h-63l245 402c-51 36 -73 106 -93 176c-19 63 -29 165 -116 148l-9 43c117 27 139 -74 170 -177c25 -82 51 -168 125 -168h14v348h51v-348h12c75 0 100 86 125 168c31 103 53 204 170 177l-9 -43
c-86 17 -96 -85 -115 -148c-21 -70 -43 -140 -93 -176z" />
    <glyph glyph-name="uni0417" unicode="&#x417;" horiz-adv-x="484" 
d="M168 395v48h55c63 0 154 24 154 135c0 93 -41 150 -141 149c-103 -1 -134 -39 -138 -139h-50c0 123 56 188 188 188c128 0 187 -74 187 -196c0 -77 -33 -135 -98 -161c79 -32 117 -101 117 -197c0 -159 -59 -229 -213 -229c-119 0 -190 63 -190 200h52
c0 -89 41 -150 139 -150c115 0 162 49 162 173c0 114 -56 179 -169 179h-55z" />
    <glyph glyph-name="uni0418" unicode="&#x418;" horiz-adv-x="512" 
d="M70 772h52v-388l-8 -283h2l274 671h53v-772h-53v415l7 249h-3l-266 -664h-58v772v0z" />
    <glyph glyph-name="uni0419" unicode="&#x419;" horiz-adv-x="512" 
d="M70 772h52v-388l-8 -283h2l274 671h53v-772h-53v415l7 249h-3l-266 -664h-58v772v0zM390 935c-1 -79 -51 -109 -124 -109s-125 30 -127 109l43 1c0 -53 37 -65 84 -65s80 13 81 65l43 -1v0z" />
    <glyph glyph-name="uni041A" unicode="&#x41a;" horiz-adv-x="473" 
d="M469 0v0h-54l-225 378h-73v-378h-52v772h52v-346h41c74 0 99 85 124 166c31 103 61 202 178 175l-8 -43c-87 18 -105 -83 -124 -146c-21 -69 -42 -139 -93 -174z" />
    <glyph glyph-name="uni041B" unicode="&#x41b;" horiz-adv-x="538" 
d="M134 772h335v-772h-50v722h-233c0 -119 -1 -247 0 -365c1 -137 11 -367 -181 -358l3 49c144 -6 127 192 127 309c-1 139 -1 277 -1 415z" />
    <glyph glyph-name="uni041C" unicode="&#x41c;" horiz-adv-x="582" 
d="M283 176l-168 473l7 -203v-446h-52v772h55l166 -486l167 486h55v-772h-51v446l6 203l-168 -473h-17z" />
    <glyph glyph-name="uni041D" unicode="&#x41d;" horiz-adv-x="511" 
d="M442 772v-772h-50v385h-270v-385h-52v772h52v-337h270v337h50z" />
    <glyph glyph-name="uni041E" unicode="&#x41e;" horiz-adv-x="569" 
d="M283 -7c-183 0 -224 81 -224 254v279c0 177 38 254 224 254s224 -77 224 -255v-277c0 -174 -41 -255 -224 -255zM283 734c-169 0 -174 -77 -174 -211v-273c0 -124 5 -211 174 -211s174 84 174 211v273c0 131 -5 211 -174 211z" />
    <glyph glyph-name="uni041F" unicode="&#x41f;" horiz-adv-x="511" 
d="M442 772v-772h-51v725h-269v-726h-52v773h372z" />
    <glyph glyph-name="uni0420" unicode="&#x420;" horiz-adv-x="483" 
d="M123 319h133c108 0 135 46 135 169v63c0 123 -20 173 -135 173h-133v-405zM256 271h-133v-271h-53v772h186c126 0 185 -40 185 -216v-67c0 -168 -59 -218 -185 -218z" />
    <glyph glyph-name="uni0421" unicode="&#x421;" horiz-adv-x="523" 
d="M479 575h-47c0 109 -30 163 -156 163c-157 0 -168 -88 -168 -213v-275c0 -133 11 -211 168 -211c130 0 152 52 157 163h46c-5 -139 -44 -209 -203 -209c-177 0 -217 81 -217 255v273c0 172 37 261 217 261c158 0 203 -67 203 -207z" />
    <glyph glyph-name="uni0422" unicode="&#x422;" horiz-adv-x="388" 
d="M380 772v-47h-161v-725h-50v725h-161v47h372z" />
    <glyph glyph-name="uni0423" unicode="&#x423;" horiz-adv-x="438" 
d="M35 6l18 45c71 -27 105 -7 125 61l27 93l-193 567h53l92 -269l74 -236h1l65 232l85 273h53l-207 -668c-32 -102 -90 -132 -193 -98z" />
    <glyph glyph-name="uni0424" unicode="&#x424;" horiz-adv-x="725" 
d="M335 775h51v-81h93c126 0 184 -40 184 -214v-182c0 -167 -58 -216 -184 -216h-93v-85h-51v85h-91c-127 0 -185 49 -185 216v182c0 174 58 214 185 214h91v81v0zM335 130v516h-91c-116 0 -135 -49 -135 -171v-178c0 -122 26 -167 135 -167h91v0zM386 130h93
c108 0 135 45 135 167v178c0 122 -20 171 -135 171h-93v-516v0z" />
    <glyph glyph-name="uni0425" unicode="&#x425;" horiz-adv-x="436" 
d="M25 772h54l77 -181l62 -160l63 160l76 181h54l-162 -389l178 -383h-56l-71 151l-82 186l-84 -191l-69 -146h-56l178 383z" />
    <glyph glyph-name="uni0426" unicode="&#x426;" horiz-adv-x="519" 
d="M70 0v772h49v-725h270v725h50v-725h55v-166h-47v119h-377z" />
    <glyph glyph-name="uni0427" unicode="&#x427;" horiz-adv-x="502" 
d="M380 342v430h53v-770h-53v293c-40 -19 -87 -22 -130 -22c-152 0 -188 75 -188 216v283h50v-284c0 -110 18 -168 139 -168c43 0 89 4 129 22z" />
    <glyph glyph-name="uni0428" unicode="&#x428;" horiz-adv-x="777" 
d="M708 0h-638v772h51v-725h243v725h49v-725h243v725h52v-772z" />
    <glyph glyph-name="uni0429" unicode="&#x429;" horiz-adv-x="789" 
d="M710 772v-725h54v-166h-46v119h-648v772h53v-725h242v725h49v-725h243v725h53z" />
    <glyph glyph-name="uni042A" unicode="&#x42a;" horiz-adv-x="559" 
d="M333 454h-132v-406h132c115 0 135 50 135 173v63c0 125 -27 170 -135 170zM-2 725v47h203v-270h132c126 0 184 -50 184 -219v-67c0 -176 -58 -216 -184 -216h-185v725h-150z" />
    <glyph glyph-name="uni042B" unicode="&#x42b;" horiz-adv-x="674" 
d="M256 454h-133v-406h133c114 0 134 50 134 173v63c0 125 -27 170 -134 170zM123 502h133c125 0 184 -50 184 -219v-67c0 -176 -59 -216 -184 -216h-186v772h53v-270zM556 0v772h52v-772h-52z" />
    <glyph glyph-name="uni042C" unicode="&#x42c;" horiz-adv-x="482" 
d="M256 454h-133v-406h133c114 0 134 50 134 173v63c0 125 -27 170 -134 170zM123 502h133c125 0 184 -50 184 -219v-67c0 -176 -59 -216 -184 -216h-186v772h53v-270z" />
    <glyph glyph-name="uni042D" unicode="&#x42d;" horiz-adv-x="539" 
d="M105 574h-46c0 140 44 206 201 206c180 0 217 -89 217 -260v-272c0 -172 -40 -253 -217 -253c-158 0 -197 69 -201 207h45c5 -110 28 -162 156 -162c158 0 168 79 168 210v120h-213v46h213v108c0 124 -10 212 -168 212c-124 0 -155 -54 -155 -162z" />
    <glyph glyph-name="uni042E" unicode="&#x42e;" horiz-adv-x="733" 
d="M253 419v106c0 171 34 253 209 253c174 0 209 -82 209 -253v-278c0 -167 -39 -252 -209 -252c-171 0 -209 85 -209 252v122h-131v-369h-52v771h52v-352h131zM462 41c156 0 159 90 159 209v272c0 129 -1 210 -159 210s-159 -81 -159 -210v-272c0 -119 4 -209 159 -209z
" />
    <glyph glyph-name="uni042F" unicode="&#x42f;" horiz-adv-x="497" 
d="M59 486v61c0 177 59 225 184 225h185v-771h-53v284h-111l-157 -284h-62l162 285c-100 9 -148 59 -148 200zM243 332h132v389h-132c-115 0 -134 -48 -134 -174v-60c0 -122 26 -155 134 -155z" />
    <glyph glyph-name="uni0430" unicode="&#x430;" horiz-adv-x="484" 
d="M421 0h-42l-1 78c-40 -65 -94 -83 -172 -83c-96 0 -163 44 -163 155c0 145 125 175 330 159v87c1 104 -35 148 -127 148c-83 0 -127 -23 -127 -134h-48c0 123 49 179 175 179c118 0 175 -56 175 -192v-397zM373 186v75c-191 19 -280 -10 -280 -112
c0 -75 43 -107 131 -107c111 0 149 84 149 144z" />
    <glyph glyph-name="uni0431" unicode="&#x431;" horiz-adv-x="469" 
d="M50 215v322c0 230 94 239 189 246c47 5 88 4 118 41l31 -35c-40 -44 -92 -50 -143 -55c-38 -2 -78 -3 -104 -31c-25 -26 -41 -76 -41 -166v-27c29 50 86 65 135 65c130 0 184 -61 184 -226v-140c0 -155 -58 -217 -184 -217c-125 0 -185 46 -185 223zM235 42
c108 0 135 47 135 170v138c0 126 -27 175 -135 175c-90 0 -135 -38 -135 -151v-160c0 -127 27 -172 135 -172z" />
    <glyph glyph-name="uni0432" unicode="&#x432;" horiz-adv-x="451" 
d="M55 -4v588h170c102 0 164 -46 164 -145c0 -49 -16 -107 -69 -123c83 -13 87 -76 87 -146c0 -124 -43 -174 -188 -174h-164zM225 538h-119v-206h114c90 0 118 40 118 103c0 76 -34 103 -113 103zM106 42h113c126 0 135 43 136 125c2 84 -12 121 -108 121h-141v-246z" />
    <glyph glyph-name="uni0433" unicode="&#x433;" horiz-adv-x="348" 
d="M329 581v-48h-218v-533h-50v581h268z" />
    <glyph glyph-name="uni0434" unicode="&#x434;" horiz-adv-x="505" 
d="M11 46h45c85 74 91 195 91 302v233h292v-535h53v-157h-42v111h-395v-111h-44v157zM114 46h276v490h-194v-188c0 -111 -8 -214 -82 -302z" />
    <glyph glyph-name="uni0435" unicode="&#x435;" 
d="M366 156h45c0 -106 -54 -162 -173 -162c-126 0 -185 58 -185 217v157c0 160 59 221 185 221c135 0 180 -67 180 -221v-87h-317v-66c0 -119 28 -176 137 -176c107 0 128 48 128 117zM101 327h273v40c0 112 -20 180 -136 180c-108 0 -137 -54 -137 -177v-43z" />
    <glyph glyph-name="uni0436" unicode="&#x436;" horiz-adv-x="653" 
d="M640 5v-5h-55l-175 291h-62v-291h-48v291h-59l-176 -291h-57v5l191 308c-47 24 -55 73 -75 123c-17 47 -19 112 -92 99l-5 46c105 18 114 -55 142 -128c21 -55 31 -115 98 -115h35v243h46v-243h37c65 0 74 60 95 115c28 73 37 146 141 128l-5 -46c-73 13 -74 -51 -92 -99
c-20 -50 -26 -99 -72 -123z" />
    <glyph glyph-name="uni0437" unicode="&#x437;" horiz-adv-x="431" 
d="M322 442c0 72 -42 102 -115 102c-72 0 -111 -14 -115 -95h-46c0 104 59 141 162 141c94 0 164 -39 164 -147c0 -50 -25 -100 -77 -126c70 -27 91 -90 91 -152c0 -127 -73 -175 -179 -175c-104 0 -167 38 -167 153h47c0 -87 45 -107 120 -107c76 0 131 28 131 123
c0 89 -41 134 -133 134h-63v44h62c67 0 118 30 118 105z" />
    <glyph glyph-name="uni0438" unicode="&#x438;" horiz-adv-x="482" 
d="M107 582v-485l43 80l236 405h41v-578h-49v485l-73 -134l-204 -351h-43v578h49z" />
    <glyph glyph-name="uni0439" unicode="&#x439;" horiz-adv-x="482" 
d="M107 582v-485l43 80l236 405h41v-578h-49v485l-73 -134l-204 -351h-43v578h49zM333 762h42c-2 -75 -49 -103 -120 -103c-69 0 -120 27 -122 103h42c0 -51 35 -61 80 -61c46 0 77 10 78 61z" />
    <glyph glyph-name="uni043A" unicode="&#x43a;" horiz-adv-x="436" 
d="M431 0h-62l-188 280h-73v-280h-52v581h51v-255h52c66 0 70 62 90 117c28 74 48 155 152 137l-4 -44c-75 11 -80 -50 -103 -110c-19 -50 -21 -105 -67 -128z" />
    <glyph glyph-name="uni043B" unicode="&#x43b;" horiz-adv-x="487" 
d="M115 581h317v-581h-49v536h-219v-239c0 -117 7 -306 -158 -299l2 47c122 -5 107 166 107 252v284z" />
    <glyph glyph-name="uni043C" unicode="&#x43c;" horiz-adv-x="542" 
d="M264 88l-163 381l7 -204v-265h-49v581h43l108 -248l63 -159l61 154l111 253h42v-581h-49v265l6 204l-164 -381h-16z" />
    <glyph glyph-name="uni043D" unicode="&#x43d;" horiz-adv-x="484" 
d="M59 581h49v-258h272v258h49v-581h-49v278h-272v-278h-49v581z" />
    <glyph glyph-name="uni043E" unicode="&#x43e;" horiz-adv-x="470" 
d="M235 39c108 0 135 52 135 175v155c0 126 -20 174 -135 174c-108 0 -135 -49 -135 -172v-155c0 -126 20 -177 135 -177zM235 -7c-126 0 -185 49 -185 219v160c0 165 59 218 185 218s185 -49 185 -221v-157c0 -162 -59 -219 -185 -219z" />
    <glyph glyph-name="uni043F" unicode="&#x43f;" horiz-adv-x="485" 
d="M59 581h371v-581h-49v536h-273v-536h-49v581z" />
    <glyph glyph-name="uni0440" unicode="&#x440;" horiz-adv-x="497" 
d="M260 592c123 0 176 -58 176 -211v-189c0 -138 -69 -195 -185 -195c-61 0 -103 15 -135 52v-231h-50v771h44l5 -64c28 41 73 67 145 67zM386 380c0 131 -43 165 -131 165c-102 -2 -139 -57 -139 -152v-193c-1 -111 27 -157 135 -157s135 53 135 151v186z" />
    <glyph glyph-name="uni0441" unicode="&#x441;" horiz-adv-x="462" 
d="M370 174h47c0 -123 -60 -181 -182 -181c-126 0 -185 61 -185 221v155c0 162 63 219 189 219c128 0 171 -57 176 -168h-47c-4 72 -28 121 -129 121c-106 0 -139 -49 -139 -172v-152c0 -120 24 -175 135 -175s133 49 135 132z" />
    <glyph glyph-name="uni0442" unicode="&#x442;" horiz-adv-x="384" 
d="M166 535h-161v46h371v-46h-161v-535h-49v535z" />
    <glyph glyph-name="uni0443" unicode="&#x443;" horiz-adv-x="412" 
d="M19 -213l17 44c71 -26 101 -5 123 63l27 103l-171 584h55l64 -236l79 -270h1l67 270l64 236h55l-192 -693c-29 -103 -86 -134 -189 -101z" />
    <glyph glyph-name="uni0444" unicode="&#x444;" horiz-adv-x="739" 
d="M393 524c30 43 72 65 135 64c112 -1 161 -63 161 -210v-187c0 -109 -51 -199 -172 -194c-56 2 -87 10 -124 52v-230h-48v230c-37 -42 -67 -50 -123 -52c-123 -5 -172 85 -172 194v187c0 147 47 209 161 210c63 1 103 -21 134 -64v278h48v-278zM517 43
c97 -2 121 63 121 150v184c0 124 -28 163 -115 165c-88 3 -131 -59 -131 -151v-193c0 -105 25 -153 125 -155zM222 43c99 2 124 50 124 155v193c0 92 -43 154 -130 151c-88 -2 -118 -41 -118 -165v-184c0 -87 26 -152 124 -150z" />
    <glyph glyph-name="uni0445" unicode="&#x445;" horiz-adv-x="406" 
d="M64 0h-55l163 302l-153 279h56l72 -133l55 -112l58 115l73 130h56l-157 -279l166 -302h-58l-80 151l-58 117l-62 -123z" />
    <glyph glyph-name="uni0446" unicode="&#x446;" horiz-adv-x="500" 
d="M421 45h55v-157h-47v112h-370v581h51v-536h262v536h49v-536z" />
    <glyph glyph-name="uni0447" unicode="&#x447;" horiz-adv-x="460" 
d="M44 581h51v-183c0 -122 22 -170 130 -170c88 0 130 40 130 145v208h50v-581h-51v239c-24 -44 -85 -61 -129 -61c-129 0 -181 58 -181 221v182z" />
    <glyph glyph-name="uni0448" unicode="&#x448;" horiz-adv-x="700" 
d="M645 0h-586v581h50v-536h221v536h47v-536h219v536h49v-581z" />
    <glyph glyph-name="uni0449" unicode="&#x449;" horiz-adv-x="723" 
d="M643 45h56v-157h-47v112h-593v581h48v-536h221v536h48v-536h219v536h48v-536z" />
    <glyph glyph-name="uni044A" unicode="&#x44a;" horiz-adv-x="534" 
d="M443 173c0 89 -41 129 -133 129h-128v-257h128c92 0 133 40 133 128zM1 581h181v-233h128c113 0 183 -50 183 -175s-70 -173 -183 -173h-178v535h-131v46z" />
    <glyph glyph-name="uni044B" unicode="&#x44b;" horiz-adv-x="628" 
d="M370 173c0 89 -41 129 -134 129h-128v-257h128c93 0 134 40 134 128zM236 0h-177v581h49v-233h128c114 0 184 -50 184 -175s-70 -173 -184 -173zM524 0v581h49v-581h-49z" />
    <glyph glyph-name="uni044C" unicode="&#x44c;" horiz-adv-x="455" 
d="M371 173c0 89 -41 129 -134 129h-128v-257h128c93 0 134 40 134 128zM237 0h-177v581h49v-233h128c114 0 184 -50 184 -175s-70 -173 -184 -173z" />
    <glyph glyph-name="uni044D" unicode="&#x44d;" horiz-adv-x="466" 
d="M50 173h47c2 -82 24 -132 134 -132c111 0 135 55 135 175v57h-186v46h186v49c0 123 -33 171 -139 171c-101 0 -124 -48 -128 -120h-47c5 110 48 167 175 167c126 0 189 -57 189 -218v-155c0 -159 -59 -220 -185 -220c-121 0 -181 58 -181 180z" />
    <glyph glyph-name="uni044E" unicode="&#x44e;" horiz-adv-x="636" 
d="M406 38c107 0 134 53 134 175v155c0 126 -20 173 -134 173c-108 0 -136 -49 -136 -172v-154c0 -126 21 -177 136 -177zM63 581h49v-258h109v47c0 165 59 218 185 218c125 0 184 -49 184 -220v-157c0 -162 -59 -218 -184 -218c-126 0 -185 48 -185 218v66h-109v-277h-49
v581z" />
    <glyph glyph-name="uni044F" unicode="&#x44f;" horiz-adv-x="428" 
d="M39 387v23c0 107 25 171 141 171h193v-581h-49v234h-125l-116 -234h-58l121 235c-89 11 -107 72 -107 152zM180 279h144v254h-144c-88 0 -94 -46 -94 -123v-23c0 -78 11 -108 94 -108z" />
    <glyph glyph-name="uni040A" unicode="&#x40a;" horiz-adv-x="698" 
d="M389 449h88c125 0 184 -50 184 -219v-14c0 -176 -59 -216 -184 -216h-141v400h-223v-400h-52v772h52v-322h223v322h53v-323zM477 401h-88v-353h88c114 0 134 50 134 173v10c0 125 -27 170 -134 170z" />
    <glyph glyph-name="uni0409" unicode="&#x409;" horiz-adv-x="718" 
d="M142 772h267v-323h88c125 0 184 -50 184 -219v-14c0 -176 -59 -216 -184 -216h-141v723h-162c0 -119 -1 -248 0 -366c1 -137 11 -367 -181 -358l3 49c144 -6 127 192 127 309c-1 139 -1 277 -1 415zM497 401h-88v-353h88c114 0 134 50 134 173v10c0 125 -27 170 -134 170
z" />
    </font>
</defs>
</svg>
