<?xml version="1.0" standalone="no"?>
<!DOCTYPE svg PUBLIC "-//W3C//DTD SVG 1.1//EN" "http://www.w3.org/Graphics/SVG/1.1/DTD/svg11.dtd" >
<svg>
<metadata>
Created by FontForge 20110222 at Wed May 28 11:33:11 2014
 By Orthosie Webhosting
Copyright (c) 2012 by Svet Simov. All rights reserved.
</metadata>
<defs>
<font id="KelsonSans-BoldRU" horiz-adv-x="564" >
  <font-face 
    font-family="Kelson Sans RU"
    font-weight="700"
    font-stretch="normal"
    units-per-em="1000"
    panose-1="2 0 5 0 0 0 0 0 0 0"
    ascent="750"
    descent="-250"
    x-height="589"
    cap-height="772"
    bbox="-170 -252 1131 986"
    underline-thickness="50"
    underline-position="-50"
    stemh="91"
    stemv="96"
    unicode-range="U+000D-FB02"
  />
<missing-glyph horiz-adv-x="628" 
d="M42 773h538v-773h-538v773zM157 504h71c0 72 22 96 90 96c61 0 87 -28 88 -115c0 -4 0 29 0 -1c0 -147 -147 -64 -147 -247h72c0 143 150 64 150 248v2c0 126 -58 182 -161 182c-145 0 -163 -82 -163 -165zM250 145c0 -60 90 -55 90 0c0 60 -90 57 -90 0z" />
    <glyph glyph-name=".notdef" horiz-adv-x="628" 
d="M42 773h538v-773h-538v773zM157 504h71c0 72 22 96 90 96c61 0 87 -28 88 -115c0 -4 0 29 0 -1c0 -147 -147 -64 -147 -247h72c0 143 150 64 150 248v2c0 126 -58 182 -161 182c-145 0 -163 -82 -163 -165zM250 145c0 -60 90 -55 90 0c0 60 -90 57 -90 0z" />
    <glyph glyph-name=".null" horiz-adv-x="0" 
 />
    <glyph glyph-name="CR" unicode="&#xd;" horiz-adv-x="268" 
 />
    <glyph glyph-name="space" unicode=" " horiz-adv-x="251" 
 />
    <glyph glyph-name="Aringacute" unicode="&#x1fa;" horiz-adv-x="578" 
d="M344 898h-113l65 88h131zM168 767c0 77 58 113 121 113c65 0 122 -35 122 -112c0 -42 -17 -66 -44 -86l202 -682h-142l-39 136h-197l-40 -136h-142l203 680c-27 20 -45 44 -44 87zM225 271h128l-64 240zM289 803c-57 0 -57 -72 0 -72c61 0 58 72 0 72z" />
    <glyph glyph-name="AEacute" unicode="&#x1fc;" horiz-adv-x="742" 
d="M553 937l-76 -125h-119l57 125h138zM267 772h437v-120h-219v-199h198v-124h-198v-203h233v-126h-368v145h-147l-49 -145h-151zM237 271h113v365z" />
    <glyph glyph-name="B" unicode="B" horiz-adv-x="623" 
d="M60 0v770h229c139 0 227 -84 227 -204c0 -47 -9 -94 -70 -135c80 -17 141 -86 141 -192c0 -173 -87 -239 -273 -239h-254zM197 347v-222h119c107 0 123 38 123 111c0 76 -25 111 -125 111h-117zM289 652h-91v-178h92c57 0 84 41 84 90c0 39 -17 88 -85 88z" />
    <glyph glyph-name="C" unicode="C" horiz-adv-x="623" 
d="M441 238h138c0 -169 -80 -240 -263 -240s-257 71 -257 230v313c0 163 71 230 257 230s263 -68 263 -239h-138c0 75 -18 117 -125 117c-100 0 -119 -42 -119 -115v-299c0 -73 19 -115 119 -115s125 42 125 118z" />
    <glyph glyph-name="D" unicode="D" horiz-adv-x="640" 
d="M71 770h253c186 0 263 -67 263 -230v-314c0 -159 -80 -226 -263 -226h-253v770zM208 125h116c100 0 125 35 125 108v300c0 73 -16 111 -123 111h-118v-519z" />
    <glyph glyph-name="Dcroat" unicode="&#x110;" horiz-adv-x="640" 
d="M71 770h253c186 0 263 -67 263 -230v-314c0 -159 -80 -226 -263 -226h-253v307h-64v115h64v348zM208 125h116c100 0 125 35 125 108v300c0 73 -16 111 -123 111h-118v-222h105v-115h-105v-182z" />
    <glyph glyph-name="E" unicode="E" 
d="M70 770h443v-120h-305v-198h260v-124h-260v-203h319v-126h-457v771z" />
    <glyph glyph-name="F" unicode="F" horiz-adv-x="552" 
d="M520 770v-126h-314v-192h266v-125h-266v-328h-137v771h451z" />
    <glyph glyph-name="G" unicode="G" horiz-adv-x="631" 
d="M318 313v125h259v-200c0 -169 -80 -242 -263 -242s-257 73 -257 239v309c0 157 71 230 257 230s263 -65 263 -230h-138c0 72 -18 108 -125 108c-100 0 -119 -45 -119 -115v-302c0 -73 19 -115 119 -115s135 42 135 118v75h-131z" />
    <glyph glyph-name="Gcommaaccent" unicode="&#x122;" horiz-adv-x="631" 
d="M318 313v125h259v-200c0 -169 -80 -242 -263 -242s-257 73 -257 239v309c0 157 71 230 257 230s263 -65 263 -230h-138c0 72 -18 108 -125 108c-100 0 -119 -45 -119 -115v-302c0 -73 19 -115 119 -115s135 42 135 118v75h-131zM262 -251l-46 63c64 39 50 73 50 138h130
c11 -107 -32 -169 -134 -201z" />
    <glyph glyph-name="H" unicode="H" horiz-adv-x="655" 
d="M586 770v-770h-137v317h-240v-318h-139v771h139v-327h240v327h137z" />
    <glyph glyph-name="Hbar" unicode="&#x126;" horiz-adv-x="643" 
d="M586 757v-128h67v-87h-67v-542h-137v304h-240v-304h-139v542h-74v87h74v128h139v-128h240v128h137zM209 430h240v112h-240v-112z" />
    <glyph glyph-name="I" unicode="I" horiz-adv-x="279" 
d="M209 769v-770h-139v770h139z" />
    <glyph glyph-name="IJ" unicode="&#x132;" horiz-adv-x="822" 
d="M215 769v-770h-139v770h139zM765 770v-545c0 -159 -74 -230 -229 -230s-229 78 -229 237h138c0 -73 19 -115 91 -115s91 42 91 115v538h138z" />
    <glyph glyph-name="J" unicode="J" horiz-adv-x="526" 
d="M466 770v-545c0 -159 -74 -230 -229 -230s-229 78 -229 237h138c0 -73 19 -115 91 -115s91 42 91 115v538h138z" />
    <glyph glyph-name="K" unicode="K" horiz-adv-x="630" 
d="M626 0h-168l-217 309h-39v-309h-137v770h138v-324h37l202 324h161l-251 -385z" />
    <glyph glyph-name="Kcommaaccent" unicode="&#x136;" horiz-adv-x="616" 
d="M626 0h-168l-217 309h-39v-309h-137v770h138v-324h37l202 324h161l-251 -385zM260 -220l-47 60c65 36 51 69 51 130h132c11 -101 -33 -159 -136 -190z" />
    <glyph glyph-name="L" unicode="L" horiz-adv-x="530" 
d="M506 126v-126h-436v770h139v-644h297z" />
    <glyph glyph-name="M" unicode="M" horiz-adv-x="720" 
d="M376 182h-31l-153 310l16 -220v-272h-138v770h133l157 -341l158 341h133v-770h-138v272l16 220z" />
    <glyph glyph-name="N" unicode="N" horiz-adv-x="623" 
d="M554 769v-769h-134l-226 488l12 -292v-196h-137v769h137l226 -507l-15 325v182h137z" />
    <glyph glyph-name="Ncommaaccent" unicode="&#x145;" horiz-adv-x="623" 
d="M554 769v-769h-134l-226 488l12 -292v-196h-137v769h137l226 -507l-15 325v182h137zM240 -237l-49 64c69 38 54 73 54 138h140c12 -107 -35 -169 -145 -202z" />
    <glyph glyph-name="O" unicode="O" horiz-adv-x="641" 
d="M316 -7c-183 0 -257 71 -257 230v326c0 163 71 230 257 230s263 -67 263 -230v-326c0 -159 -80 -230 -263 -230zM316 115c100 0 125 42 125 115v312c0 70 -18 115 -125 115c-100 0 -119 -45 -119 -115v-312c0 -73 19 -115 119 -115z" />
    <glyph glyph-name="Oslashacute" unicode="&#x1fe;" horiz-adv-x="639" 
d="M439 958l-77 -123h-120l58 123h139zM316 -7c-31 0 -58 2 -83 6l-22 -61h-114l36 99c-51 37 -74 98 -74 186v326c0 163 71 230 257 230c31 0 59 -2 85 -6l25 69h115l-39 -106c53 -36 77 -97 77 -187v-326c0 -159 -80 -230 -263 -230zM316 115c100 0 125 42 125 115v312
c0 8 -1 16 -1 23l-163 -447c11 -2 24 -3 39 -3zM197 230v-17l160 441c-12 2 -26 3 -41 3c-100 0 -119 -45 -119 -115v-312z" />
    <glyph glyph-name="P" unicode="P" horiz-adv-x="579" 
d="M70 770h194c186 0 273 -67 273 -230v-71c0 -159 -90 -233 -273 -233h-53v-236h-141v770zM210 369h54c100 0 133 34 133 107v57c0 73 -24 111 -131 111h-56v-275z" />
    <glyph glyph-name="Thorn" unicode="&#xde;" horiz-adv-x="579" 
d="M70 772h140v-122h54c186 0 273 -67 273 -230v-71c0 -159 -90 -233 -273 -233h-53v-116h-141v772zM210 249h54c100 0 133 34 133 107v57c0 73 -24 111 -131 111h-56v-275z" />
    <glyph glyph-name="Q" unicode="Q" horiz-adv-x="639" 
d="M316 -2c-183 0 -257 71 -257 230v319c0 163 71 232 257 232s263 -69 263 -232v-312c0 -119 -43 -193 -132 -221c4 -52 14 -88 119 -77v-110c-161 -22 -244 42 -250 171zM316 120c100 0 125 42 125 115v305c0 73 -18 115 -125 115c-100 0 -119 -42 -119 -115v-305
c0 -73 19 -115 119 -115z" />
    <glyph glyph-name="R" unicode="R" horiz-adv-x="594" 
d="M573 0h-161l-153 271h-51v-271h-138v770h194c186 0 273 -68 273 -231v-40c0 -114 -40 -176 -133 -206zM207 398h57c100 0 128 35 128 108v26c0 73 -19 111 -126 111h-59v-245z" />
    <glyph glyph-name="Rcommaaccent" unicode="&#x156;" horiz-adv-x="594" 
d="M573 0h-161l-153 271h-51v-271h-138v770h194c186 0 273 -68 273 -231v-40c0 -114 -40 -176 -133 -206zM207 398h57c100 0 128 35 128 108v26c0 73 -19 111 -126 111h-59v-245zM239 -237l-47 62c66 38 52 72 52 136h134c12 -105 -33 -166 -139 -198z" />
    <glyph glyph-name="S" unicode="S" horiz-adv-x="604" 
d="M403 569c-4 65 -38 84 -105 84c-76 0 -107 -24 -107 -97c0 -97 77 -89 194 -107c89 -14 174 -50 174 -204c0 -178 -77 -253 -262 -253c-192 0 -253 93 -253 217h139c3 -59 29 -91 117 -91c83 0 121 35 121 122c0 91 -108 91 -190 102c-87 11 -179 54 -179 213
c0 144 88 219 246 219c139 0 231 -51 244 -205h-139z" />
    <glyph glyph-name="Scommaaccent" unicode="&#x218;" horiz-adv-x="604" 
d="M403 569c-4 65 -38 84 -105 84c-76 0 -107 -24 -107 -97c0 -97 77 -89 194 -107c89 -14 174 -50 174 -204c0 -178 -77 -253 -262 -253c-192 0 -253 93 -253 217h139c3 -59 29 -91 117 -91c83 0 121 35 121 122c0 91 -108 91 -190 102c-87 11 -179 54 -179 213
c0 144 88 219 246 219c139 0 231 -51 244 -205h-139zM240 -252l-46 63c64 39 50 73 50 138h130c11 -107 -32 -169 -134 -201z" />
    <glyph glyph-name="T" unicode="T" horiz-adv-x="472" 
d="M464 767v-123h-159v-644h-137v644h-160v123h456z" />
    <glyph glyph-name="Tbar" unicode="&#x166;" horiz-adv-x="472" 
d="M464 767v-123h-159v-227h92v-97h-92v-320h-137v320h-91v97h91v227h-160v123h456z" />
    <glyph glyph-name="U" unicode="U" horiz-adv-x="637" 
d="M433 235v534h138v-541c0 -159 -97 -235 -259 -235s-252 76 -252 235v541h138v-534c0 -73 32 -120 114 -120s121 47 121 120z" />
    <glyph glyph-name="V" unicode="V" horiz-adv-x="577" 
d="M427 769h141l-207 -770h-144l-208 770h141l67 -235l72 -360l71 362z" />
    <glyph glyph-name="W" unicode="W" horiz-adv-x="926" 
d="M461 415l-103 -416h-145l-204 771h142l76 -266l55 -314l126 555h106l136 -555l45 314l76 266h142l-193 -771h-146z" />
    <glyph glyph-name="Wacute" unicode="&#x1e82;" horiz-adv-x="926" 
d="M461 415l-103 -416h-145l-204 771h142l76 -266l55 -314l126 555h106l136 -555l45 314l76 266h142l-193 -771h-146zM594 937l-76 -136h-119l57 136h138z" />
    <glyph glyph-name="Wdieresis" unicode="&#x1e84;" horiz-adv-x="926" 
d="M257 878c0 91 147 95 147 0c0 -88 -147 -94 -147 0zM514 878c0 91 147 95 147 0c0 -88 -147 -94 -147 0zM461 415l-103 -416h-145l-204 771h142l76 -266l55 -314l126 555h106l136 -555l45 314l76 266h142l-193 -771h-146z" />
    <glyph glyph-name="Wgrave" unicode="&#x1e80;" horiz-adv-x="926" 
d="M461 415l-103 -416h-145l-204 771h142l76 -266l55 -314l126 555h106l136 -555l45 314l76 266h142l-193 -771h-146zM403 800l-76 136h138l57 -136h-119z" />
    <glyph glyph-name="X" unicode="X" horiz-adv-x="558" 
d="M23 770h150l51 -125l55 -164l54 161l52 128h150l-164 -381l178 -389h-149l-60 128l-61 167l-65 -176l-56 -119h-149l178 389z" />
    <glyph glyph-name="Y" unicode="Y" horiz-adv-x="522" 
d="M376 770h149l-194 -448v-323h-137v323l-196 448h149l60 -142l56 -165l56 169z" />
    <glyph glyph-name="Ygrave" unicode="&#x1ef2;" horiz-adv-x="522" 
d="M376 770h149l-194 -448v-323h-137v323l-196 448h149l60 -142l56 -165l56 169zM211 807l-76 136h138l57 -136h-119z" />
    <glyph glyph-name="Z" unicode="Z" horiz-adv-x="527" 
d="M56 770h458l-296 -648h279v-122h-483l301 647h-259v123z" />
    <glyph glyph-name="uni021A" unicode="&#x21a;" horiz-adv-x="472" 
d="M464 767v-123h-159v-644h-137v644h-160v123h456zM167 -252l-46 63c64 39 50 73 50 138h130c11 -107 -32 -169 -134 -201z" />
    <glyph glyph-name="a" unicode="a" horiz-adv-x="543" 
d="M355 235c-140 14 -189 -18 -189 -65c0 -39 34 -52 81 -52c80 0 102 58 108 117zM185 387h-131c-9 147 70 206 211 206c154 0 221 -77 221 -230v-363h-112l-13 68c-33 -46 -89 -76 -155 -76c-97 0 -170 56 -170 167c0 139 116 194 319 180c0 88 -17 132 -89 132
c-60 0 -82 -21 -81 -84z" />
    <glyph glyph-name="aringacute" unicode="&#x1fb;" horiz-adv-x="543" 
d="M273 918h125l-86 -84h-102v3zM355 235c-140 14 -189 -18 -189 -65c0 -39 34 -52 81 -52c80 0 102 58 108 117zM185 387h-131c-9 147 70 206 211 206c154 0 221 -77 221 -230v-363h-112l-13 68c-33 -46 -89 -76 -155 -76c-97 0 -170 56 -170 167c0 139 116 194 319 180
c0 88 -17 132 -89 132c-60 0 -82 -21 -81 -84zM146 711c0 65 56 100 117 100c63 0 118 -34 118 -99c0 -64 -55 -100 -119 -100c-65 0 -117 36 -116 99zM263 748c-55 0 -55 -73 0 -73c59 0 56 73 0 73z" />
    <glyph glyph-name="aeacute" unicode="&#x1fd;" horiz-adv-x="851" 
d="M545 778l-76 -136h-119l57 136h138zM664 181h135c0 -124 -73 -189 -228 -189c-79 0 -138 30 -166 91c-58 -82 -116 -91 -199 -91c-97 0 -170 56 -170 167c0 139 116 194 319 180v5c-1 84 -19 127 -89 127c-60 0 -80 -19 -79 -82h-131c-9 147 68 204 209 204
c72 0 125 -27 157 -81c32 53 87 80 155 80c155 0 222 -86 222 -230v-117h-320v-15c0 -95 38 -117 94 -117c65 0 91 27 91 68zM581 473c-81 0 -102 -44 -102 -115h192c0 56 -12 115 -90 115zM355 235c-140 14 -189 -18 -189 -65c0 -39 34 -52 81 -52c80 0 102 58 108 117z
" />
    <glyph glyph-name="b" unicode="b" horiz-adv-x="566" 
d="M282 -3c-150 0 -227 68 -227 231v542h137v-227c30 37 82 52 129 52c128 0 190 -81 190 -208v-158c0 -164 -80 -232 -229 -232zM285 470c-59 0 -93 -32 -93 -98v-141c0 -71 20 -112 90 -112c54 0 92 28 92 113v139c0 72 -32 98 -89 99z" />
    <glyph glyph-name="c" unicode="c" horiz-adv-x="553" 
d="M508 370h-130c0 67 -24 100 -92 100c-76 0 -98 -42 -98 -115v-128c0 -73 19 -115 91 -115s98 31 99 101h130c0 -159 -74 -223 -229 -223s-229 71 -229 233v132c0 159 78 237 233 237s225 -63 225 -222z" />
    <glyph glyph-name="d" unicode="d" horiz-adv-x="587" 
d="M510 0h-113l-10 65c-23 -42 -72 -68 -139 -68c-116 0 -194 64 -194 228v152c0 139 67 220 198 220c48 0 98 -13 121 -52v225h137v-770zM284 470c-59 0 -93 -28 -93 -99v-139c0 -85 35 -113 89 -113c68 0 93 50 93 118v135c0 71 -34 98 -89 98z" />
    <glyph glyph-name="dcaron" unicode="&#x10f;" horiz-adv-x="690" 
d="M591 775h116l-46 -181h-103zM510 0h-113l-10 65c-23 -42 -72 -68 -139 -68c-116 0 -194 64 -194 228v152c0 139 67 220 198 220c48 0 98 -13 121 -52v225h137v-770zM284 470c-59 0 -93 -28 -93 -99v-139c0 -85 35 -113 89 -113c68 0 93 50 93 118v135c0 71 -34 98 -89 98
z" />
    <glyph glyph-name="dcroat" unicode="&#x111;" horiz-adv-x="568" 
d="M313 635v77h60v58h137v-58h51v-77h-51v-635h-113l-10 65c-23 -42 -72 -68 -139 -68c-116 0 -194 64 -194 228v152c0 139 67 220 198 220c48 0 98 -13 121 -52v90h-60zM284 470c-59 0 -93 -28 -93 -99v-139c0 -85 35 -113 89 -113c68 0 93 50 93 118v135
c0 71 -34 98 -89 98z" />
    <glyph glyph-name="e" unicode="e" 
d="M376 181h135c0 -124 -74 -183 -229 -183s-229 71 -229 230v134c0 148 74 230 229 230s229 -71 229 -230v-117h-320v-15c0 -95 37 -113 93 -113c65 0 92 23 92 64zM286 473c-81 0 -95 -44 -95 -115h187c0 74 -14 115 -92 115z" />
    <glyph glyph-name="f" unicode="f" horiz-adv-x="363" 
d="M339 780v-121c-92 15 -143 -25 -143 -91v-31h127v-126h-127v-412h-137v571c0 135 98 233 280 210z" />
    <glyph glyph-name="g" unicode="g" horiz-adv-x="549" 
d="M246 -3c-123 0 -196 69 -196 221v147c0 164 76 228 192 228c67 0 111 -26 134 -68l10 65h113v-605c0 -153 -80 -226 -223 -226c-144 0 -213 62 -213 187h131c0 -46 27 -70 82 -70c72 0 95 37 95 110v71c-21 -32 -56 -60 -125 -60zM272 118c70 0 92 45 92 120v115
c0 68 -22 118 -90 118c-54 0 -87 -28 -87 -113v-123c0 -83 28 -117 85 -117z" />
    <glyph glyph-name="gcommaaccent" unicode="&#x123;" horiz-adv-x="549" 
d="M350 825l45 -59c-63 -36 -49 -68 -49 -129h-127c-11 100 31 158 131 188zM246 -3c-123 0 -196 69 -196 221v147c0 164 76 228 192 228c67 0 111 -26 134 -68l10 65h113v-605c0 -153 -80 -226 -223 -226c-144 0 -213 62 -213 187h131c0 -46 27 -70 82 -70
c72 0 95 37 95 110v71c-21 -32 -56 -60 -125 -60zM272 118c70 0 92 45 92 120v115c0 68 -22 118 -90 118c-54 0 -87 -28 -87 -113v-123c0 -83 28 -117 85 -117z" />
    <glyph glyph-name="h" unicode="h" horiz-adv-x="558" 
d="M503 0h-137v371c0 72 -29 98 -86 99c-59 0 -88 -32 -88 -98v-372h-137v770h137v-227c30 37 77 52 124 52c128 0 187 -81 187 -208v-387z" />
    <glyph glyph-name="hbar" unicode="&#x127;" horiz-adv-x="555" 
d="M2 630v76h53v64h137v-64h71v-76h-71v-87c30 37 77 52 124 52c128 0 187 -81 187 -208v-387h-137v371c0 72 -29 98 -86 99c-59 0 -88 -32 -88 -98v-372h-137v630h-53z" />
    <glyph glyph-name="i" unicode="i" horiz-adv-x="280" 
d="M208 577v-578h-137v578h137zM63 709c0 102 155 101 155 0c0 -100 -155 -101 -155 0z" />
    <glyph glyph-name="dotlessi" unicode="&#x131;" horiz-adv-x="272" 
d="M208 577v-578h-137v578h137z" />
    <glyph glyph-name="j" unicode="j" horiz-adv-x="286" 
d="M218 582v-550c0 -175 -58 -220 -217 -220v117c57 0 80 8 80 100v553h137zM73 709c0 102 155 101 155 0c0 -100 -155 -101 -155 0z" />
    <glyph glyph-name="dotlessj" unicode="&#x237;" horiz-adv-x="286" 
d="M218 582v-550c0 -175 -58 -220 -217 -220v117c57 0 80 8 80 100v553h137z" />
    <glyph glyph-name="k" unicode="k" horiz-adv-x="554" 
d="M549 0h-154l-164 256h-39v-256h-137v772h137v-392h37l146 210h154l-189 -265z" />
    <glyph glyph-name="kcommaaccent" unicode="&#x137;" horiz-adv-x="541" 
d="M549 0h-154l-164 256h-39v-256h-137v772h137v-392h37l146 210h154l-189 -265zM229 -233l-41 60c57 36 45 69 45 130h116c10 -101 -29 -160 -120 -190z" />
    <glyph glyph-name="kgreenlandic" unicode="&#x138;" horiz-adv-x="549" 
d="M549 0h-154l-164 256h-39v-256h-137v589h137v-209h37l146 207h154l-189 -262z" />
    <glyph glyph-name="l" unicode="l" horiz-adv-x="306" 
d="M70 216v555h137v-553c0 -65 12 -86 69 -86v-132c-159 0 -206 47 -206 216z" />
    <glyph glyph-name="m" unicode="m" horiz-adv-x="923" 
d="M74 0v590h119l9 -60c33 43 86 65 139 63c58 0 117 -19 145 -75c31 46 93 76 168 76c122 0 195 -71 195 -231v-363h-137v363c0 76 -31 107 -88 107c-52 0 -91 -22 -93 -106v-364h-137v363c0 76 -31 107 -88 107c-53 0 -95 -26 -95 -102v-368h-137z" />
    <glyph glyph-name="n" unicode="n" horiz-adv-x="605" 
d="M79 0v590h119l7 -60c37 44 89 64 139 64c97 1 192 -50 192 -230v-364h-136v363c0 76 -32 107 -89 107c-53 0 -95 -26 -95 -102v-368h-137z" />
    <glyph glyph-name="ncommaaccent" unicode="&#x146;" horiz-adv-x="605" 
d="M79 0v590h119l7 -60c37 44 89 64 139 64c97 1 192 -50 192 -230v-364h-136v363c0 76 -32 107 -89 107c-53 0 -95 -26 -95 -102v-368h-137zM243 -237l-44 62c61 38 48 72 48 135h124c11 -105 -31 -166 -128 -197z" />
    <glyph glyph-name="o" unicode="o" horiz-adv-x="558" 
d="M279 -10c-155 0 -229 71 -229 230v142c0 155 74 230 229 230s229 -71 229 -230v-142c0 -159 -74 -230 -229 -230zM279 112c72 0 91 42 91 115v128c0 73 -19 115 -91 115s-91 -42 -91 -115v-128c0 -73 19 -115 91 -115z" />
    <glyph glyph-name="oslashacute" unicode="&#x1ff;" horiz-adv-x="559" 
d="M400 776l-77 -123h-120l58 123h139zM279 -10c-29 0 -56 3 -79 8l-26 -58h-107l45 100c-42 37 -62 96 -62 180v142c0 155 74 230 229 230c29 0 55 -3 79 -8l28 63h108l-48 -106c42 -37 62 -96 62 -179v-142c0 -159 -74 -230 -229 -230zM188 227v-18l117 258
c-8 2 -17 3 -26 3c-72 0 -91 -42 -91 -115v-128zM279 112c72 0 91 42 91 115v128c0 6 0 12 -1 17l-116 -258c8 -1 16 -2 26 -2z" />
    <glyph glyph-name="p" unicode="p" horiz-adv-x="583" 
d="M66 590h113l10 -64c23 42 72 68 139 68c116 0 194 -64 194 -228v-152c0 -139 -67 -220 -198 -220c-48 0 -98 13 -121 52v-225h-137v769zM292 121c59 0 93 28 93 99v139c0 85 -35 113 -89 113c-68 0 -93 -50 -93 -118v-135c0 -71 34 -98 89 -98z" />
    <glyph glyph-name="thorn" unicode="&#xfe;" horiz-adv-x="583" 
d="M66 773h137v-227c26 30 69 48 125 48c116 0 194 -64 194 -228v-152c0 -139 -67 -220 -198 -220c-48 0 -98 13 -121 52v-225h-137v952zM292 121c59 0 93 28 93 99v139c0 85 -35 113 -89 113c-68 0 -93 -50 -93 -118v-135c0 -71 34 -98 89 -98z" />
    <glyph glyph-name="q" unicode="q" horiz-adv-x="568" 
d="M282 595c150 0 227 -68 227 -231v-542h-137v227c-30 -37 -82 -52 -129 -52c-128 0 -190 81 -190 208v158c0 164 80 232 229 232zM279 122c59 0 93 32 93 98v141c0 71 -20 112 -90 112c-54 0 -92 -28 -92 -113v-139c0 -72 32 -98 89 -99z" />
    <glyph glyph-name="r" unicode="r" horiz-adv-x="385" 
d="M356 593v-145c-89 12 -159 -23 -159 -111v-338h-137v591h126l6 -62c24 41 91 77 164 65z" />
    <glyph glyph-name="rcommaaccent" unicode="&#x157;" horiz-adv-x="379" 
d="M350 593v-145c-89 12 -159 -23 -159 -111v-338h-137v591h126l6 -62c24 41 91 77 164 65zM55 -223l-42 55c59 33 47 63 47 119h120c10 -92 -30 -146 -125 -174z" />
    <glyph glyph-name="s" unicode="s" horiz-adv-x="521" 
d="M483 405h-134c0 45 -35 65 -79 65c-53 0 -85 -21 -85 -62c0 -65 68 -56 147 -65s158 -56 158 -161c0 -129 -101 -185 -228 -185c-140 0 -224 71 -224 185h139c3 -41 25 -65 91 -65c55 0 83 31 83 60c0 50 -65 51 -136 60c-86 11 -169 48 -169 164c0 133 95 192 223 192
c145 0 214 -82 214 -188z" />
    <glyph glyph-name="scommaaccent" unicode="&#x219;" horiz-adv-x="521" 
d="M483 405h-134c0 45 -35 65 -79 65c-53 0 -85 -21 -85 -62c0 -65 68 -56 147 -65s158 -56 158 -161c0 -129 -101 -185 -228 -185c-140 0 -224 71 -224 185h139c3 -41 25 -65 91 -65c55 0 83 31 83 60c0 50 -65 51 -136 60c-86 11 -169 48 -169 164c0 133 95 192 223 192
c145 0 214 -82 214 -188zM212 -252l-46 63c64 39 50 73 50 138h130c11 -107 -32 -169 -134 -201z" />
    <glyph glyph-name="germandbls" unicode="&#xdf;" horiz-adv-x="537" 
d="M192 574v-574h-141v574c0 119 50 207 210 207c157 0 206 -88 206 -207c0 -54 -17 -115 -62 -147c74 -35 119 -107 119 -195c0 -167 -74 -232 -257 -232h-31v120h33c92 0 112 42 112 111c0 75 -31 107 -102 107h-37v127h1c70 0 86 67 86 109c0 54 -19 86 -70 86
c-46 0 -67 -32 -67 -86z" />
    <glyph glyph-name="longs" unicode="&#x17f;" horiz-adv-x="351" 
d="M339 780v-121c-92 15 -143 -25 -143 -91v-569h-137v571c0 135 98 233 280 210z" />
    <glyph glyph-name="t" unicode="t" horiz-adv-x="334" 
d="M64 216v476l137 15v-115h100v-125h-100v-249c0 -65 10 -109 102 -98v-120c-174 -19 -239 41 -239 216z" />
    <glyph glyph-name="tbar" unicode="&#x167;" horiz-adv-x="334" 
d="M2 275v97h62v320l137 15v-115h100v-125h-100v-95h97v-97h-97v-57c0 -65 10 -109 102 -98v-120c-174 -19 -239 41 -239 216v59h-62z" />
    <glyph glyph-name="u" unicode="u" horiz-adv-x="596" 
d="M526 591v-590h-122l-7 60c-37 -44 -89 -64 -139 -64c-97 -1 -192 50 -192 230v364h136v-363c0 -76 32 -107 89 -107c53 0 95 26 95 102v368h140z" />
    <glyph glyph-name="uni021B" unicode="&#x21b;" horiz-adv-x="334" 
d="M64 216v476l137 15v-115h100v-125h-100v-249c0 -65 10 -109 102 -98v-120c-174 -19 -239 41 -239 216zM137 -252l-46 63c64 39 50 73 50 138h130c11 -107 -32 -169 -134 -201z" />
    <glyph glyph-name="v" unicode="v" horiz-adv-x="488" 
d="M343 590h143l-181 -591h-121l-181 591h143l53 -177c20 -80 36 -173 46 -248c11 76 26 167 46 248z" />
    <glyph glyph-name="w" unicode="w" horiz-adv-x="774" 
d="M338 590h102l45 -189c19 -80 33 -158 44 -236c10 75 24 168 44 248l51 177h141l-171 -591h-131l-35 129l-41 208l-41 -210l-35 -127h-130l-173 591h142l52 -177c20 -80 33 -173 43 -248c8 54 10 114 39 238c12 50 33 113 54 187z" />
    <glyph glyph-name="wacute" unicode="&#x1e83;" horiz-adv-x="774" 
d="M338 590h102l45 -189c19 -80 33 -158 44 -236c10 75 24 168 44 248l51 177h141l-171 -591h-131l-35 129l-41 208l-41 -210l-35 -127h-130l-173 591h142l52 -177c20 -80 33 -173 43 -248c8 54 10 114 39 238c12 50 33 113 54 187zM523 782l-76 -136h-119l57 136h138z" />
    <glyph glyph-name="wdieresis" unicode="&#x1e85;" horiz-adv-x="774" 
d="M187 722c0 91 147 95 147 0c0 -88 -147 -94 -147 0zM442 722c0 91 147 95 147 0c0 -88 -147 -94 -147 0zM338 590h102l45 -189c19 -80 33 -158 44 -236c10 75 24 168 44 248l51 177h141l-171 -591h-131l-35 129l-41 208l-41 -210l-35 -127h-130l-173 591h142l52 -177
c20 -80 33 -173 43 -248c8 54 10 114 39 238c12 50 33 113 54 187z" />
    <glyph glyph-name="wgrave" unicode="&#x1e81;" horiz-adv-x="774" 
d="M337 644l-76 136h138l57 -136h-119zM338 590h102l45 -189c19 -80 33 -158 44 -236c10 75 24 168 44 248l51 177h141l-171 -591h-131l-35 129l-41 208l-41 -210l-35 -127h-130l-173 591h142l52 -177c20 -80 33 -173 43 -248c8 54 10 114 39 238c12 50 33 113 54 187z" />
    <glyph glyph-name="x" unicode="x" horiz-adv-x="527" 
d="M152 0h-143l178 300l-171 290h144l54 -91c15 -25 44 -86 50 -103c8 22 38 82 52 106l52 88h142l-171 -289l180 -301h-146l-52 88c-16 25 -47 89 -58 116c-12 -31 -46 -95 -60 -118z" />
    <glyph glyph-name="y" unicode="y" horiz-adv-x="510" 
d="M355 590h143l-175 -583h1l-32 -114c-38 -133 -117 -147 -230 -102l21 101c35 -8 72 -23 86 29l23 83l-177 586h143l53 -177c20 -80 36 -173 46 -248c11 76 26 167 46 248z" />
    <glyph glyph-name="ygrave" unicode="&#x1ef3;" horiz-adv-x="510" 
d="M355 590h143l-175 -583h1l-32 -114c-38 -133 -117 -147 -230 -102l21 101c35 -8 72 -23 86 29l23 83l-177 586h143l53 -177c20 -80 36 -173 46 -248c11 76 26 167 46 248zM200 641l-76 136h138l57 -136h-119z" />
    <glyph glyph-name="z" unicode="z" horiz-adv-x="510" 
d="M31 0v16l255 453h-229v120h433v-17l-254 -444h254v-128h-459z" />
    <glyph glyph-name="fi" unicode="&#xfb01;" horiz-adv-x="566" 
d="M501 574v-575h-137v454h-168v-454h-137v580c0 129 79 215 247 203l1 -118c-78 5 -111 -15 -111 -87v-3h305zM356 709c0 102 155 101 155 0c0 -100 -155 -101 -155 0z" />
    <glyph glyph-name="fl" unicode="&#xfb02;" horiz-adv-x="606" 
d="M317 780v-121c-92 15 -121 -25 -121 -91v-31h110v-126h-110v-412h-137v571c0 135 76 233 258 210zM372 216v555h137v-553c0 -65 12 -86 69 -86v-132c-159 0 -206 47 -206 216z" />
    <glyph glyph-name="a.alt" horiz-adv-x="563" 
d="M248 -3c-116 0 -196 64 -196 228v137c0 155 75 230 230 230s230 -71 230 -230v-362h-115l-10 65c-23 -42 -72 -68 -139 -68zM372 355c0 73 -18 115 -90 115s-90 -42 -90 -115v-123c0 -85 34 -113 88 -113c68 0 92 50 92 118v118z" />
    <glyph glyph-name="aacute.alt" horiz-adv-x="563" 
d="M248 -3c-116 0 -196 64 -196 228v137c0 155 75 230 230 230s230 -71 230 -230v-362h-115l-10 65c-23 -42 -72 -68 -139 -68zM372 355c0 73 -18 115 -90 115s-90 -42 -90 -115v-123c0 -85 34 -113 88 -113c68 0 92 50 92 118v118zM417 781l-76 -136h-119l57 136h138z" />
    <glyph glyph-name="abreve.alt" horiz-adv-x="563" 
d="M248 -3c-116 0 -196 64 -196 228v137c0 155 75 230 230 230s230 -71 230 -230v-362h-115l-10 65c-23 -42 -72 -68 -139 -68zM372 355c0 73 -18 115 -90 115s-90 -42 -90 -115v-123c0 -85 34 -113 88 -113c68 0 92 50 92 118v118zM143 773h103c0 -27 11 -46 43 -46
s42 19 42 46h104c-1 -91 -47 -134 -146 -134s-145 44 -146 134z" />
    <glyph glyph-name="acircumflex.alt" horiz-adv-x="563" 
d="M248 -3c-116 0 -196 64 -196 228v137c0 155 75 230 230 230s230 -71 230 -230v-362h-115l-10 65c-23 -42 -72 -68 -139 -68zM372 355c0 73 -18 115 -90 115s-90 -42 -90 -115v-123c0 -85 34 -113 88 -113c68 0 92 50 92 118v118zM294 678l-47 -45h-127v10l142 129h64
l141 -129v-10h-128z" />
    <glyph glyph-name="adieresis.alt" horiz-adv-x="563" 
d="M248 -3c-116 0 -196 64 -196 228v137c0 155 75 230 230 230s230 -71 230 -230v-362h-115l-10 65c-23 -42 -72 -68 -139 -68zM372 355c0 73 -18 115 -90 115s-90 -42 -90 -115v-123c0 -85 34 -113 88 -113c68 0 92 50 92 118v118zM107 713c0 94 153 99 153 0
c0 -92 -153 -98 -153 0zM325 713c0 94 153 99 153 0c0 -92 -153 -98 -153 0z" />
    <glyph glyph-name="agrave.alt" horiz-adv-x="563" 
d="M248 -3c-116 0 -196 64 -196 228v137c0 155 75 230 230 230s230 -71 230 -230v-362h-115l-10 65c-23 -42 -72 -68 -139 -68zM372 355c0 73 -18 115 -90 115s-90 -42 -90 -115v-123c0 -85 34 -113 88 -113c68 0 92 50 92 118v118zM237 643l-76 136h138l57 -136h-119z" />
    <glyph glyph-name="amacron.alt" horiz-adv-x="563" 
d="M248 -3c-116 0 -196 64 -196 228v137c0 155 75 230 230 230s230 -71 230 -230v-362h-115l-10 65c-23 -42 -72 -68 -139 -68zM372 355c0 73 -18 115 -90 115s-90 -42 -90 -115v-123c0 -85 34 -113 88 -113c68 0 92 50 92 118v118zM153 776h261v-116h-261v116z" />
    <glyph glyph-name="aogonek.alt" horiz-adv-x="565" 
d="M248 -3c-116 0 -196 64 -196 228v137c0 155 75 230 230 230s230 -71 230 -230v-362c-61 -28 -65 -70 -49 -89c6 -7 25 -19 62 -9l5 -98c-64 -9 -194 -22 -194 93c0 46 30 81 66 103l-15 65c-23 -42 -72 -68 -139 -68zM372 355c0 73 -18 115 -90 115s-90 -42 -90 -115
v-123c0 -85 34 -113 88 -113c68 0 92 50 92 118v118z" />
    <glyph glyph-name="aring.alt" horiz-adv-x="563" 
d="M248 -3c-116 0 -196 64 -196 228v137c0 155 75 230 230 230s230 -71 230 -230v-362h-115l-10 65c-23 -42 -72 -68 -139 -68zM372 355c0 73 -18 115 -90 115s-90 -42 -90 -115v-123c0 -85 34 -113 88 -113c68 0 92 50 92 118v118zM169 734c0 66 58 102 121 102
c65 0 122 -35 122 -102c0 -66 -57 -103 -123 -103c-67 0 -121 37 -120 103zM290 771c-57 0 -57 -75 0 -75c61 0 58 75 0 75z" />
    <glyph glyph-name="aringacute.alt" horiz-adv-x="563" 
d="M280 914h125l-66 -91h-103v3zM177 711v-2c0 -61 49 -97 111 -97c59 0 111 36 111 98s-56 94 -111 94c-57 0 -111 -32 -111 -93zM287 738h-1c47 0 49 -59 1 -59c-46 0 -46 59 0 59zM248 -3c-116 0 -196 64 -196 228v137c0 155 75 230 230 230s230 -71 230 -230v-362h-115
l-10 65c-23 -42 -72 -68 -139 -68zM372 355c0 73 -18 115 -90 115s-90 -42 -90 -115v-123c0 -85 34 -113 88 -113c68 0 92 50 92 118v118z" />
    <glyph glyph-name="atilde.alt" horiz-adv-x="563" 
d="M248 -3c-116 0 -196 64 -196 228v137c0 155 75 230 230 230s230 -71 230 -230v-362h-115l-10 65c-23 -42 -72 -68 -139 -68zM372 355c0 73 -18 115 -90 115s-90 -42 -90 -115v-123c0 -85 34 -113 88 -113c68 0 92 50 92 118v118zM205 644l-79 41c20 65 81 114 148 83
l48 -24c15 -7 33 -5 45 26l82 -35c-16 -66 -66 -125 -142 -94l-53 25c-10 7 -35 8 -49 -22z" />
    <glyph glyph-name="g.alt" horiz-adv-x="584" 
d="M550 599l28 -131c-31 -6 -59 -16 -81 -32c4 -22 7 -48 7 -75v-64c0 -59 -9 -116 -40 -153c42 -37 55 -88 56 -127c3 -86 -27 -218 -249 -218c-109 0 -187 56 -232 121l78 93c41 -49 86 -84 157 -84c73 0 106 28 104 88c-1 18 -11 37 -24 57c-23 -5 -51 -7 -79 -7
c-155 0 -229 71 -229 230v64c0 155 74 230 229 230c63 0 113 -12 150 -37c31 24 80 41 125 45zM275 189c72 0 91 42 91 115v50c0 73 -19 115 -91 115s-91 -42 -91 -115v-50c0 -73 19 -115 91 -115z" />
    <glyph glyph-name="gbreve.alt" horiz-adv-x="585" 
d="M550 599l28 -131c-31 -6 -59 -16 -81 -32c4 -22 7 -48 7 -75v-64c0 -59 -9 -116 -40 -153c42 -37 55 -88 56 -127c3 -86 -27 -218 -249 -218c-109 0 -187 56 -232 121l78 93c41 -49 86 -84 157 -84c73 0 106 28 104 88c-1 18 -11 37 -24 57c-23 -5 -51 -7 -79 -7
c-155 0 -229 71 -229 230v64c0 155 74 230 229 230c63 0 113 -12 150 -37c31 24 80 41 125 45zM275 189c72 0 91 42 91 115v50c0 73 -19 115 -91 115s-91 -42 -91 -115v-50c0 -73 19 -115 91 -115zM133 779h103c0 -27 11 -46 43 -46s42 19 42 46h104
c-1 -91 -47 -134 -146 -134s-145 44 -146 134z" />
    <glyph glyph-name="gcircumflex.alt" horiz-adv-x="585" 
d="M550 599l28 -131c-31 -6 -59 -16 -81 -32c4 -22 7 -48 7 -75v-64c0 -59 -9 -116 -40 -153c42 -37 55 -88 56 -127c3 -86 -27 -218 -249 -218c-109 0 -187 56 -232 121l78 93c41 -49 86 -84 157 -84c73 0 106 28 104 88c-1 18 -11 37 -24 57c-23 -5 -51 -7 -79 -7
c-155 0 -229 71 -229 230v64c0 155 74 230 229 230c63 0 113 -12 150 -37c31 24 80 41 125 45zM275 189c72 0 91 42 91 115v50c0 73 -19 115 -91 115s-91 -42 -91 -115v-50c0 -73 19 -115 91 -115zM283 682l-47 -45h-127v10l142 129h64l141 -129v-10h-128z" />
    <glyph glyph-name="gcommaaccent.alt" horiz-adv-x="585" 
d="M330 821l69 -46c-55 -47 -49 -74 -49 -134h-134c0 96 31 157 114 180zM550 599l28 -131c-31 -6 -59 -16 -81 -32c4 -22 7 -48 7 -75v-64c0 -59 -9 -116 -40 -153c42 -37 55 -88 56 -127c3 -86 -27 -218 -249 -218c-109 0 -187 56 -232 121l78 93c41 -49 86 -84 157 -84
c73 0 106 28 104 88c-1 18 -11 37 -24 57c-23 -5 -51 -7 -79 -7c-155 0 -229 71 -229 230v64c0 155 74 230 229 230c63 0 113 -12 150 -37c31 24 80 41 125 45zM275 189c72 0 91 42 91 115v50c0 73 -19 115 -91 115s-91 -42 -91 -115v-50c0 -73 19 -115 91 -115z" />
    <glyph glyph-name="gdotaccent.alt" horiz-adv-x="585" 
d="M202 719c0 100 159 100 159 0s-159 -100 -159 0zM550 599l28 -131c-31 -6 -59 -16 -81 -32c4 -22 7 -48 7 -75v-64c0 -59 -9 -116 -40 -153c42 -37 55 -88 56 -127c3 -86 -27 -218 -249 -218c-109 0 -187 56 -232 121l78 93c41 -49 86 -84 157 -84c73 0 106 28 104 88
c-1 18 -11 37 -24 57c-23 -5 -51 -7 -79 -7c-155 0 -229 71 -229 230v64c0 155 74 230 229 230c63 0 113 -12 150 -37c31 24 80 41 125 45zM275 189c72 0 91 42 91 115v50c0 73 -19 115 -91 115s-91 -42 -91 -115v-50c0 -73 19 -115 91 -115z" />
    <glyph glyph-name="y.alt" horiz-adv-x="549" 
d="M50 581h137v-346c0 -83 28 -117 85 -117c70 0 92 45 92 120v343h135v-596c0 -153 -80 -226 -223 -226c-144 0 -213 62 -213 187h131c0 -46 27 -70 82 -70c72 0 95 37 95 110v71c-21 -32 -56 -60 -125 -60c-123 0 -196 69 -196 221v363z" />
    <glyph glyph-name="yacute.alt" horiz-adv-x="549" 
d="M50 581h137v-346c0 -83 28 -117 85 -117c70 0 92 45 92 120v343h135v-596c0 -153 -80 -226 -223 -226c-144 0 -213 62 -213 187h131c0 -46 27 -70 82 -70c72 0 95 37 95 110v71c-21 -32 -56 -60 -125 -60c-123 0 -196 69 -196 221v363zM409 772l-76 -136h-119l57 136h138
z" />
    <glyph glyph-name="ycircumflex.alt" horiz-adv-x="550" 
d="M50 581h137v-346c0 -83 28 -117 85 -117c70 0 92 45 92 120v343h135v-596c0 -153 -80 -226 -223 -226c-144 0 -213 62 -213 187h131c0 -46 27 -70 82 -70c72 0 95 37 95 110v71c-21 -32 -56 -60 -125 -60c-123 0 -196 69 -196 221v363zM280 686l-47 -45h-127v10l142 129
h64l141 -129v-10h-128z" />
    <glyph glyph-name="ydieresis.alt" horiz-adv-x="548" 
d="M50 581h137v-346c0 -83 28 -117 85 -117c70 0 92 45 92 120v343h135v-596c0 -153 -80 -226 -223 -226c-144 0 -213 62 -213 187h131c0 -46 27 -70 82 -70c72 0 95 37 95 110v71c-21 -32 -56 -60 -125 -60c-123 0 -196 69 -196 221v363zM100 722c0 91 147 95 147 0
c0 -88 -147 -94 -147 0zM321 722c0 91 147 95 147 0c0 -88 -147 -94 -147 0z" />
    <glyph glyph-name="ygrave.alt" horiz-adv-x="549" 
d="M50 581h137v-346c0 -83 28 -117 85 -117c70 0 92 45 92 120v343h135v-596c0 -153 -80 -226 -223 -226c-144 0 -213 62 -213 187h131c0 -46 27 -70 82 -70c72 0 95 37 95 110v71c-21 -32 -56 -60 -125 -60c-123 0 -196 69 -196 221v363zM238 643l-76 136h138l57 -136h-119
z" />
    <glyph glyph-name="mu" unicode="&#x3bc;" horiz-adv-x="524" 
d="M36 -203v784h141v-363c0 -73 34 -103 87 -103c52 0 81 28 81 114v351h140v-580h-116l-11 40c-36 -67 -145 -70 -186 -8v-235h-136z" />
    <glyph glyph-name="zero" unicode="0" horiz-adv-x="558" 
d="M281 -2c-155 0 -229 71 -229 230v311c0 155 74 230 229 230s229 -71 229 -230v-311c0 -159 -74 -230 -229 -230zM281 120c72 0 91 42 91 115v297c0 73 -19 115 -91 115s-91 -42 -91 -115v-297c0 -73 19 -115 91 -115z" />
    <glyph glyph-name="one" unicode="1" horiz-adv-x="423" 
d="M24 0v113h125v540h-98v119h237v-659h119v-113h-383z" />
    <glyph glyph-name="two" unicode="2" horiz-adv-x="535" 
d="M49 0v158c0 327 306 217 306 412c0 54 -25 83 -80 83c-58 0 -84 -18 -84 -108h-138c0 154 64 230 223 230c152 0 217 -88 217 -203c0 -329 -306 -176 -306 -411v-25h295v-136h-433z" />
    <glyph glyph-name="three" unicode="3" horiz-adv-x="536" 
d="M36 243h134c0 -70 26 -116 86 -116c62 0 95 27 95 107c0 69 -7 146 -101 146h-74v45l118 223h-244v124h439v-14l-145 -286c122 -14 147 -128 147 -237c0 -148 -79 -240 -234 -240c-158 0 -221 95 -221 248z" />
    <glyph glyph-name="four" unicode="4" horiz-adv-x="567" 
d="M302 155h-288l-16 96l304 521h133v-492h74v-125h-74v-155h-133v155zM302 280v114l15 170l-153 -284h138z" />
    <glyph glyph-name="five" unicode="5" horiz-adv-x="540" 
d="M40 259h137c3 -97 22 -139 94 -139s91 42 91 115v48c0 73 -17 112 -89 112h-228v374h420v-130h-289v-119h97c155 0 227 -71 227 -230v-62c0 -159 -74 -230 -229 -230s-229 68 -231 261z" />
    <glyph glyph-name="six" unicode="6" horiz-adv-x="562" 
d="M451 770l4 -14c-95 -52 -166 -140 -197 -195c14 1 36 1 49 1c122 0 202 -65 202 -212v-130c0 -164 -64 -229 -227 -229c-164 0 -227 65 -227 229v130c0 179 102 335 230 420h166zM282 122c61 0 88 20 88 98v130c0 70 -27 88 -88 88s-88 -18 -88 -88v-130
c0 -78 27 -98 88 -98z" />
    <glyph glyph-name="seven" unicode="7" horiz-adv-x="468" 
d="M447 769v-47l-246 -722h-148l220 639h-260v130h434z" />
    <glyph glyph-name="eight" unicode="8" horiz-adv-x="548" 
d="M269 -10c-155 0 -229 71 -229 230v54c0 75 22 122 80 157c-51 34 -69 99 -69 145c0 109 64 198 219 198s219 -89 219 -198c0 -49 -25 -117 -66 -145c49 -39 75 -82 75 -157v-54c0 -159 -74 -230 -229 -230zM269 112c72 0 91 42 91 115v40c0 71 -19 110 -91 110
s-91 -37 -91 -110v-40c0 -73 19 -115 91 -115zM270 486h7c47 2 74 44 74 87c0 47 -29 79 -81 79s-81 -32 -81 -79c0 -45 29 -87 81 -87z" />
    <glyph glyph-name="nine" unicode="9" horiz-adv-x="562" 
d="M113 0l-4 14c95 52 166 140 197 195c-14 -1 -36 -1 -49 -1c-122 0 -202 65 -202 212v130c0 164 64 229 227 229c164 0 227 -65 227 -229v-130c0 -179 -102 -335 -230 -420h-166zM282 648c-61 0 -88 -20 -88 -98v-130c0 -70 27 -88 88 -88s88 18 88 88v130
c0 78 -27 98 -88 98z" />
    <glyph glyph-name="fraction" unicode="&#x2044;" horiz-adv-x="126" 
d="M-170 -3l344 778h126l-344 -778h-126z" />
    <glyph glyph-name="onehalf" unicode="&#xbd;" horiz-adv-x="786" 
d="M135 -2l365 768h109l-367 -768h-107zM44 344v86h61v250h-46v85h140v-335h57v-86h-212zM485 2v96c0 87 61 124 109 148c24 12 48 34 48 58s-10 32 -30 32c-18 0 -32 -11 -29 -48h-94c-7 104 48 139 125 139c75 0 126 -40 126 -121c0 -79 -50 -117 -106 -142
c-25 -13 -48 -15 -48 -68h151v-94h-252z" />
    <glyph glyph-name="onequarter" unicode="&#xbc;" horiz-adv-x="757" 
d="M135 -2l365 768h109l-367 -768h-107zM574 79h-160l-11 66l165 268h102v-242h45v-92h-45v-79h-96v79zM578 171v65l5 56l-66 -121h61zM44 344v86h61v250h-46v85h140v-335h57v-86h-212z" />
    <glyph glyph-name="threequarters" unicode="&#xbe;" horiz-adv-x="805" 
d="M178 -2l365 768h109l-367 -768h-107zM617 79h-160l-11 66l165 268h102v-242h45v-92h-45v-79h-96v79zM621 171v65l5 56l-66 -121h61zM47 479h98c1 -39 17 -46 37 -46s36 11 36 43s-18 41 -36 41h-34v92h33c14 0 30 8 30 38c0 19 -12 30 -29 30s-30 -7 -30 -36h-97
c0 85 44 128 130 129c71 0 127 -36 127 -123c0 -23 -13 -64 -44 -80c38 -19 53 -46 53 -91c0 -85 -51 -138 -140 -138c-93 0 -134 41 -134 141z" />
    <glyph glyph-name="ordfeminine" unicode="&#xaa;" horiz-adv-x="449" 
d="M50 300h345v-102h-345v102zM396 593v-238h-91l-5 32c-21 -20 -51 -33 -94 -33c-114 0 -171 57 -171 167v72c0 126 78 173 182 173c113 0 179 -50 179 -173zM292 593c0 64 -33 77 -75 77c-48 0 -77 -24 -77 -77v-64c0 -58 24 -76 66 -76c53 0 86 19 86 99v41z" />
    <glyph glyph-name="ordmasculine" unicode="&#xba;" horiz-adv-x="437" 
d="M213 419c-98 0 -178 63 -178 175c0 111 79 174 177 174c99 0 177 -63 177 -173c0 -111 -79 -176 -176 -176zM213 512c46 0 78 33 78 82c0 50 -35 85 -79 85c-43 0 -76 -35 -76 -84s30 -83 77 -83zM53 376h321v-99h-321v99z" />
    <glyph glyph-name="onesuperior" unicode="&#xb9;" horiz-adv-x="265" 
d="M22 351v85h64v252h-52v84h146v-336h60v-85h-218z" />
    <glyph glyph-name="twosuperior" unicode="&#xb2;" horiz-adv-x="317" 
d="M26 346v96c0 87 61 124 109 148c24 12 48 34 48 58s-10 32 -30 32c-18 0 -32 -11 -29 -48h-94c-7 104 48 139 125 139c75 0 126 -40 126 -121c0 -79 -50 -117 -106 -142c-25 -13 -48 -12 -48 -65h145v-97h-246z" />
    <glyph glyph-name="threesuperior" unicode="&#xb3;" horiz-adv-x="312" 
d="M12 479h98c1 -39 17 -46 37 -46s36 11 36 43s-18 41 -36 41h-34v92h33c14 0 30 8 30 38c0 19 -12 30 -29 30s-30 -7 -30 -36h-97c0 85 44 128 130 129c71 0 127 -36 127 -123c0 -23 -13 -64 -44 -80c38 -19 53 -46 53 -91c0 -85 -51 -138 -140 -138
c-93 0 -134 41 -134 141z" />
    <glyph glyph-name="asterisk" unicode="*" horiz-adv-x="351" 
d="M331 574l-87 -87c-24 23 -41 52 -51 83c-8 1 -16 2 -25 1c-10 -32 -27 -60 -51 -84l-87 87c24 24 51 42 82 51c2 8 2 16 2 24c-33 11 -61 28 -85 52l88 88c24 -24 41 -52 51 -84h24c10 32 28 59 52 83l87 -87c-23 -23 -51 -41 -83 -51c-1 -8 -1 -16 -1 -24
c32 -10 60 -27 84 -52z" />
    <glyph glyph-name="backslash" unicode="\" horiz-adv-x="445" 
d="M187 769l220 -770h-141l-221 770h142z" />
    <glyph glyph-name="bullet" unicode="&#x2022;" horiz-adv-x="393" 
d="M197 229c-61 0 -106 42 -106 104s45 104 106 104c59 0 104 -42 104 -105c0 -62 -45 -103 -104 -103z" />
    <glyph glyph-name="colon" unicode=":" horiz-adv-x="249" 
d="M50 72c0 102 155 101 155 0c0 -100 -155 -101 -155 0zM50 414c0 102 155 101 155 0c0 -100 -155 -101 -155 0z" />
    <glyph glyph-name="comma" unicode="," horiz-adv-x="209" 
d="M41 -164l-41 69c57 42 45 80 45 151h116c10 -117 -29 -185 -120 -220z" />
    <glyph glyph-name="exclam" unicode="!" horiz-adv-x="268" 
d="M212 770l-10 -574h-126v574h136zM60 72c0 102 155 101 155 0c0 -100 -155 -101 -155 0z" />
    <glyph glyph-name="numbersign" unicode="#" horiz-adv-x="701" 
d="M84 458l23 107h100l41 198h113l-41 -198h145l41 198h113l-41 -198h98l-23 -107h-98l-29 -144h98l-23 -107h-97l-42 -207h-114l42 207h-145l-42 -207h-113l42 207h-100l23 107h100l29 144h-100zM297 458l-29 -144h145l29 144h-145z" />
    <glyph glyph-name="period" unicode="." horiz-adv-x="241" 
d="M50 72c0 102 155 101 155 0c0 -100 -155 -101 -155 0z" />
    <glyph glyph-name="periodcentered" unicode="&#xb7;" horiz-adv-x="213" 
d="M22 328c0 107 170 112 170 0c0 -105 -170 -113 -170 0z" />
    <glyph glyph-name="question" unicode="?" horiz-adv-x="534" 
d="M167 573h-137c0 172 111 217 225 219c126 0 229 -62 229 -224v-60c0 -216 -173 -167 -173 -310h-138c0 196 175 182 175 306v63c0 55 -22 99 -91 99c-54 0 -90 -24 -90 -93zM165 72c0 102 155 101 155 0c0 -100 -155 -101 -155 0z" />
    <glyph glyph-name="quotedbl" unicode="&#x22;" horiz-adv-x="350" 
d="M147 542h-108l-4 227h116zM322 542h-108l-4 227h116z" />
    <glyph glyph-name="quotesingle" unicode="'" horiz-adv-x="184" 
d="M147 542h-108l-4 227h116z" />
    <glyph glyph-name="semicolon" unicode=";" horiz-adv-x="262" 
d="M56 414c0 102 155 101 155 0c0 -100 -155 -101 -155 0zM70 -164l-56 70c57 42 49 79 49 150h129c10 -117 -31 -185 -122 -220z" />
    <glyph glyph-name="slash" unicode="/" horiz-adv-x="431" 
d="M260 770h128l-221 -771h-127z" />
    <glyph glyph-name="underscore" unicode="_" horiz-adv-x="524" 
d="M491 134v-137h-456v137h456z" />
    <glyph glyph-name="braceleft" unicode="{" horiz-adv-x="320" 
d="M89 242c0 33 -9 70 -69 70v106c60 0 69 38 69 70v166c-10 142 95 188 214 157v-104c-48 6 -90 22 -90 -56v-163c0 -47 3 -92 -34 -122c38 -29 35 -77 35 -123v-199c0 -74 42 -62 90 -56v-104c-119 -31 -215 1 -215 157v201z" />
    <glyph glyph-name="braceright" unicode="}" horiz-adv-x="337" 
d="M242 242v-201c0 -156 -96 -188 -215 -157v104c48 -6 90 -18 90 56v199c0 46 -3 94 35 123c-37 30 -34 75 -34 122v163c0 78 -42 62 -90 56v104c119 31 224 -15 214 -157v-166c0 -32 9 -70 69 -70v-106c-60 0 -69 -37 -69 -70z" />
    <glyph glyph-name="bracketleft" unicode="[" horiz-adv-x="368" 
d="M335 -14v-134h-244v939h244v-134h-109v-671h109z" />
    <glyph glyph-name="bracketright" unicode="]" horiz-adv-x="377" 
d="M286 791v-939h-244v134h108v671h-108v134h244z" />
    <glyph glyph-name="parenleft" unicode="(" horiz-adv-x="303" 
d="M196 21c0 -57 21 -92 84 -89v-139c-157 -4 -222 91 -222 226v544c0 135 65 230 222 226v-139c-63 3 -84 -32 -84 -89v-540z" />
    <glyph glyph-name="parenright" unicode=")" horiz-adv-x="312" 
d="M115 21v540c0 57 -21 92 -84 89v139c157 4 222 -91 222 -226v-544c0 -135 -65 -230 -222 -226v139c63 -3 84 32 84 89z" />
    <glyph glyph-name="emdash" unicode="&#x2014;" horiz-adv-x="712" 
d="M635 397v-115h-558v115h558z" />
    <glyph glyph-name="endash" unicode="&#x2013;" horiz-adv-x="613" 
d="M536 397v-115h-459v115h459z" />
    <glyph glyph-name="hyphen" unicode="-" horiz-adv-x="528" 
d="M472 397v-115h-411v115h411z" />
    <glyph glyph-name="guillemotleft" unicode="&#xab;" horiz-adv-x="516" 
d="M21 332l141 225h137l-140 -226l140 -225h-137zM210 332l141 225h137l-140 -226l140 -225h-137z" />
    <glyph glyph-name="guillemotright" unicode="&#xbb;" horiz-adv-x="516" 
d="M352 557l141 -225l-141 -226h-137l140 225l-140 226h137zM163 557l141 -225l-141 -226h-137l140 225l-140 226h137z" />
    <glyph glyph-name="guilsinglleft" unicode="&#x2039;" horiz-adv-x="378" 
d="M49 332l141 225h137l-140 -226l140 -225h-137z" />
    <glyph glyph-name="guilsinglright" unicode="&#x203a;" horiz-adv-x="380" 
d="M190 557l141 -225l-141 -226h-137l140 225l-140 226h137z" />
    <glyph glyph-name="quotedblbase" unicode="&#x201e;" horiz-adv-x="353" 
d="M39 -164l-41 69c57 42 45 80 45 151h116c10 -117 -29 -185 -120 -220zM217 -164l-41 69c57 42 45 80 45 151h116c10 -117 -29 -185 -120 -220z" />
    <glyph glyph-name="quotedblleft" unicode="&#x201c;" horiz-adv-x="441" 
d="M389 771l-43 -190h-128l60 190h111zM216 771l-43 -190h-128l61 190h110z" />
    <glyph glyph-name="quotedblright" unicode="&#x201d;" horiz-adv-x="451" 
d="M63 581l43 190h128l-60 -190h-111zM236 581l43 190h128l-61 -190h-110z" />
    <glyph glyph-name="quoteleft" unicode="&#x2018;" horiz-adv-x="293" 
d="M241 772l-46 -191h-136l64 191h118z" />
    <glyph glyph-name="quoteright" unicode="&#x2019;" horiz-adv-x="287" 
d="M61 580l46 191h136l-64 -191h-118z" />
    <glyph glyph-name="quotesinglbase" unicode="&#x201a;" horiz-adv-x="196" 
d="M39 -164l-41 69c57 42 45 80 45 151h116c10 -117 -29 -185 -120 -220z" />
    <glyph glyph-name="A" unicode="A" horiz-adv-x="578" 
d="M359 769l210 -769h-142l-39 136h-197l-40 -136h-142l213 769h137zM225 271h128l-64 285z" />
    <glyph glyph-name="florin" unicode="&#x192;" horiz-adv-x="413" 
d="M138 552v22c0 156 85 217 257 206v-122c-93 11 -120 -20 -120 -86v-20h113v-126h-113v-412c0 -152 -68 -232 -245 -221v118c89 0 108 21 108 102v414h-94v125h94z" />
    <glyph glyph-name="Euro" unicode="&#x20ac;" horiz-adv-x="528" 
d="M450 143l59 -109c-34 -20 -81 -37 -128 -37h-60c-125 0 -228 74 -228 202v78h-66v79h66v51h-66v79h66v87c0 115 112 199 228 199h60c47 0 89 -11 123 -32l-62 -109c-41 18 -37 16 -121 16c-52 0 -91 -23 -91 -91v-70h200v-79h-200v-51h200v-79h-200v-55
c0 -53 39 -99 91 -99h60c22 0 46 4 69 20z" />
    <glyph glyph-name="cent" unicode="&#xa2;" horiz-adv-x="538" 
d="M503 362h-133c0 67 -24 108 -92 108c-76 0 -95 -42 -95 -115v-128c0 -73 19 -115 91 -115s95 41 96 108h133c0 -131 -54 -202 -157 -223v-79h-140v78c-107 20 -161 91 -161 224v142c0 126 55 202 162 223v86h140v-86c103 -22 156 -93 156 -223z" />
    <glyph glyph-name="dollar" unicode="$" horiz-adv-x="589" 
d="M243 -109v104c-150 16 -199 102 -199 214h139c3 -59 29 -91 117 -91c83 0 121 35 121 122c0 91 -108 91 -190 102c-87 11 -179 54 -179 213c0 126 67 199 191 215v108h123v-109c100 -16 165 -73 176 -200h-139c-4 65 -38 84 -105 84c-76 0 -107 -24 -107 -97
c0 -97 77 -89 194 -107c89 -14 174 -50 174 -204s-58 -231 -193 -249v-105h-123z" />
    <glyph glyph-name="sterling" unicode="&#xa3;" horiz-adv-x="541" 
d="M506 552h-124c0 69 -37 82 -72 82c-39 0 -71 -26 -71 -81v-115h175v-125h-175v-189h269v-124h-491v125h88v188h-88v125h88v112c0 132 72 213 205 213c115 0 199 -53 196 -211z" />
    <glyph glyph-name="yen" unicode="&#xa5;" horiz-adv-x="513" 
d="M370 770h149l-152 -350h66v-110h-108v-41h108v-110h-108v-160h-137v160h-109v110h109v41h-109v110h66l-153 350h149l60 -142l56 -165l56 169z" />
    <glyph glyph-name="asciitilde" unicode="~" horiz-adv-x="646" 
d="M470 386l100 -39c-30 -84 -82 -138 -148 -138c-24 0 -47 5 -72 16l-118 59c-10 4 -19 5 -29 5c-16 0 -35 -16 -55 -68l-95 40c28 84 88 140 155 140c21 0 44 -5 66 -16h-1l117 -57c9 -5 18 -7 27 -7c17 0 34 21 53 65z" />
    <glyph glyph-name="divide" unicode="&#xf7;" horiz-adv-x="472" 
d="M156 490c0 46 35 70 72 70c36 0 73 -24 73 -70s-37 -70 -73 -70c-37 0 -72 24 -72 70zM25 265h408v115h-408v-115zM156 154c0 46 35 70 72 70c36 0 73 -24 73 -70c0 -47 -37 -71 -73 -71c-37 0 -72 24 -72 71z" />
    <glyph glyph-name="equal" unicode="=" horiz-adv-x="556" 
d="M478 503v-120h-400v120h400zM478 287v-120h-400v120h400z" />
    <glyph glyph-name="greater" unicode="&#x3e;" horiz-adv-x="421" 
d="M371 354v-47l-226 -210l-83 84l162 148c-51 48 -113 108 -160 153l81 86z" />
    <glyph glyph-name="less" unicode="&#x3c;" horiz-adv-x="420" 
d="M276 570l81 -87l-161 -149c51 -47 116 -104 164 -148l-84 -87l-226 211v48z" />
    <glyph glyph-name="logicalnot" unicode="&#xac;" horiz-adv-x="501" 
d="M446 174h-119v111h-270v116h389v-227z" />
    <glyph glyph-name="multiply" unicode="&#xd7;" horiz-adv-x="454" 
d="M125 504l102 -103l102 101l80 -79l-105 -104l109 -107l-87 -82l-104 105l-101 -102l-83 78l104 105l-106 104z" />
    <glyph glyph-name="percent" unicode="%" horiz-adv-x="827" 
d="M639 0c-99 0 -146 46 -146 148v86c0 100 47 148 146 148c101 0 148 -46 148 -148v-86c0 -102 -47 -148 -148 -148zM639 107c35 0 44 20 44 56v57c0 36 -9 55 -44 55c-34 0 -43 -19 -43 -55v-57c0 -36 9 -56 43 -56zM176 395c-99 0 -146 46 -146 148v86
c0 100 47 148 146 148c101 0 148 -46 148 -148v-86c0 -102 -47 -148 -148 -148zM176 502c35 0 44 20 44 56v57c0 36 -9 55 -44 55c-34 0 -43 -19 -43 -55v-57c0 -36 9 -56 43 -56zM452 784l135 -13l-224 -785l-134 14z" />
    <glyph glyph-name="perthousand" unicode="&#x2030;" horiz-adv-x="1163" 
d="M639 0c-99 0 -146 46 -146 148v86c0 100 47 148 146 148c101 0 148 -46 148 -148v-86c0 -102 -47 -148 -148 -148zM639 107c35 0 44 20 44 56v57c0 36 -9 55 -44 55c-34 0 -43 -19 -43 -55v-57c0 -36 9 -56 43 -56zM176 395c-99 0 -146 46 -146 148v86
c0 100 47 148 146 148c101 0 148 -46 148 -148v-86c0 -102 -47 -148 -148 -148zM176 502c35 0 44 20 44 56v57c0 36 -9 55 -44 55c-34 0 -43 -19 -43 -55v-57c0 -36 9 -56 43 -56zM983 0c-99 0 -146 46 -146 148v86c0 100 47 148 146 148c101 0 148 -46 148 -148v-86
c0 -102 -47 -148 -148 -148zM983 107c35 0 44 20 44 56v57c0 36 -9 55 -44 55c-34 0 -43 -19 -43 -55v-57c0 -36 9 -56 43 -56zM446 784l135 -13l-224 -785l-134 14z" />
    <glyph glyph-name="plus" unicode="+" horiz-adv-x="482" 
d="M444 430v-114h-144v-148h-123v148h-144v114h144v149h123v-149h144z" />
    <glyph glyph-name="plusminus" unicode="&#xb1;" horiz-adv-x="497" 
d="M51 116h401v-120h-401v120zM460 436v-114h-144v-148h-123v148h-144v114h144v149h123v-149h144z" />
    <glyph glyph-name="ampersand" unicode="&#x26;" horiz-adv-x="656" 
d="M626 118l1 -132c-83 3 -131 34 -151 95c-30 -65 -113 -97 -175 -97c-154 0 -249 72 -249 239c0 79 51 157 130 189c-66 29 -94 86 -94 158c0 120 101 216 230 216c145 0 224 -79 220 -208h-133c2 62 -39 80 -87 80c-52 0 -90 -41 -90 -90s39 -94 90 -94h304v-122h-79
v-137c0 -51 15 -96 83 -97zM408 217v135h-91c-75 0 -124 -55 -124 -124c-1 -76 47 -115 110 -115c53 0 105 34 105 104z" />
    <glyph glyph-name="at" unicode="@" horiz-adv-x="798" 
d="M397 298c27 0 39 18 39 52v100h-40c-27 0 -40 -16 -40 -42v-64c0 -29 13 -46 41 -46zM479 631h-160c-100 0 -119 -42 -119 -115v-280c0 -73 19 -115 119 -115h180v-122h-180c-183 0 -257 71 -257 230v294c0 163 71 230 257 230h160c186 0 263 -67 263 -230v-182
c0 -136 -67 -168 -161 -168c-66 0 -98 33 -110 61c-18 -19 -41 -44 -95 -44c-76 0 -122 43 -122 124v120c0 81 69 123 142 123h141v-213c0 -37 0 -69 34 -69c29 0 33 24 33 67v184c0 73 -18 105 -125 105z" />
    <glyph glyph-name="bar" unicode="|" horiz-adv-x="275" 
d="M68 -188v960h139v-960h-139z" />
    <glyph glyph-name="brokenbar" unicode="&#xa6;" horiz-adv-x="206" 
d="M39 408v363h133v-363h-133zM172 337v-388h-133v388h133z" />
    <glyph glyph-name="copyright" unicode="&#xa9;" horiz-adv-x="842" 
d="M429 734l-16 -1c235 2 357 -168 357 -354c0 -199 -117 -368 -357 -368s-361 159 -361 361c0 182 125 365 377 362zM413 644c-177 0 -264 -117 -264 -274c0 -153 87 -272 264 -272c176 0 260 117 260 280c0 153 -90 266 -260 266zM475 325h95c-1 -122 -47 -167 -158 -167
c-112 0 -163 48 -163 163v109c0 112 65 157 163 157c95 0 155 -44 159 -160l-96 -1c-2 60 -24 71 -63 71c-42 0 -65 -10 -65 -67v-109c0 -59 23 -73 65 -73s63 11 63 77z" />
    <glyph glyph-name="dagger" unicode="&#x2020;" horiz-adv-x="515" 
d="M176 385v239h139v-239h167v-138h-167v-413h-139v413h-150v138h150z" />
    <glyph glyph-name="daggerdbl" unicode="&#x2021;" horiz-adv-x="539" 
d="M487 285v-136h-158v-319h-139v319h-159v136h159v99h-159v136h159v249h36h103v-249h158v-136h-158v-99h158z" />
    <glyph glyph-name="paragraph" unicode="&#xb6;" horiz-adv-x="692" 
d="M341 638v-830h-141v431c-148 20 -181 151 -180 268c1 131 51 265 229 265h415v-134h-80v-830h-139v830h-104z" />
    <glyph glyph-name="registered" unicode="&#xae;" horiz-adv-x="838" 
d="M411 723c237 0 368 -169 368 -372c0 -202 -131 -372 -368 -372c-235 0 -368 170 -368 372c0 203 133 372 368 372zM411 635c-170 0 -264 -124 -265 -282c0 -158 95 -283 265 -283s266 125 266 282c0 158 -96 283 -266 283zM578 151h-111l-60 121h-34v-122h-95v414h140
c84 0 151 -26 151 -138v-8c0 -68 -19 -110 -72 -128zM418 474h-45v-114h45c36 0 53 11 53 58v8c0 44 -17 46 -53 48z" />
    <glyph glyph-name="section" unicode="&#xa7;" horiz-adv-x="522" 
d="M489 51c0 -138 -101 -192 -228 -192c-140 0 -228 77 -228 204h139c0 -52 34 -81 100 -81c55 0 78 28 78 57c0 58 -41 76 -148 80c-85 3 -169 43 -169 156c0 49 32 95 70 118c-32 14 -70 53 -70 105c0 133 99 201 225 201c141 0 226 -75 226 -193h-139c0 53 -25 71 -85 71
c-52 0 -88 -20 -88 -62c0 -62 58 -65 146 -70c86 -4 171 -40 171 -154c0 -55 -34 -92 -86 -117c47 -25 86 -63 86 -123zM174 282c0 -79 176 -83 176 -3c0 74 -176 79 -176 3z" />
    <glyph glyph-name="trademark" unicode="&#x2122;" horiz-adv-x="531" 
d="M214 773v-67h-60v-256h-69v256h-60v67h189zM241 449v325h72l56 -107l50 107h76v-325h-69v111l1 59l-46 -115h-24l-48 114c1 -11 1 -48 1 -58v-111h-69z" />
    <glyph glyph-name="asciicircum" unicode="^" horiz-adv-x="645" 
d="M186 428h-131l-1 6l219 329h78l225 -329v-6h-139l-125 196z" />
    <glyph glyph-name="acute" unicode="&#xb4;" horiz-adv-x="245" 
d="M229 761l-76 -136h-119l57 136h138z" />
    <glyph glyph-name="breve" unicode="&#x2d8;" horiz-adv-x="328" 
d="M20 773h103c0 -27 11 -46 43 -46s42 19 42 46h104c-1 -91 -47 -134 -146 -134s-145 44 -146 134z" />
    <glyph glyph-name="caron" unicode="&#x2c7;" horiz-adv-x="383" 
d="M184 726l47 45h127v-10l-142 -129h-64l-141 129v10h128z" />
    <glyph glyph-name="cedilla" unicode="&#xb8;" horiz-adv-x="294" 
d="M54 -51l33 108h104l-19 -58c85 -6 104 -68 90 -128c-28 -118 -197 -138 -273 -50l45 70c24 -25 99 -45 115 3c7 31 -38 53 -95 55z" />
    <glyph glyph-name="circumflex" unicode="&#x2c6;" horiz-adv-x="355" 
d="M186 678l-47 -45h-127v10l142 129h64l141 -129v-10h-128z" />
    <glyph glyph-name="dieresis" unicode="&#xa8;" horiz-adv-x="445" 
d="M46 722c0 91 147 95 147 0c0 -88 -147 -94 -147 0zM267 722c0 91 147 95 147 0c0 -88 -147 -94 -147 0z" />
    <glyph glyph-name="dotaccent" unicode="&#x2d9;" horiz-adv-x="237" 
d="M40 718c0 93 146 96 146 0c0 -91 -146 -97 -146 0z" />
    <glyph glyph-name="grave" unicode="`" horiz-adv-x="245" 
d="M76 625l-76 136h138l57 -136h-119z" />
    <glyph glyph-name="hungarumlaut" unicode="&#x2dd;" horiz-adv-x="369" 
d="M43 661l65 114h120v-2l-79 -112h-106zM206 660l65 115h120v-2l-78 -113h-107z" />
    <glyph glyph-name="macron" unicode="&#xaf;" horiz-adv-x="385" 
d="M67 775h254v-116h-254v116z" />
    <glyph glyph-name="ogonek" unicode="&#x2db;" horiz-adv-x="403" 
d="M206 25h95c-57 -36 -67 -78 -50 -98c6 -7 25 -19 62 -9l5 -98c-64 -9 -194 -22 -194 93c0 52 40 90 82 112z" />
    <glyph glyph-name="ring" unicode="&#x2da;" horiz-adv-x="320" 
d="M42 673c0 77 58 118 121 118c65 0 122 -40 122 -117c0 -76 -57 -119 -123 -119c-67 0 -121 43 -120 118zM163 716c-57 0 -57 -86 0 -86c61 0 58 86 0 86z" />
    <glyph glyph-name="tilde" unicode="&#x2dc;" horiz-adv-x="412" 
d="M121 642l-81 42c20 65 83 114 151 83l49 -24c15 -7 34 -5 46 26l84 -35c-17 -66 -68 -126 -145 -95l-54 26c-11 7 -36 8 -50 -23z" />
    <glyph glyph-name="_0004" horiz-adv-x="0" 
 />
    <glyph glyph-name="eth" unicode="&#xf0;" horiz-adv-x="546" 
d="M180 581l-33 54l62 36c-31 32 -67 62 -108 85l4 14h166c16 -11 32 -23 47 -36l65 38l34 -54l-52 -30c80 -91 136 -215 136 -347v-121c0 -164 -63 -229 -227 -229c-163 0 -227 65 -227 229v121c0 147 80 212 202 212c13 0 35 0 49 -1c-11 19 -27 44 -47 70zM274 122
c61 0 88 20 88 98v121c0 70 -27 88 -88 88s-88 -18 -88 -88v-121c0 -78 27 -98 88 -98z" />
    <glyph glyph-name="currency" unicode="&#xa4;" horiz-adv-x="540" 
d="M261 219c55 0 85 42 85 97c0 58 -30 98 -85 98c-54 0 -84 -49 -84 -98s30 -97 84 -97zM179 118l-57 -61l-94 103l51 57c-12 30 -19 64 -19 97c0 35 7 68 21 100c-16 18 -40 43 -52 56l93 106l56 -62c26 12 53 19 84 19c30 0 59 -8 84 -19c18 20 43 47 56 62l94 -107
l-51 -54c15 -31 20 -64 20 -99s-7 -68 -21 -99l52 -56l-95 -104l-55 61c-25 -11 -56 -18 -85 -18c-31 0 -56 6 -82 18z" />
    <glyph glyph-name="degree" unicode="&#xb0;" horiz-adv-x="326" 
d="M156 705c-73 0 -77 -109 0 -109c73 0 72 109 0 109zM157 784c182 0 185 -266 1 -266c-192 0 -184 266 -1 266z" />
    <glyph glyph-name="_181" unicode="&#xb5;" horiz-adv-x="524" 
d="M36 -203v784h141v-363c0 -73 34 -103 87 -103c52 0 81 28 81 114v351h140v-580h-116l-11 40c-36 -67 -145 -70 -186 -8v-235h-136z" />
    <glyph glyph-name="uni00AD" unicode="&#xad;" horiz-adv-x="552" 
d="M484 397v-115h-411v115h411z" />
    <glyph glyph-name="ellipsis" unicode="&#x2026;" horiz-adv-x="722" 
d="M32 72c0 102 155 101 155 0c0 -100 -155 -101 -155 0zM273 72c0 102 155 101 155 0c0 -100 -155 -101 -155 0zM512 72c0 102 155 101 155 0c0 -100 -155 -101 -155 0z" />
    <glyph glyph-name="Adieresis" unicode="&#xc4;" horiz-adv-x="578" 
d="M359 769l210 -769h-142l-39 136h-197l-40 -136h-142l213 769h137zM225 271h128l-64 285zM99 880c0 91 147 95 147 0c0 -88 -147 -94 -147 0zM320 880c0 91 147 95 147 0c0 -88 -147 -94 -147 0z" />
    <glyph glyph-name="Atilde" unicode="&#xc3;" horiz-adv-x="578" 
d="M359 769l210 -769h-142l-39 136h-197l-40 -136h-142l213 769h137zM225 271h128l-64 285zM210 821l-81 42c20 65 83 114 151 83l49 -24c15 -7 34 -5 46 26l84 -35c-17 -66 -68 -126 -145 -95l-54 26c-11 7 -36 8 -50 -23z" />
    <glyph glyph-name="Acircumflex" unicode="&#xc2;" horiz-adv-x="578" 
d="M359 769l210 -769h-142l-39 136h-197l-40 -136h-142l213 769h137zM225 271h128l-64 285zM285 863l-47 -45h-127v10l142 129h64l141 -129v-10h-128z" />
    <glyph glyph-name="Aacute" unicode="&#xc1;" horiz-adv-x="578" 
d="M359 769l210 -769h-142l-39 136h-197l-40 -136h-142l213 769h137zM225 271h128l-64 285zM418 949l-76 -136h-119l57 136h138z" />
    <glyph glyph-name="Agrave" unicode="&#xc0;" horiz-adv-x="578" 
d="M359 769l210 -769h-142l-39 136h-197l-40 -136h-142l213 769h137zM225 271h128l-64 285zM226 812l-76 136h138l57 -136h-119z" />
    <glyph glyph-name="Edieresis" unicode="&#xcb;" 
d="M70 770h443v-120h-305v-198h260v-124h-260v-203h319v-126h-457v771zM105 885c0 88 143 92 143 0c0 -84 -143 -90 -143 0zM319 885c0 88 142 92 142 0c0 -84 -142 -90 -142 0z" />
    <glyph glyph-name="Ecircumflex" unicode="&#xca;" 
d="M70 770h443v-120h-305v-198h260v-124h-260v-203h319v-126h-457v771zM274 864l-47 -45h-127v10l142 129h64l141 -129v-10h-128z" />
    <glyph glyph-name="Eacute" unicode="&#xc9;" 
d="M70 770h443v-120h-305v-198h260v-124h-260v-203h319v-126h-457v771zM407 955l-76 -136h-119l57 136h138z" />
    <glyph glyph-name="Egrave" unicode="&#xc8;" 
d="M70 770h443v-120h-305v-198h260v-124h-260v-203h319v-126h-457v771zM228 818l-76 136h138l57 -136h-119z" />
    <glyph glyph-name="Odieresis" unicode="&#xd6;" horiz-adv-x="641" 
d="M316 -7c-183 0 -257 71 -257 230v326c0 163 71 230 257 230s263 -67 263 -230v-326c0 -159 -80 -230 -263 -230zM316 115c100 0 125 42 125 115v312c0 70 -18 115 -125 115c-100 0 -119 -45 -119 -115v-312c0 -73 19 -115 119 -115zM138 888c0 91 147 95 147 0
c0 -88 -147 -94 -147 0zM359 888c0 91 147 95 147 0c0 -88 -147 -94 -147 0z" />
    <glyph glyph-name="Otilde" unicode="&#xd5;" horiz-adv-x="641" 
d="M316 -7c-183 0 -257 71 -257 230v326c0 163 71 230 257 230s263 -67 263 -230v-326c0 -159 -80 -230 -263 -230zM316 115c100 0 125 42 125 115v312c0 70 -18 115 -125 115c-100 0 -119 -45 -119 -115v-312c0 -73 19 -115 119 -115zM236 830l-81 42c20 65 83 114 151 83
l49 -24c15 -7 34 -5 46 26l84 -35c-17 -66 -68 -126 -145 -95l-54 26c-11 7 -36 8 -50 -23z" />
    <glyph glyph-name="Ocircumflex" unicode="&#xd4;" horiz-adv-x="641" 
d="M316 -7c-183 0 -257 71 -257 230v326c0 163 71 230 257 230s263 -67 263 -230v-326c0 -159 -80 -230 -263 -230zM316 115c100 0 125 42 125 115v312c0 70 -18 115 -125 115c-100 0 -119 -45 -119 -115v-312c0 -73 19 -115 119 -115zM325 870l-47 -45h-127v10l142 129h64
l141 -129v-10h-128z" />
    <glyph glyph-name="Oacute" unicode="&#xd3;" horiz-adv-x="641" 
d="M316 -7c-183 0 -257 71 -257 230v326c0 163 71 230 257 230s263 -67 263 -230v-326c0 -159 -80 -230 -263 -230zM316 115c100 0 125 42 125 115v312c0 70 -18 115 -125 115c-100 0 -119 -45 -119 -115v-312c0 -73 19 -115 119 -115zM454 961l-76 -136h-119l57 136h138z
" />
    <glyph glyph-name="Ograve" unicode="&#xd2;" horiz-adv-x="641" 
d="M316 -7c-183 0 -257 71 -257 230v326c0 163 71 230 257 230s263 -67 263 -230v-326c0 -159 -80 -230 -263 -230zM316 115c100 0 125 42 125 115v312c0 70 -18 115 -125 115c-100 0 -119 -45 -119 -115v-312c0 -73 19 -115 119 -115zM270 827l-76 136h138l57 -136h-119z
" />
    <glyph glyph-name="Yacute" unicode="&#xdd;" horiz-adv-x="526" 
d="M376 770h149l-194 -448v-323h-137v323l-196 448h149l60 -142l56 -165l56 169zM386 954l-76 -136h-119l57 136h138z" />
    <glyph glyph-name="Udieresis" unicode="&#xdc;" horiz-adv-x="637" 
d="M433 235v534h138v-541c0 -159 -97 -235 -259 -235s-252 76 -252 235v541h138v-534c0 -73 32 -120 114 -120s121 47 121 120zM131 893c0 91 147 95 147 0c0 -88 -147 -94 -147 0zM352 893c0 91 147 95 147 0c0 -88 -147 -94 -147 0z" />
    <glyph glyph-name="Ucircumflex" unicode="&#xdb;" horiz-adv-x="637" 
d="M433 235v534h138v-541c0 -159 -97 -235 -259 -235s-252 76 -252 235v541h138v-534c0 -73 32 -120 114 -120s121 47 121 120zM320 869l-47 -45h-127v10l142 129h64l141 -129v-10h-128z" />
    <glyph glyph-name="Uacute" unicode="&#xda;" horiz-adv-x="637" 
d="M433 235v534h138v-541c0 -159 -97 -235 -259 -235s-252 76 -252 235v541h138v-534c0 -73 32 -120 114 -120s121 47 121 120zM447 958l-76 -136h-119l57 136h138z" />
    <glyph glyph-name="Ugrave" unicode="&#xd9;" horiz-adv-x="637" 
d="M433 235v534h138v-541c0 -159 -97 -235 -259 -235s-252 76 -252 235v541h138v-534c0 -73 32 -120 114 -120s121 47 121 120zM260 817l-76 136h138l57 -136h-119z" />
    <glyph glyph-name="edieresis" unicode="&#xeb;" 
d="M376 181h135c0 -124 -74 -183 -229 -183s-229 71 -229 230v134c0 148 74 230 229 230s229 -71 229 -230v-117h-320v-15c0 -95 37 -113 93 -113c65 0 92 23 92 64zM286 473c-81 0 -95 -44 -95 -115h187c0 74 -14 115 -92 115zM109 709c0 86 142 90 142 0
c0 -84 -142 -90 -142 0zM322 709c0 86 141 90 141 0c0 -84 -141 -90 -141 0z" />
    <glyph glyph-name="ecircumflex" unicode="&#xea;" 
d="M376 181h135c0 -124 -74 -183 -229 -183s-229 71 -229 230v134c0 148 74 230 229 230s229 -71 229 -230v-117h-320v-15c0 -95 37 -113 93 -113c65 0 92 23 92 64zM286 473c-81 0 -95 -44 -95 -115h187c0 74 -14 115 -92 115zM287 685l-47 -45h-127v10l142 129h64
l141 -129v-10h-128z" />
    <glyph glyph-name="eacute" unicode="&#xe9;" 
d="M376 181h135c0 -124 -74 -183 -229 -183s-229 71 -229 230v134c0 148 74 230 229 230s229 -71 229 -230v-117h-320v-15c0 -95 37 -113 93 -113c65 0 92 23 92 64zM286 473c-81 0 -95 -44 -95 -115h187c0 74 -14 115 -92 115zM411 775l-76 -136h-119l57 136h138z" />
    <glyph glyph-name="egrave" unicode="&#xe8;" 
d="M376 181h135c0 -124 -74 -183 -229 -183s-229 71 -229 230v134c0 148 74 230 229 230s229 -71 229 -230v-117h-320v-15c0 -95 37 -113 93 -113c65 0 92 23 92 64zM286 473c-81 0 -95 -44 -95 -115h187c0 74 -14 115 -92 115zM243 638l-76 136h138l57 -136h-119z" />
    <glyph glyph-name="OE" unicode="&#x152;" horiz-adv-x="795" 
d="M375 772h372v-120h-244v-198h216v-124h-216v-204h250v-126h-454c-183 0 -248 71 -248 230v312c0 163 62 230 248 230h76zM189 237c0 -73 10 -115 110 -115h76v528h-76c-100 0 -110 -45 -110 -115v-298z" />
    <glyph glyph-name="oe" unicode="&#x153;" horiz-adv-x="860" 
d="M689 181h129c0 -136 -69 -187 -229 -187c-64 0 -116 21 -152 69c-35 -49 -86 -73 -158 -73c-155 0 -229 71 -229 230v142c0 155 74 230 229 230c71 0 122 -27 157 -69c27 38 85 69 153 69c155 0 229 -71 229 -230v-117h-323v-22c2 -89 41 -107 96 -107c65 0 98 24 98 65z
M279 112c72 0 93 42 93 115v1v134c-2 68 -24 108 -93 108c-72 0 -91 -42 -91 -115v-128c0 -73 19 -115 91 -115zM593 473c-77 0 -97 -40 -98 -105v-6v-4h190c0 74 -14 115 -92 115z" />
    <glyph glyph-name="exclamdown" unicode="&#xa1;" horiz-adv-x="251" 
d="M52 -189l10 574h126v-574h-136zM204 509c0 -102 -155 -101 -155 0c0 100 155 101 155 0z" />
    <glyph glyph-name="questiondown" unicode="&#xbf;" horiz-adv-x="511" 
d="M346 14h137c0 -172 -111 -217 -225 -219c-126 0 -229 62 -229 224v60c0 216 173 167 173 310h138c0 -196 -175 -182 -175 -306v-63c0 -55 22 -99 91 -99c54 0 90 24 90 93zM348 515c0 -102 -155 -101 -155 0c0 100 155 101 155 0z" />
    <glyph glyph-name="Ccedilla" unicode="&#xc7;" horiz-adv-x="623" 
d="M441 238h138c0 -151 -64 -224 -209 -238l-13 -38c85 -5 104 -62 90 -117c-28 -108 -197 -126 -273 -46l45 64c24 -22 99 -41 115 3c7 28 -38 49 -95 50l28 84c-147 12 -208 84 -208 228v313c0 163 71 230 257 230s263 -68 263 -239h-138c0 75 -18 117 -125 117
c-100 0 -119 -42 -119 -115v-299c0 -73 19 -115 119 -115s125 42 125 118z" />
    <glyph glyph-name="AE" unicode="&#xc6;" horiz-adv-x="753" 
d="M267 772h437v-120h-219v-199h198v-124h-198v-203h233v-126h-368v145h-147l-49 -145h-151zM237 271h113v365z" />
    <glyph glyph-name="Aring" unicode="&#xc5;" horiz-adv-x="578" 
d="M168 830c0 77 58 118 121 118c65 0 122 -40 122 -117c0 -42 -17 -74 -44 -94l202 -737h-142l-39 136h-197l-40 -136h-142l203 735c-27 20 -45 52 -44 95zM225 271h128l-64 285zM289 873c-57 0 -57 -86 0 -86c61 0 58 86 0 86z" />
    <glyph glyph-name="_127" horiz-adv-x="500" 
 />
    <glyph glyph-name="_129" horiz-adv-x="500" 
 />
    <glyph glyph-name="_141" horiz-adv-x="500" 
 />
    <glyph glyph-name="Idieresis" unicode="&#xcf;" horiz-adv-x="279" 
d="M209 769v-770h-139v770h139zM-40 883c0 91 147 95 147 0c0 -88 -147 -94 -147 0zM181 883c0 91 147 95 147 0c0 -88 -147 -94 -147 0z" />
    <glyph glyph-name="Icircumflex" unicode="&#xce;" horiz-adv-x="279" 
d="M209 769v-770h-139v770h139zM140 863l-47 -45h-127v10l142 129h64l141 -129v-10h-128z" />
    <glyph glyph-name="Iacute" unicode="&#xcd;" horiz-adv-x="279" 
d="M209 769v-770h-139v770h139zM268 952l-76 -136h-119l57 136h138z" />
    <glyph glyph-name="Igrave" unicode="&#xcc;" horiz-adv-x="279" 
d="M209 769v-770h-139v770h139zM88 816l-76 136h138l57 -136h-119z" />
    <glyph glyph-name="Eth" unicode="&#xd0;" horiz-adv-x="640" 
d="M71 770h253c186 0 263 -67 263 -230v-314c0 -159 -80 -226 -263 -226h-253v307h-64v115h64v348zM208 125h116c100 0 125 35 125 108v300c0 73 -16 111 -123 111h-118v-222h105v-115h-105v-182z" />
    <glyph glyph-name="Ntilde" unicode="&#xd1;" horiz-adv-x="623" 
d="M554 769v-769h-134l-226 488l12 -292v-196h-137v769h137l226 -507l-15 325v182h137zM221 822l-81 42c20 65 83 114 151 83l49 -24c15 -7 34 -5 46 26l84 -35c-17 -66 -68 -126 -145 -95l-54 26c-11 7 -36 8 -50 -23z" />
    <glyph glyph-name="Oslash" unicode="&#xd8;" horiz-adv-x="641" 
d="M316 -7c-31 0 -58 2 -83 6l-22 -61h-114l36 99c-51 37 -74 98 -74 186v326c0 163 71 230 257 230c31 0 59 -2 85 -6l25 69h115l-39 -106c53 -36 77 -97 77 -187v-326c0 -159 -80 -230 -263 -230zM316 115c100 0 125 42 125 115v312c0 8 -1 16 -1 23l-163 -447
c11 -2 24 -3 39 -3zM197 230v-17l160 441c-12 2 -26 3 -41 3c-100 0 -119 -45 -119 -115v-312z" />
    <glyph glyph-name="aring" unicode="&#xe5;" horiz-adv-x="543" 
d="M355 235c-140 14 -189 -18 -189 -65c0 -39 34 -52 81 -52c80 0 102 58 108 117zM185 387h-131c-9 147 70 206 211 206c154 0 221 -77 221 -230v-363h-112l-13 68c-33 -46 -89 -76 -155 -76c-97 0 -170 56 -170 167c0 139 116 194 319 180c0 88 -17 132 -89 132
c-60 0 -82 -21 -81 -84zM156 722c0 65 57 100 119 100c63 0 119 -34 119 -99c0 -64 -56 -100 -120 -100c-66 0 -119 36 -118 99zM275 759c-56 0 -56 -73 0 -73c59 0 56 73 0 73z" />
    <glyph glyph-name="adieresis" unicode="&#xe4;" horiz-adv-x="543" 
d="M355 235c-140 14 -189 -18 -189 -65c0 -39 34 -52 81 -52c80 0 102 58 108 117zM185 387h-131c-9 147 70 206 211 206c154 0 221 -77 221 -230v-363h-112l-13 68c-33 -46 -89 -76 -155 -76c-97 0 -170 56 -170 167c0 139 116 194 319 180c0 88 -17 132 -89 132
c-60 0 -82 -21 -81 -84zM93 718c0 88 142 92 142 0c0 -84 -142 -90 -142 0zM306 718c0 88 141 92 141 0c0 -84 -141 -90 -141 0z" />
    <glyph glyph-name="atilde" unicode="&#xe3;" horiz-adv-x="543" 
d="M355 235c-140 14 -189 -18 -189 -65c0 -39 34 -52 81 -52c80 0 102 58 108 117zM185 387h-131c-9 147 70 206 211 206c154 0 221 -77 221 -230v-363h-112l-13 68c-33 -46 -89 -76 -155 -76c-97 0 -170 56 -170 167c0 139 116 194 319 180c0 88 -17 132 -89 132
c-60 0 -82 -21 -81 -84zM185 654l-79 42c20 63 81 111 147 81l48 -24c15 -6 33 -5 45 26l82 -34c-17 -65 -66 -124 -141 -93l-53 25c-11 7 -35 8 -49 -23z" />
    <glyph glyph-name="acircumflex" unicode="&#xe2;" horiz-adv-x="543" 
d="M355 235c-140 14 -189 -18 -189 -65c0 -39 34 -52 81 -52c80 0 102 58 108 117zM185 387h-131c-9 147 70 206 211 206c154 0 221 -77 221 -230v-363h-112l-13 68c-33 -46 -89 -76 -155 -76c-97 0 -170 56 -170 167c0 139 116 194 319 180c0 88 -17 132 -89 132
c-60 0 -82 -21 -81 -84zM272 691l-47 -45h-127v10l142 129h64l141 -129v-10h-128z" />
    <glyph glyph-name="aacute" unicode="&#xe1;" horiz-adv-x="543" 
d="M355 235c-140 14 -189 -18 -189 -65c0 -39 34 -52 81 -52c80 0 102 58 108 117zM185 387h-131c-9 147 70 206 211 206c154 0 221 -77 221 -230v-363h-112l-13 68c-33 -46 -89 -76 -155 -76c-97 0 -170 56 -170 167c0 139 116 194 319 180c0 88 -17 132 -89 132
c-60 0 -82 -21 -81 -84zM391 778l-76 -136h-119l57 136h138z" />
    <glyph glyph-name="agrave" unicode="&#xe0;" horiz-adv-x="543" 
d="M355 235c-140 14 -189 -18 -189 -65c0 -39 34 -52 81 -52c80 0 102 58 108 117zM185 387h-131c-9 147 70 206 211 206c154 0 221 -77 221 -230v-363h-112l-13 68c-33 -46 -89 -76 -155 -76c-97 0 -170 56 -170 167c0 139 116 194 319 180c0 88 -17 132 -89 132
c-60 0 -82 -21 -81 -84zM218 644l-76 136h138l57 -136h-119z" />
    <glyph glyph-name="ae" unicode="&#xe6;" horiz-adv-x="849" 
d="M664 181h135c0 -124 -73 -189 -228 -189c-79 0 -138 30 -166 91c-58 -82 -116 -91 -199 -91c-97 0 -170 56 -170 167c0 139 116 194 319 180v5c-1 84 -19 127 -89 127c-60 0 -80 -19 -79 -82h-131c-9 147 68 204 209 204c72 0 125 -27 157 -81c32 53 87 80 155 80
c155 0 222 -86 222 -230v-117h-320v-15c0 -95 38 -117 94 -117c65 0 91 27 91 68zM581 473c-81 0 -102 -44 -102 -115h192c0 56 -12 115 -90 115zM355 235c-140 14 -189 -18 -189 -65c0 -39 34 -52 81 -52c80 0 102 58 108 117z" />
    <glyph glyph-name="ccedilla" unicode="&#xe7;" horiz-adv-x="553" 
d="M207 -87l25 80c-123 13 -182 85 -182 230v132c0 159 78 237 233 237s225 -63 225 -222h-130c0 67 -24 100 -92 100c-76 0 -98 -42 -98 -115v-128c0 -73 19 -115 91 -115s98 31 99 101h130c0 -139 -57 -206 -175 -220l-11 -35c83 -5 101 -63 88 -118
c-28 -106 -193 -120 -267 -41l44 63c24 -22 97 -44 112 -1c7 28 -37 50 -92 52z" />
    <glyph glyph-name="idieresis" unicode="&#xef;" horiz-adv-x="260" 
d="M-42 712c0 94 147 98 147 0c0 -91 -147 -97 -147 0zM153 712c0 94 147 98 147 0c0 -91 -147 -97 -147 0zM198 577v-578h-137v578h137z" />
    <glyph glyph-name="icircumflex" unicode="&#xee;" horiz-adv-x="260" 
d="M131 690l-42 -47h-113v11l127 132h57l126 -132v-11h-115zM198 577v-578h-137v578h137z" />
    <glyph glyph-name="iacute" unicode="&#xed;" horiz-adv-x="259" 
d="M258 773l-76 -136h-119l57 136h138zM198 577v-578h-137v578h137z" />
    <glyph glyph-name="igrave" unicode="&#xec;" horiz-adv-x="260" 
d="M198 577v-578h-137v578h137zM81 634l-76 136h138l57 -136h-119z" />
    <glyph glyph-name="ntilde" unicode="&#xf1;" horiz-adv-x="605" 
d="M79 0v590h119l7 -60c37 44 89 64 139 64c97 1 192 -50 192 -230v-364h-136v363c0 76 -32 107 -89 107c-53 0 -95 -26 -95 -102v-368h-137zM235 665l-76 39c19 62 78 108 143 79l46 -23c14 -7 32 -5 43 24l80 -32c-16 -63 -64 -119 -137 -90l-51 24c-11 7 -34 8 -48 -21z
" />
    <glyph glyph-name="odieresis" unicode="&#xf6;" horiz-adv-x="558" 
d="M279 -10c-155 0 -229 71 -229 230v142c0 155 74 230 229 230s229 -71 229 -230v-142c0 -159 -74 -230 -229 -230zM279 112c72 0 91 42 91 115v128c0 73 -19 115 -91 115s-91 -42 -91 -115v-128c0 -73 19 -115 91 -115zM103 710c0 89 143 93 143 0c0 -86 -143 -92 -143 0z
M318 710c0 89 143 93 143 0c0 -86 -143 -92 -143 0z" />
    <glyph glyph-name="otilde" unicode="&#xf5;" horiz-adv-x="558" 
d="M279 -10c-155 0 -229 71 -229 230v142c0 155 74 230 229 230s229 -71 229 -230v-142c0 -159 -74 -230 -229 -230zM279 112c72 0 91 42 91 115v128c0 73 -19 115 -91 115s-91 -42 -91 -115v-128c0 -73 19 -115 91 -115zM199 652l-78 41c19 63 80 111 146 81l47 -24
c14 -6 33 -4 44 26l82 -34c-17 -65 -66 -123 -141 -93l-52 25c-10 7 -35 8 -48 -22z" />
    <glyph glyph-name="ocircumflex" unicode="&#xf4;" horiz-adv-x="558" 
d="M279 -10c-155 0 -229 71 -229 230v142c0 155 74 230 229 230s229 -71 229 -230v-142c0 -159 -74 -230 -229 -230zM279 112c72 0 91 42 91 115v128c0 73 -19 115 -91 115s-91 -42 -91 -115v-128c0 -73 19 -115 91 -115zM281 689l-47 -45h-127v10l142 129h64l141 -129v-10
h-128z" />
    <glyph glyph-name="oacute" unicode="&#xf3;" horiz-adv-x="558" 
d="M279 -10c-155 0 -229 71 -229 230v142c0 155 74 230 229 230s229 -71 229 -230v-142c0 -159 -74 -230 -229 -230zM279 112c72 0 91 42 91 115v128c0 73 -19 115 -91 115s-91 -42 -91 -115v-128c0 -73 19 -115 91 -115zM412 775l-76 -136h-119l57 136h138z" />
    <glyph glyph-name="ograve" unicode="&#xf2;" horiz-adv-x="558" 
d="M279 -10c-155 0 -229 71 -229 230v142c0 155 74 230 229 230s229 -71 229 -230v-142c0 -159 -74 -230 -229 -230zM279 112c72 0 91 42 91 115v128c0 73 -19 115 -91 115s-91 -42 -91 -115v-128c0 -73 19 -115 91 -115zM234 640l-76 136h138l57 -136h-119z" />
    <glyph glyph-name="oslash" unicode="&#xf8;" horiz-adv-x="558" 
d="M279 -10c-29 0 -56 3 -79 8l-26 -58h-107l45 100c-42 37 -62 96 -62 180v142c0 155 74 230 229 230c29 0 55 -3 79 -8l28 63h108l-48 -106c42 -37 62 -96 62 -179v-142c0 -159 -74 -230 -229 -230zM188 227v-18l117 258c-8 2 -17 3 -26 3c-72 0 -91 -42 -91 -115v-128z
M279 112c72 0 91 42 91 115v128c0 6 0 12 -1 17l-116 -258c8 -1 16 -2 26 -2z" />
    <glyph glyph-name="udieresis" unicode="&#xfc;" horiz-adv-x="596" 
d="M526 591v-590h-122l-7 60c-37 -44 -89 -64 -139 -64c-97 -1 -192 50 -192 230v364h136v-363c0 -76 32 -107 89 -107c53 0 95 26 95 102v368h140zM116 722c0 91 147 95 147 0c0 -88 -147 -94 -147 0zM337 722c0 91 147 95 147 0c0 -88 -147 -94 -147 0z" />
    <glyph glyph-name="ucircumflex" unicode="&#xfb;" horiz-adv-x="596" 
d="M526 591v-590h-122l-7 60c-37 -44 -89 -64 -139 -64c-97 -1 -192 50 -192 230v364h136v-363c0 -76 32 -107 89 -107c53 0 95 26 95 102v368h140zM299 690l-47 -45h-127v10l142 129h64l141 -129v-10h-128z" />
    <glyph glyph-name="uacute" unicode="&#xfa;" horiz-adv-x="596" 
d="M526 591v-590h-122l-7 60c-37 -44 -89 -64 -139 -64c-97 -1 -192 50 -192 230v364h136v-363c0 -76 32 -107 89 -107c53 0 95 26 95 102v368h140zM423 780l-76 -136h-119l57 136h138z" />
    <glyph glyph-name="ugrave" unicode="&#xf9;" horiz-adv-x="596" 
d="M526 591v-590h-122l-7 60c-37 -44 -89 -64 -139 -64c-97 -1 -192 50 -192 230v364h136v-363c0 -76 32 -107 89 -107c53 0 95 26 95 102v368h140zM242 646l-76 136h138l57 -136h-119z" />
    <glyph glyph-name="yacute" unicode="&#xfd;" horiz-adv-x="510" 
d="M355 590h143l-175 -583h1l-32 -114c-38 -133 -117 -147 -230 -102l21 101c35 -8 72 -23 86 29l23 83l-177 586h143l53 -177c20 -80 36 -173 46 -248c11 76 26 167 46 248zM378 778l-76 -136h-119l57 136h138z" />
    <glyph glyph-name="ydieresis" unicode="&#xff;" horiz-adv-x="510" 
d="M355 590h143l-175 -583h1l-32 -114c-38 -133 -117 -147 -230 -102l21 101c35 -8 72 -23 86 29l23 83l-177 586h143l53 -177c20 -80 36 -173 46 -248c11 76 26 167 46 248zM76 722c0 91 147 95 147 0c0 -88 -147 -94 -147 0zM297 722c0 91 147 95 147 0
c0 -88 -147 -94 -147 0z" />
    <glyph glyph-name="Amacron" unicode="&#x100;" horiz-adv-x="578" 
d="M359 769l210 -769h-142l-39 136h-197l-40 -136h-142l213 769h137zM225 271h128l-64 285zM162 922h250v-101h-250v101z" />
    <glyph glyph-name="amacron" unicode="&#x101;" horiz-adv-x="543" 
d="M355 235c-140 14 -189 -18 -189 -65c0 -39 34 -52 81 -52c80 0 102 58 108 117zM185 387h-131c-9 147 70 206 211 206c154 0 221 -77 221 -230v-363h-112l-13 68c-33 -46 -89 -76 -155 -76c-97 0 -170 56 -170 167c0 139 116 194 319 180c0 88 -17 132 -89 132
c-60 0 -82 -21 -81 -84zM142 775h257v-112h-257v112z" />
    <glyph glyph-name="Abreve" unicode="&#x102;" horiz-adv-x="578" 
d="M359 769l210 -769h-142l-39 136h-197l-40 -136h-142l213 769h137zM225 271h128l-64 285zM144 948h103c0 -27 11 -46 43 -46s42 19 42 46h104c-1 -91 -47 -134 -146 -134s-145 44 -146 134z" />
    <glyph glyph-name="abreve" unicode="&#x103;" horiz-adv-x="543" 
d="M355 235c-140 14 -189 -18 -189 -65c0 -39 34 -52 81 -52c80 0 102 58 108 117zM185 387h-131c-9 147 70 206 211 206c154 0 221 -77 221 -230v-363h-112l-13 68c-33 -46 -89 -76 -155 -76c-97 0 -170 56 -170 167c0 139 116 194 319 180c0 88 -17 132 -89 132
c-60 0 -82 -21 -81 -84zM124 777h103c0 -27 11 -46 43 -46s42 19 42 46h104c-1 -91 -47 -134 -146 -134s-145 44 -146 134z" />
    <glyph glyph-name="Aogonek" unicode="&#x104;" horiz-adv-x="578" 
d="M359 769l210 -769h-10c-54 -35 -64 -76 -47 -96c6 -7 25 -19 62 -9l5 -98c-64 -9 -194 -22 -194 93c0 51 31 83 67 110h-25l-39 136h-197l-40 -136h-142l213 769h137zM225 271h128l-64 285z" />
    <glyph glyph-name="aogonek" unicode="&#x105;" horiz-adv-x="543" 
d="M185 387h-131c-9 147 70 206 211 206c154 0 221 -77 221 -230v-363c-69 -25 -72 -72 -56 -91c6 -7 25 -19 62 -9l5 -98c-64 -9 -194 -22 -194 93c0 48 33 84 71 106l-13 67c-33 -46 -89 -76 -155 -76c-97 0 -170 56 -170 167c0 139 116 194 319 180c0 88 -17 132 -89 132
c-60 0 -82 -21 -81 -84zM355 235c-140 14 -189 -18 -189 -65c0 -39 34 -52 81 -52c80 0 102 58 108 117z" />
    <glyph glyph-name="ccaron" unicode="&#x10d;" horiz-adv-x="553" 
d="M508 370h-130c0 67 -24 100 -92 100c-76 0 -98 -42 -98 -115v-128c0 -73 19 -115 91 -115s98 31 99 101h130c0 -159 -74 -223 -229 -223s-229 71 -229 233v132c0 159 78 237 233 237s225 -63 225 -222zM288 727l47 45h127v-10l-142 -129h-64l-141 129v10h128z" />
    <glyph glyph-name="Ccaron" unicode="&#x10c;" horiz-adv-x="623" 
d="M441 238h138c0 -169 -80 -240 -263 -240s-257 71 -257 230v313c0 163 71 230 257 230s263 -68 263 -239h-138c0 75 -18 117 -125 117c-100 0 -119 -42 -119 -115v-299c0 -73 19 -115 119 -115s125 42 125 118zM322 917l47 45h127v-10l-142 -129h-64l-141 129v10h128z" />
    <glyph glyph-name="cdotaccent" unicode="&#x10b;" horiz-adv-x="553" 
d="M508 370h-130c0 67 -24 100 -92 100c-76 0 -98 -42 -98 -115v-128c0 -73 19 -115 91 -115s98 31 99 101h130c0 -159 -74 -223 -229 -223s-229 71 -229 233v132c0 159 78 237 233 237s225 -63 225 -222zM219 715c0 93 146 96 146 0c0 -91 -146 -97 -146 0z" />
    <glyph glyph-name="Cdotaccent" unicode="&#x10a;" horiz-adv-x="623" 
d="M441 238h138c0 -169 -80 -240 -263 -240s-257 71 -257 230v313c0 163 71 230 257 230s263 -68 263 -239h-138c0 75 -18 117 -125 117c-100 0 -119 -42 -119 -115v-299c0 -73 19 -115 119 -115s125 42 125 118zM252 897c0 93 146 96 146 0c0 -91 -146 -97 -146 0z" />
    <glyph glyph-name="ccircumflex" unicode="&#x109;" horiz-adv-x="553" 
d="M508 370h-130c0 67 -24 100 -92 100c-76 0 -98 -42 -98 -115v-128c0 -73 19 -115 91 -115s98 31 99 101h130c0 -159 -74 -223 -229 -223s-229 71 -229 233v132c0 159 78 237 233 237s225 -63 225 -222zM283 685l-47 -45h-127v10l142 129h64l141 -129v-10h-128z" />
    <glyph glyph-name="Ccircumflex" unicode="&#x108;" horiz-adv-x="623" 
d="M441 238h138c0 -169 -80 -240 -263 -240s-257 71 -257 230v313c0 163 71 230 257 230s263 -68 263 -239h-138c0 75 -18 117 -125 117c-100 0 -119 -42 -119 -115v-299c0 -73 19 -115 119 -115s125 42 125 118zM318 863l-47 -45h-127v10l142 129h64l141 -129v-10h-128z
" />
    <glyph glyph-name="cacute" unicode="&#x107;" horiz-adv-x="553" 
d="M508 370h-130c0 67 -24 100 -92 100c-76 0 -98 -42 -98 -115v-128c0 -73 19 -115 91 -115s98 31 99 101h130c0 -159 -74 -223 -229 -223s-229 71 -229 233v132c0 159 78 237 233 237s225 -63 225 -222zM405 777l-76 -136h-119l57 136h138z" />
    <glyph glyph-name="Cacute" unicode="&#x106;" horiz-adv-x="623" 
d="M441 238h138c0 -169 -80 -240 -263 -240s-257 71 -257 230v313c0 163 71 230 257 230s263 -68 263 -239h-138c0 75 -18 117 -125 117c-100 0 -119 -42 -119 -115v-299c0 -73 19 -115 119 -115s125 42 125 118zM451 957l-76 -136h-119l57 136h138z" />
    <glyph glyph-name="Dcaron" unicode="&#x10e;" horiz-adv-x="640" 
d="M71 770h253c186 0 263 -67 263 -230v-314c0 -159 -80 -226 -263 -226h-253v770zM208 125h116c100 0 125 35 125 108v300c0 73 -16 111 -123 111h-118v-519zM309 908l47 45h127v-10l-142 -129h-64l-141 129v10h128z" />
    <glyph glyph-name="Emacron" unicode="&#x112;" 
d="M70 770h443v-120h-305v-198h260v-124h-260v-203h319v-126h-457v771zM167 938h255v-112h-255v112z" />
    <glyph glyph-name="emacron" unicode="&#x113;" 
d="M376 181h135c0 -124 -74 -183 -229 -183s-229 71 -229 230v134c0 148 74 230 229 230s229 -71 229 -230v-117h-320v-15c0 -95 37 -113 93 -113c65 0 92 23 92 64zM286 473c-81 0 -95 -44 -95 -115h187c0 74 -14 115 -92 115zM162 775h254v-116h-254v116z" />
    <glyph glyph-name="Ebreve" unicode="&#x114;" 
d="M70 770h443v-120h-305v-198h260v-124h-260v-203h319v-126h-457v771zM145 955h103c0 -27 11 -46 43 -46s42 19 42 46h104c-1 -91 -47 -134 -146 -134s-145 44 -146 134z" />
    <glyph glyph-name="ebreve" unicode="&#x115;" 
d="M376 181h135c0 -124 -74 -183 -229 -183s-229 71 -229 230v134c0 148 74 230 229 230s229 -71 229 -230v-117h-320v-15c0 -95 37 -113 93 -113c65 0 92 23 92 64zM286 473c-81 0 -95 -44 -95 -115h187c0 74 -14 115 -92 115zM138 775h103c0 -27 11 -46 43 -46
s42 19 42 46h104c-1 -91 -47 -134 -146 -134s-145 44 -146 134z" />
    <glyph glyph-name="Edotaccent" unicode="&#x116;" 
d="M70 770h443v-120h-305v-198h260v-124h-260v-203h319v-126h-457v771zM231 891c0 93 146 96 146 0c0 -91 -146 -97 -146 0z" />
    <glyph glyph-name="edotaccent" unicode="&#x117;" 
d="M376 181h135c0 -124 -74 -183 -229 -183s-229 71 -229 230v134c0 148 74 230 229 230s229 -71 229 -230v-117h-320v-15c0 -95 37 -113 93 -113c65 0 92 23 92 64zM286 473c-81 0 -95 -44 -95 -115h187c0 74 -14 115 -92 115zM217 711c0 93 146 96 146 0
c0 -91 -146 -97 -146 0z" />
    <glyph glyph-name="Eogonek" unicode="&#x118;" 
d="M70 770h443v-120h-305v-198h260v-124h-260v-203h319v-123c-63 -35 -72 -78 -55 -97c6 -7 25 -19 62 -9l5 -98c-64 -9 -194 -22 -194 93c0 49 35 86 74 108h-349v771z" />
    <glyph glyph-name="eogonek" unicode="&#x119;" 
d="M376 181h135c0 -65 -20 -113 -62 -143l2 1c-70 -62 -80 -114 -63 -134c6 -7 25 -19 62 -9l5 -98c-64 -9 -194 -22 -194 93c0 45 25 85 59 109c-12 -1 -25 -2 -38 -2c-155 0 -229 71 -229 230v134c0 148 74 230 229 230s229 -71 229 -230v-117h-320v-15
c0 -95 37 -113 93 -113c65 0 92 23 92 64zM286 473c-81 0 -95 -44 -95 -115h187c0 74 -14 115 -92 115z" />
    <glyph glyph-name="Ecaron" unicode="&#x11a;" 
d="M70 770h443v-120h-305v-198h260v-124h-260v-203h319v-126h-457v771zM298 915l47 45h127v-10l-142 -129h-64l-141 129v10h128z" />
    <glyph glyph-name="ecaron" unicode="&#x11b;" 
d="M376 181h135c0 -124 -74 -183 -229 -183s-229 71 -229 230v134c0 148 74 230 229 230s229 -71 229 -230v-117h-320v-15c0 -95 37 -113 93 -113c65 0 92 23 92 64zM286 473c-81 0 -95 -44 -95 -115h187c0 74 -14 115 -92 115zM288 726l47 45h127v-10l-142 -129h-64
l-141 129v10h128z" />
    <glyph glyph-name="gdotaccent" unicode="&#x121;" horiz-adv-x="549" 
d="M246 -3c-123 0 -196 69 -196 221v147c0 164 76 228 192 228c67 0 111 -26 134 -68l10 65h113v-605c0 -153 -80 -226 -223 -226c-144 0 -213 62 -213 187h131c0 -46 27 -70 82 -70c72 0 95 37 95 110v71c-21 -32 -56 -60 -125 -60zM272 118c70 0 92 45 92 120v115
c0 68 -22 118 -90 118c-54 0 -87 -28 -87 -113v-123c0 -83 28 -117 85 -117zM211 722c0 93 146 96 146 0c0 -91 -146 -97 -146 0z" />
    <glyph glyph-name="Gdotaccent" unicode="&#x120;" horiz-adv-x="631" 
d="M318 313v125h259v-200c0 -169 -80 -242 -263 -242s-257 73 -257 239v309c0 157 71 230 257 230s263 -65 263 -230h-138c0 72 -18 108 -125 108c-100 0 -119 -45 -119 -115v-302c0 -73 19 -115 119 -115s135 42 135 118v75h-131zM254 896c0 93 146 96 146 0
c0 -91 -146 -97 -146 0z" />
    <glyph glyph-name="gbreve" unicode="&#x11f;" horiz-adv-x="549" 
d="M246 -3c-123 0 -196 69 -196 221v147c0 164 76 228 192 228c67 0 111 -26 134 -68l10 65h113v-605c0 -153 -80 -226 -223 -226c-144 0 -213 62 -213 187h131c0 -46 27 -70 82 -70c72 0 95 37 95 110v71c-21 -32 -56 -60 -125 -60zM272 118c70 0 92 45 92 120v115
c0 68 -22 118 -90 118c-54 0 -87 -28 -87 -113v-123c0 -83 28 -117 85 -117zM134 773h103c0 -27 11 -46 43 -46s42 19 42 46h104c-1 -91 -47 -134 -146 -134s-145 44 -146 134z" />
    <glyph glyph-name="Gbreve" unicode="&#x11e;" horiz-adv-x="631" 
d="M318 313v125h259v-200c0 -169 -80 -242 -263 -242s-257 73 -257 239v309c0 157 71 230 257 230s263 -65 263 -230h-138c0 72 -18 108 -125 108c-100 0 -119 -45 -119 -115v-302c0 -73 19 -115 119 -115s135 42 135 118v75h-131zM175 959h103c0 -27 11 -46 43 -46
s42 19 42 46h104c-1 -91 -47 -134 -146 -134s-145 44 -146 134z" />
    <glyph glyph-name="gcircumflex" unicode="&#x11d;" horiz-adv-x="549" 
d="M246 -3c-123 0 -196 69 -196 221v147c0 164 76 228 192 228c67 0 111 -26 134 -68l10 65h113v-605c0 -153 -80 -226 -223 -226c-144 0 -213 62 -213 187h131c0 -46 27 -70 82 -70c72 0 95 37 95 110v71c-21 -32 -56 -60 -125 -60zM272 118c70 0 92 45 92 120v115
c0 68 -22 118 -90 118c-54 0 -87 -28 -87 -113v-123c0 -83 28 -117 85 -117zM293 684l-47 -45h-127v10l142 129h64l141 -129v-10h-128z" />
    <glyph glyph-name="Gcircumflex" unicode="&#x11c;" horiz-adv-x="631" 
d="M318 313v125h259v-200c0 -169 -80 -242 -263 -242s-257 73 -257 239v309c0 157 71 230 257 230s263 -65 263 -230h-138c0 72 -18 108 -125 108c-100 0 -119 -45 -119 -115v-302c0 -73 19 -115 119 -115s135 42 135 118v75h-131zM318 867l-47 -45h-127v10l142 129h64
l141 -129v-10h-128z" />
    <glyph glyph-name="hcircumflex" unicode="&#x125;" horiz-adv-x="558" 
d="M503 0h-137v371c0 72 -29 98 -86 99c-59 0 -88 -32 -88 -98v-372h-137v770h137v-227c30 37 77 52 124 52c128 0 187 -81 187 -208v-387zM263 862l-47 -45h-127v10l142 129h64l141 -129v-10h-128z" />
    <glyph glyph-name="Hcircumflex" unicode="&#x124;" horiz-adv-x="655" 
d="M586 757v-757h-137v304h-240v-305h-139v758h139v-327h240v327h137zM330 864l-47 -45h-127v10l142 129h64l141 -129v-10h-128z" />
    <glyph glyph-name="Itilde" unicode="&#x128;" horiz-adv-x="279" 
d="M209 769v-770h-139v770h139zM61 833l-79 43c19 65 81 114 147 83l47 -24c15 -7 34 -5 45 26l82 -35c-17 -66 -66 -127 -141 -96l-53 26c-10 8 -35 9 -48 -23z" />
    <glyph glyph-name="itilde" unicode="&#x129;" horiz-adv-x="268" 
d="M204 577v-578h-137v578h137zM61 651l-72 41c17 63 74 111 134 81l44 -24c13 -6 30 -4 41 26l75 -34c-16 -65 -61 -123 -130 -93l-48 25c-9 7 -32 8 -44 -22z" />
    <glyph glyph-name="Imacron" unicode="&#x12a;" horiz-adv-x="279" 
d="M209 769v-770h-139v770h139zM13 947h255v-113h-255v113z" />
    <glyph glyph-name="imacron" unicode="&#x12b;" horiz-adv-x="268" 
d="M204 577v-578h-137v578h137zM10 775h254v-116h-254v116z" />
    <glyph glyph-name="Ibreve" unicode="&#x12c;" horiz-adv-x="269" 
d="M199 769v-770h-139v770h139zM-16 956h103c0 -27 11 -46 43 -46s42 19 42 46h104c-1 -91 -47 -134 -146 -134s-145 44 -146 134z" />
    <glyph glyph-name="Iogonek" unicode="&#x12e;" horiz-adv-x="279" 
d="M209 769v-770c-58 -28 -61 -74 -45 -93c6 -7 25 -19 62 -9l5 -98c-64 -9 -194 -22 -194 93c0 48 34 85 72 107h-39v770h139z" />
    <glyph glyph-name="ibreve" unicode="&#x12d;" horiz-adv-x="248" 
d="M191 577v-578h-137v578h137zM-12 773h96c0 -30 10 -50 39 -50c30 0 39 20 39 50h96c0 -100 -43 -147 -135 -147c-91 0 -134 48 -135 147z" />
    <glyph glyph-name="iogonek" unicode="&#x12f;" horiz-adv-x="280" 
d="M208 577v-578c-60 -26 -69 -74 -53 -93c6 -7 25 -19 62 -9l5 -98c-64 -9 -194 -22 -194 93c0 48 34 85 72 107h-29v578h137zM63 709c0 102 155 101 155 0c0 -100 -155 -101 -155 0z" />
    <glyph glyph-name="Idotaccent" unicode="&#x130;" horiz-adv-x="279" 
d="M209 769v-770h-139v770h139zM63 890c0 97 156 100 156 0c0 -95 -156 -101 -156 0z" />
    <glyph glyph-name="ij" unicode="&#x133;" horiz-adv-x="541" 
d="M208 577v-578h-137v578h137zM63 709c0 102 155 101 155 0c0 -100 -155 -101 -155 0zM478 582v-550c0 -175 -58 -220 -217 -220v117c57 0 80 8 80 100v553h137zM333 709c0 102 155 101 155 0c0 -100 -155 -101 -155 0z" />
    <glyph glyph-name="jcircumflex" unicode="&#x135;" horiz-adv-x="258" 
d="M205 582v-550c0 -175 -58 -220 -217 -220v117c57 0 80 8 80 100v553h137zM140 682l-42 -48h-113v11l126 136h57l126 -136v-11h-114z" />
    <glyph glyph-name="Jcircumflex" unicode="&#x134;" horiz-adv-x="526" 
d="M466 770v-545c0 -159 -74 -230 -229 -230s-229 78 -229 237h138c0 -73 19 -115 91 -115s91 42 91 115v538h138zM382 867l-47 -45h-127v10l142 129h64l141 -129v-10h-128z" />
    <glyph glyph-name="lslash" unicode="&#x142;" horiz-adv-x="306" 
d="M70 216v90l-67 -25v99l67 25v366h137v-315l82 31v-99l-82 -31v-139c0 -65 12 -86 69 -86v-132c-159 0 -206 47 -206 216z" />
    <glyph glyph-name="Lslash" unicode="&#x141;" horiz-adv-x="530" 
d="M506 126v-126h-436v279l-58 -23v99l58 23v392h139v-336l96 39v-99l-96 -39v-209h297z" />
    <glyph glyph-name="ldot" unicode="&#x140;" horiz-adv-x="462" 
d="M70 216v555h137v-553c0 -65 12 -86 69 -86v-132c-159 0 -206 47 -206 216zM276 368c0 107 170 112 170 0c0 -105 -170 -113 -170 0z" />
    <glyph glyph-name="Ldot" unicode="&#x13f;" horiz-adv-x="529" 
d="M506 126v-126h-436v770h139v-644h297zM306 366c0 107 170 112 170 0c0 -105 -170 -113 -170 0z" />
    <glyph glyph-name="lcaron" unicode="&#x13e;" horiz-adv-x="424" 
d="M70 216v555h137v-553c0 -65 12 -86 69 -86v-132c-159 0 -206 47 -206 216zM275 582l39 189h114l-54 -189h-99z" />
    <glyph glyph-name="Lcaron" unicode="&#x13d;" horiz-adv-x="530" 
d="M506 126v-126h-436v770h139v-644h297zM95 817l42 149h127l-60 -149h-109z" />
    <glyph glyph-name="uni013C" unicode="&#x13c;" horiz-adv-x="306" 
d="M70 216v555h137v-553c0 -65 12 -86 69 -86v-132c-159 0 -206 47 -206 216zM127 -237l-41 60c57 36 45 69 45 130h116c10 -101 -29 -160 -120 -190z" />
    <glyph glyph-name="uni013B" unicode="&#x13b;" horiz-adv-x="530" 
d="M506 126v-126h-436v770h139v-644h297zM229 -237l-41 60c57 36 45 69 45 130h116c10 -101 -29 -160 -120 -190z" />
    <glyph glyph-name="Lacute" unicode="&#x139;" horiz-adv-x="530" 
d="M506 126v-126h-436v770h139v-644h297zM275 954l-76 -136h-119l57 136h138z" />
    <glyph glyph-name="lacute" unicode="&#x13a;" horiz-adv-x="306" 
d="M70 216v555h137v-553c0 -65 12 -86 69 -86v-132c-159 0 -206 47 -206 216zM274 955l-76 -136h-119l57 136h138z" />
    <glyph glyph-name="nacute" unicode="&#x144;" horiz-adv-x="605" 
d="M79 0v590h119l7 -60c37 44 89 64 139 64c97 1 192 -50 192 -230v-364h-136v363c0 76 -32 107 -89 107c-53 0 -95 -26 -95 -102v-368h-137zM438 785l-76 -136h-119l57 136h138z" />
    <glyph glyph-name="Nacute" unicode="&#x143;" horiz-adv-x="623" 
d="M554 769v-769h-134l-226 488l12 -292v-196h-137v769h137l226 -507l-15 325v182h137zM437 958l-76 -136h-119l57 136h138z" />
    <glyph glyph-name="napostrophe" unicode="&#x149;" horiz-adv-x="605" 
d="M79 0v590h119l7 -60c37 44 89 64 139 64c97 1 192 -50 192 -230v-364h-136v363c0 76 -32 107 -89 107c-53 0 -95 -26 -95 -102v-368h-137z" />
    <glyph glyph-name="ncaron" unicode="&#x148;" horiz-adv-x="605" 
d="M79 0v590h119l7 -60c37 44 89 64 139 64c97 1 192 -50 192 -230v-364h-136v363c0 76 -32 107 -89 107c-53 0 -95 -26 -95 -102v-368h-137zM304 731l47 45h127v-10l-142 -129h-64l-141 129v10h128z" />
    <glyph glyph-name="Ncaron" unicode="&#x147;" horiz-adv-x="623" 
d="M554 769v-769h-134l-226 488l12 -292v-196h-137v769h137l226 -507l-15 325v182h137zM305 909l47 45h127v-10l-142 -129h-64l-141 129v10h128z" />
    <glyph glyph-name="eng" unicode="&#x14b;" horiz-adv-x="605" 
d="M79 0v590h119l7 -60c37 44 89 64 139 64c97 1 192 -50 192 -230v-343c0 -175 -57 -216 -216 -216v113c57 0 80 8 80 100v345c0 76 -32 107 -89 107c-53 0 -95 -26 -95 -102v-368h-137z" />
    <glyph glyph-name="Eng" unicode="&#x14a;" horiz-adv-x="623" 
d="M554 769v-769c0 -162 -64 -195 -216 -195v113c54 0 77 8 80 86l-224 484l12 -292v-196h-137v769h137l226 -507l-15 325v182h137z" />
    <glyph glyph-name="ohungarumlaut" unicode="&#x151;" horiz-adv-x="558" 
d="M279 -10c-155 0 -229 71 -229 230v142c0 155 74 230 229 230s229 -71 229 -230v-142c0 -159 -74 -230 -229 -230zM279 112c72 0 91 42 91 115v128c0 73 -19 115 -91 115s-91 -42 -91 -115v-128c0 -73 19 -115 91 -115zM137 640l64 123h120v-3l-79 -120h-105zM299 639
l64 124h120v-3l-78 -121h-106z" />
    <glyph glyph-name="Ohungarumlaut" unicode="&#x150;" horiz-adv-x="641" 
d="M316 -7c-183 0 -257 71 -257 230v326c0 163 71 230 257 230s263 -67 263 -230v-326c0 -159 -80 -230 -263 -230zM316 115c100 0 125 42 125 115v312c0 70 -18 115 -125 115c-100 0 -119 -45 -119 -115v-312c0 -73 19 -115 119 -115zM176 823l65 114h120v-2l-79 -112h-106
zM339 822l65 115h120v-2l-78 -113h-107z" />
    <glyph glyph-name="obreve" unicode="&#x14f;" horiz-adv-x="558" 
d="M279 -10c-155 0 -229 71 -229 230v142c0 155 74 230 229 230s229 -71 229 -230v-142c0 -159 -74 -230 -229 -230zM279 112c72 0 91 42 91 115v128c0 73 -19 115 -91 115s-91 -42 -91 -115v-128c0 -73 19 -115 91 -115zM134 773h103c0 -27 11 -46 43 -46s42 19 42 46h104
c-1 -91 -47 -134 -146 -134s-145 44 -146 134z" />
    <glyph glyph-name="omacron" unicode="&#x14d;" horiz-adv-x="558" 
d="M279 -10c-155 0 -229 71 -229 230v142c0 155 74 230 229 230s229 -71 229 -230v-142c0 -159 -74 -230 -229 -230zM279 112c72 0 91 42 91 115v128c0 73 -19 115 -91 115s-91 -42 -91 -115v-128c0 -73 19 -115 91 -115zM157 769h249v-107h-249v107z" />
    <glyph glyph-name="Omacron" unicode="&#x14c;" horiz-adv-x="641" 
d="M316 -7c-183 0 -257 71 -257 230v326c0 163 71 230 257 230s263 -67 263 -230v-326c0 -159 -80 -230 -263 -230zM316 115c100 0 125 42 125 115v312c0 70 -18 115 -125 115c-100 0 -119 -45 -119 -115v-312c0 -73 19 -115 119 -115zM201 942h247v-105h-247v105z" />
    <glyph glyph-name="Obreve" unicode="&#x14e;" horiz-adv-x="641" 
d="M316 -7c-183 0 -257 71 -257 230v326c0 163 71 230 257 230s263 -67 263 -230v-326c0 -159 -80 -230 -263 -230zM316 115c100 0 125 42 125 115v312c0 70 -18 115 -125 115c-100 0 -119 -45 -119 -115v-312c0 -73 19 -115 119 -115zM172 957h103c0 -27 11 -46 43 -46
s42 19 42 46h104c-1 -91 -47 -134 -146 -134s-145 44 -146 134z" />
    <glyph glyph-name="rcaron" unicode="&#x159;" horiz-adv-x="385" 
d="M356 593v-145c-89 12 -159 -23 -159 -111v-338h-137v591h126l6 -62c24 41 91 77 164 65zM222 725l47 40h127v-9l-142 -116h-64l-141 116v9h128z" />
    <glyph glyph-name="Rcaron" unicode="&#x158;" horiz-adv-x="594" 
d="M573 0h-161l-153 271h-51v-271h-138v770h194c186 0 273 -68 273 -231v-40c0 -114 -40 -176 -133 -206zM207 398h57c100 0 128 35 128 108v26c0 73 -19 111 -126 111h-59v-245zM283 902l49 41h131v-9l-147 -119h-66l-147 119v9h133z" />
    <glyph glyph-name="racute" unicode="&#x155;" horiz-adv-x="385" 
d="M356 593v-145c-89 12 -159 -23 -159 -111v-338h-137v591h126l6 -62c24 41 91 77 164 65zM269 780l-76 -136h-119l57 136h138z" />
    <glyph glyph-name="Racute" unicode="&#x154;" horiz-adv-x="594" 
d="M573 0h-161l-153 271h-51v-271h-138v770h194c186 0 273 -68 273 -231v-40c0 -114 -40 -176 -133 -206zM207 398h57c100 0 128 35 128 108v26c0 73 -19 111 -126 111h-59v-245zM404 952l-76 -136h-119l57 136h138z" />
    <glyph glyph-name="scircumflex" unicode="&#x15d;" horiz-adv-x="521" 
d="M483 405h-134c0 45 -35 65 -79 65c-53 0 -85 -21 -85 -62c0 -65 68 -56 147 -65s158 -56 158 -161c0 -129 -101 -185 -228 -185c-140 0 -224 71 -224 185h139c3 -41 25 -65 91 -65c55 0 83 31 83 60c0 50 -65 51 -136 60c-86 11 -169 48 -169 164c0 133 95 192 223 192
c145 0 214 -82 214 -188zM272 681l-45 -46h-122v10l136 134h62l136 -134v-10h-124z" />
    <glyph glyph-name="Scircumflex" unicode="&#x15c;" horiz-adv-x="604" 
d="M403 569c-4 65 -38 84 -105 84c-76 0 -107 -24 -107 -97c0 -97 77 -89 194 -107c89 -14 174 -50 174 -204c0 -178 -77 -253 -262 -253c-192 0 -253 93 -253 217h139c3 -59 29 -91 117 -91c83 0 121 35 121 122c0 91 -108 91 -190 102c-87 11 -179 54 -179 213
c0 144 88 219 246 219c139 0 231 -51 244 -205h-139zM301 864l-47 -45h-127v10l142 129h64l141 -129v-10h-128z" />
    <glyph glyph-name="sacute" unicode="&#x15b;" horiz-adv-x="521" 
d="M483 405h-134c0 45 -35 65 -79 65c-53 0 -85 -21 -85 -62c0 -65 68 -56 147 -65s158 -56 158 -161c0 -129 -101 -185 -228 -185c-140 0 -224 71 -224 185h139c3 -41 25 -65 91 -65c55 0 83 31 83 60c0 50 -65 51 -136 60c-86 11 -169 48 -169 164c0 133 95 192 223 192
c145 0 214 -82 214 -188zM393 775l-76 -136h-119l57 136h138z" />
    <glyph glyph-name="Sacute" unicode="&#x15a;" horiz-adv-x="604" 
d="M403 569c-4 65 -38 84 -105 84c-76 0 -107 -24 -107 -97c0 -97 77 -89 194 -107c89 -14 174 -50 174 -204c0 -178 -77 -253 -262 -253c-192 0 -253 93 -253 217h139c3 -59 29 -91 117 -91c83 0 121 35 121 122c0 91 -108 91 -190 102c-87 11 -179 54 -179 213
c0 144 88 219 246 219c139 0 231 -51 244 -205h-139zM428 953l-76 -136h-119l57 136h138z" />
    <glyph glyph-name="Scedilla" unicode="&#x15e;" horiz-adv-x="604" 
d="M234 -84l25 77c-162 11 -215 100 -215 216h139c3 -59 29 -91 117 -91c83 0 121 35 121 122c0 91 -108 91 -190 102c-87 11 -179 54 -179 213c0 144 88 219 246 219c139 0 231 -51 244 -205h-139c-4 65 -38 84 -105 84c-76 0 -107 -24 -107 -97c0 -97 77 -89 194 -107
c89 -14 174 -50 174 -204c0 -156 -59 -233 -198 -249l-12 -36c83 -5 101 -61 88 -114c-28 -105 -193 -123 -267 -45l44 63c24 -23 97 -40 112 2c7 28 -37 48 -92 50z" />
    <glyph glyph-name="scedilla" unicode="&#x15f;" horiz-adv-x="521" 
d="M198 -75l25 74c-117 12 -185 80 -185 183h139c3 -41 25 -65 91 -65c55 0 83 31 83 60c0 50 -65 51 -136 60c-86 11 -169 48 -169 164c0 133 95 192 223 192c145 0 214 -82 214 -188h-134c0 45 -35 65 -79 65c-53 0 -85 -21 -85 -62c0 -65 68 -56 147 -65
s158 -56 158 -161c0 -109 -72 -166 -170 -181l-12 -34c80 -5 98 -57 85 -108c-27 -100 -185 -117 -256 -42l42 59c22 -21 93 -38 108 2c6 27 -36 45 -89 47z" />
    <glyph glyph-name="scaron" unicode="&#x161;" horiz-adv-x="521" 
d="M483 405h-134c0 45 -35 65 -79 65c-53 0 -85 -21 -85 -62c0 -65 68 -56 147 -65s158 -56 158 -161c0 -129 -101 -185 -228 -185c-140 0 -224 71 -224 185h139c3 -41 25 -65 91 -65c55 0 83 31 83 60c0 50 -65 51 -136 60c-86 11 -169 48 -169 164c0 133 95 192 223 192
c145 0 214 -82 214 -188zM260 726l47 45h127v-10l-142 -129h-64l-141 129v10h128z" />
    <glyph glyph-name="Scaron" unicode="&#x160;" horiz-adv-x="604" 
d="M403 569c-4 65 -38 84 -105 84c-76 0 -107 -24 -107 -97c0 -97 77 -89 194 -107c89 -14 174 -50 174 -204c0 -178 -77 -253 -262 -253c-192 0 -253 93 -253 217h139c3 -59 29 -91 117 -91c83 0 121 35 121 122c0 91 -108 91 -190 102c-87 11 -179 54 -179 213
c0 144 88 219 246 219c139 0 231 -51 244 -205h-139zM300 915l47 45h127v-10l-142 -129h-64l-141 129v10h128z" />
    <glyph glyph-name="uni0163" unicode="&#x163;" horiz-adv-x="334" 
d="M64 216v476l137 15v-115h100v-125h-100v-249c0 -65 10 -109 102 -98v-120c-27 -3 -51 -4 -72 -3l-11 -34c76 -5 93 -59 80 -112c-25 -102 -177 -120 -245 -43l40 61c22 -22 89 -40 103 3c7 26 -33 45 -85 47l31 98c-57 30 -80 93 -80 199z" />
    <glyph glyph-name="uni0162" unicode="&#x162;" horiz-adv-x="472" 
d="M464 767v-123h-159v-644h-32l-10 -32c81 -5 95 -72 84 -122c-25 -104 -185 -121 -255 -42l42 65c22 -23 92 -42 107 3c9 34 -37 48 -89 50l24 78h-8v644h-160v123h456z" />
    <glyph glyph-name="tcaron" unicode="&#x165;" horiz-adv-x="471" 
d="M64 216v476l137 15v-118h87v-122h-87v-249c0 -65 10 -109 102 -98v-120c-174 -19 -239 41 -239 216zM339 548l38 186h113l-53 -186h-98z" />
    <glyph glyph-name="Tcaron" unicode="&#x164;" horiz-adv-x="472" 
d="M464 767v-123h-159v-644h-137v644h-160v123h456zM237 906l47 45h127v-10l-142 -129h-64l-141 129v10h128z" />
    <glyph glyph-name="uogonek" unicode="&#x173;" horiz-adv-x="596" 
d="M526 591v-585c-59 -23 -59 -66 -45 -82c6 -7 25 -19 62 -9l5 -98c-64 -9 -194 -22 -194 93c0 39 21 69 50 91l-7 60c-37 -44 -89 -64 -139 -64c-97 -1 -192 50 -192 230v364h136v-363c0 -76 32 -107 89 -107c53 0 95 26 95 102v368h140z" />
    <glyph glyph-name="Uogonek" unicode="&#x172;" horiz-adv-x="637" 
d="M433 235v534h138v-541c0 -85 -28 -146 -78 -185l2 1c-67 -54 -68 -100 -51 -120c6 -7 25 -19 62 -9l5 -98c-64 -9 -194 -22 -194 93c0 35 18 64 43 86c-16 -2 -32 -3 -48 -3c-162 0 -252 76 -252 235v541h138v-534c0 -73 32 -120 114 -120s121 47 121 120z" />
    <glyph glyph-name="uhungarumlaut" unicode="&#x171;" horiz-adv-x="596" 
d="M526 591v-590h-122l-7 60c-37 -44 -89 -64 -139 -64c-97 -1 -192 50 -192 230v364h136v-363c0 -76 32 -107 89 -107c53 0 95 26 95 102v368h140zM140 655l68 120h125v-2l-83 -118h-110zM310 654l68 121h125v-2l-82 -119h-111z" />
    <glyph glyph-name="Uhungarumlaut" unicode="&#x170;" horiz-adv-x="637" 
d="M433 235v534h138v-541c0 -159 -97 -235 -259 -235s-252 76 -252 235v541h138v-534c0 -73 32 -120 114 -120s121 47 121 120zM158 828l67 114h125v-2l-82 -112h-110zM327 827l67 115h125v-2l-81 -113h-111z" />
    <glyph glyph-name="uring" unicode="&#x16f;" horiz-adv-x="596" 
d="M526 591v-590h-122l-7 60c-37 -44 -89 -64 -139 -64c-97 -1 -192 50 -192 230v364h136v-363c0 -76 32 -107 89 -107c53 0 95 26 95 102v368h140zM170 731c0 69 61 106 126 106c68 0 128 -36 128 -106c0 -68 -60 -106 -129 -106c-70 0 -126 38 -125 106zM296 769
c-59 0 -59 -77 0 -77c64 0 61 77 0 77z" />
    <glyph glyph-name="Uring" unicode="&#x16e;" horiz-adv-x="637" 
d="M433 235v534h138v-541c0 -159 -97 -235 -259 -235s-252 76 -252 235v541h138v-534c0 -73 32 -120 114 -120s121 47 121 120zM201 878c0 66 56 101 116 101c63 0 117 -34 117 -100s-54 -103 -118 -103s-116 37 -115 102zM317 915c-54 0 -54 -74 0 -74c59 0 56 74 0 74z
" />
    <glyph glyph-name="ubreve" unicode="&#x16d;" horiz-adv-x="596" 
d="M526 591v-590h-122l-7 60c-37 -44 -89 -64 -139 -64c-97 -1 -192 50 -192 230v364h136v-363c0 -76 32 -107 89 -107c53 0 95 26 95 102v368h140zM152 770h103c0 -27 11 -46 43 -46s42 19 42 46h104c-1 -91 -47 -134 -146 -134s-145 44 -146 134z" />
    <glyph glyph-name="Ubreve" unicode="&#x16c;" horiz-adv-x="637" 
d="M433 235v534h138v-541c0 -159 -97 -235 -259 -235s-252 76 -252 235v541h138v-534c0 -73 32 -120 114 -120s121 47 121 120zM167 952h103c0 -27 11 -46 43 -46s42 19 42 46h104c-1 -91 -47 -134 -146 -134s-145 44 -146 134z" />
    <glyph glyph-name="Utilde" unicode="&#x168;" horiz-adv-x="637" 
d="M433 235v534h138v-541c0 -159 -97 -235 -259 -235s-252 76 -252 235v541h138v-534c0 -73 32 -120 114 -120s121 47 121 120zM232 831l-79 39c19 60 81 105 147 76l47 -22c15 -6 34 -4 45 24l82 -32c-17 -61 -66 -117 -141 -88l-53 24c-10 6 -35 7 -48 -21z" />
    <glyph glyph-name="utilde" unicode="&#x169;" horiz-adv-x="596" 
d="M526 591v-590h-122l-7 60c-37 -44 -89 -64 -139 -64c-97 -1 -192 50 -192 230v364h136v-363c0 -76 32 -107 89 -107c53 0 95 26 95 102v368h140zM222 653l-78 39c19 61 80 106 146 78l48 -23c14 -6 33 -4 44 24l82 -32c-17 -62 -66 -118 -141 -89l-52 24
c-11 7 -35 8 -49 -21z" />
    <glyph glyph-name="Umacron" unicode="&#x16a;" horiz-adv-x="637" 
d="M433 235v534h138v-541c0 -159 -97 -235 -259 -235s-252 76 -252 235v541h138v-534c0 -73 32 -120 114 -120s121 47 121 120zM184 938h258v-107h-258v107z" />
    <glyph glyph-name="umacron" unicode="&#x16b;" horiz-adv-x="596" 
d="M526 591v-590h-122l-7 60c-37 -44 -89 -64 -139 -64c-97 -1 -192 50 -192 230v364h136v-363c0 -76 32 -107 89 -107c53 0 95 26 95 102v368h140zM168 775h251v-107h-251v107z" />
    <glyph glyph-name="zcaron" unicode="&#x17e;" horiz-adv-x="510" 
d="M31 0v16l255 453h-229v120h433v-17l-254 -444h254v-128h-459zM283 727l47 45h127v-10l-142 -129h-64l-141 129v10h128z" />
    <glyph glyph-name="Zcaron" unicode="&#x17d;" horiz-adv-x="527" 
d="M56 770h458l-296 -648h279v-122h-483l301 647h-259v123zM294 917l47 45h127v-10l-142 -129h-64l-141 129v10h128z" />
    <glyph glyph-name="zdotaccent" unicode="&#x17c;" horiz-adv-x="510" 
d="M31 0v16l255 453h-229v120h433v-17l-254 -444h254v-128h-459zM208 719c0 93 146 96 146 0c0 -91 -146 -97 -146 0z" />
    <glyph glyph-name="Zdotaccent" unicode="&#x17b;" horiz-adv-x="527" 
d="M56 770h458l-296 -648h279v-122h-483l301 647h-259v123zM217 901c0 93 146 96 146 0c0 -91 -146 -97 -146 0z" />
    <glyph glyph-name="zacute" unicode="&#x17a;" horiz-adv-x="510" 
d="M31 0v16l255 453h-229v120h433v-17l-254 -444h254v-128h-459zM397 778l-76 -136h-119l57 136h138z" />
    <glyph glyph-name="Zacute" unicode="&#x179;" horiz-adv-x="527" 
d="M56 770h458l-296 -648h279v-122h-483l301 647h-259v123zM396 956l-76 -136h-119l57 136h138z" />
    <glyph glyph-name="Ydieresis" unicode="&#x178;" horiz-adv-x="522" 
d="M376 770h149l-194 -448v-323h-137v323l-196 448h149l60 -142l56 -165l56 169zM75 896c0 91 147 95 147 0c0 -88 -147 -94 -147 0zM296 896c0 91 147 95 147 0c0 -88 -147 -94 -147 0z" />
    <glyph glyph-name="ycircumflex" unicode="&#x177;" horiz-adv-x="510" 
d="M355 590h143l-175 -583h1l-32 -114c-38 -133 -117 -147 -230 -102l21 101c35 -8 72 -23 86 29l23 83l-177 586h143l53 -177c20 -80 36 -173 46 -248c11 76 26 167 46 248zM260 687l-47 -45h-127v10l142 129h64l141 -129v-10h-128z" />
    <glyph glyph-name="Ycircumflex" unicode="&#x176;" horiz-adv-x="522" 
d="M376 770h149l-194 -448v-323h-137v323l-196 448h149l60 -142l56 -165l56 169zM266 866l-47 -45h-127v10l142 129h64l141 -129v-10h-128z" />
    <glyph glyph-name="wcircumflex" unicode="&#x175;" horiz-adv-x="774" 
d="M338 590h102l45 -189c19 -80 33 -158 44 -236c10 75 24 168 44 248l51 177h141l-171 -591h-131l-35 129l-41 208l-41 -210l-35 -127h-130l-173 591h142l52 -177c20 -80 33 -173 43 -248c8 54 10 114 39 238c12 50 33 113 54 187zM387 685l-47 -45h-127v10l142 129h64
l141 -129v-10h-128z" />
    <glyph glyph-name="Wcircumflex" unicode="&#x174;" horiz-adv-x="926" 
d="M461 415l-103 -416h-145l-204 771h142l76 -266l55 -314l126 555h106l136 -555l45 314l76 266h142l-193 -771h-146zM463 861l-47 -45h-127v10l142 129h64l141 -129v-10h-128z" />
    <glyph glyph-name="uni0402" unicode="&#x402;" horiz-adv-x="671" 
d="M459 772v-123h-159v-146c30 37 77 52 124 52c128 0 187 -81 187 -208v-135c0 -175 -52 -220 -211 -220v117c57 0 74 8 74 100v122c0 72 -29 98 -86 99c-56 0 -85 -29 -88 -89v-341h-132v649h-160v123h451z" />
    <glyph glyph-name="uni0403" unicode="&#x403;" horiz-adv-x="480" 
d="M456 772v-127h-249v-645h-137v772h386zM391 961l-76 -136h-111l57 136h130z" />
    <glyph glyph-name="uni0453" unicode="&#x453;" horiz-adv-x="415" 
d="M348 777l-76 -136h-111l57 136h130zM197 0h-136v582h334v-122h-198v-460z" />
    <glyph glyph-name="uni0409" unicode="&#x409;" horiz-adv-x="885" 
d="M577 0h-182v646h-128l-7 -288c-5 -216 -29 -381 -256 -358l5 135c121 -10 113 134 115 223l7 414h405v-307h41c183 0 266 -74 266 -233v-1c0 -164 -80 -231 -266 -231zM577 336h-42v-212h44c107 0 123 35 123 108c0 70 -26 104 -125 104z" />
    <glyph glyph-name="uni040A" unicode="&#x40a;" horiz-adv-x="883" 
d="M575 0h-182v772h141v-307h41c183 0 266 -74 266 -233v-1c0 -164 -80 -231 -266 -231zM575 336h-42v-212h44c107 0 123 35 123 108c0 70 -26 104 -125 104zM404 458v-126h-195v-332h-139v771h139v-313h195z" />
    <glyph glyph-name="uni040C" unicode="&#x40c;" horiz-adv-x="632" 
d="M628 0h-169l-202 323h-54v-323h-138v772h139v-311h34c58 0 73 53 90 106c34 112 68 223 270 205l-10 -128c-105 5 -106 -28 -133 -115c-19 -62 -39 -114 -76 -147zM456 945l-76 -136h-116l57 136h135z" />
    <glyph glyph-name="uni040B" unicode="&#x40b;" horiz-adv-x="671" 
d="M611 0h-137v331c0 72 -29 98 -86 99c-56 0 -85 -29 -88 -89v-341h-132v649h-160v123h451v-123h-159v-146c30 37 77 52 124 52c128 0 187 -81 187 -208v-347z" />
    <glyph glyph-name="uni040F" unicode="&#x40f;" horiz-adv-x="655" 
d="M73 0v772h137v-646h240v646h139v-772h-189v-118h-132v118h-195z" />
    <glyph glyph-name="uni0452" unicode="&#x452;" horiz-adv-x="558" 
d="M-6 626v91h61v56h137v-56h102v-91h-102v-97c30 37 77 52 124 52c128 0 187 -81 187 -208v-341c0 -175 -58 -220 -217 -220v117c57 0 80 8 80 100v328c0 72 -29 98 -86 99c-59 0 -88 -32 -88 -98v-358h-137v626h-61z" />
    <glyph glyph-name="uni0459" unicode="&#x459;" horiz-adv-x="801" 
d="M489 581v-201h51c151 0 226 -48 226 -191c0 -35 5 -189 -226 -189h-185v463h-99l-2 -112c-3 -212 -25 -375 -248 -352l5 121c125 -10 112 140 113 233l3 228h362zM489 263v-146h51c67 0 91 20 91 72c0 55 -29 74 -91 74h-51z" />
    <glyph glyph-name="uni045A" unicode="&#x45a;" horiz-adv-x="790" 
d="M755 189c0 -35 5 -189 -226 -189h-185v259h-150v-259h-135v581h135v-204h150v204h134v-201h51c151 0 226 -48 226 -191zM478 263v-146h51c67 0 91 20 91 72c0 55 -29 74 -91 74h-51z" />
    <glyph glyph-name="uni045C" unicode="&#x45c;" horiz-adv-x="547" 
d="M542 0h-150l-162 247h-39v-247h-135v581h135v-211h20c51 0 69 45 92 89c33 64 63 141 206 121l-7 -116c-56 9 -71 -20 -93 -68c-17 -36 -36 -70 -64 -93zM408 778l-76 -136h-116l57 136h135z" />
    <glyph glyph-name="uni045B" unicode="&#x45b;" horiz-adv-x="558" 
d="M-6 626v91h61v56h137v-56h102v-91h-102v-97c30 37 77 52 124 52c128 0 187 -81 187 -208v-373h-137v357c0 72 -29 98 -86 99c-59 0 -88 -32 -88 -98v-358h-137v626h-61z" />
    <glyph glyph-name="uni045F" unicode="&#x45f;" horiz-adv-x="565" 
d="M225 -104v104h-167v581h134v-463h182v463h135v-581h-160v-104h-124z" />
    <glyph glyph-name="uni040E" unicode="&#x40e;" horiz-adv-x="536" 
d="M388 772h145l-217 -651c-41 -131 -139 -147 -270 -105l27 116c37 -8 91 -23 106 29l20 67l-187 544h148l54 -177l58 -194c16 65 40 129 58 194zM266 820c-112 0 -159 41 -161 142h102c1 -39 25 -47 59 -47c35 0 56 9 56 47h105c-2 -101 -49 -142 -161 -142z" />
    <glyph glyph-name="uni045E" unicode="&#x45e;" horiz-adv-x="510" 
d="M355 584h143l-175 -583h1l-32 -114c-38 -133 -117 -147 -230 -102l21 101c35 -8 72 -23 86 29l23 83l-177 586h143l53 -177c20 -80 36 -173 46 -248c11 76 26 167 46 248zM259 644c-112 0 -159 41 -161 142h102c1 -39 25 -47 59 -47c35 0 56 9 56 47h105
c-2 -101 -49 -142 -161 -142z" />
    <glyph glyph-name="uni0408" unicode="&#x408;" horiz-adv-x="526" 
d="M466 770v-545c0 -159 -74 -230 -229 -230s-229 78 -229 237h138c0 -73 19 -115 91 -115s91 42 91 115v538h138z" />
    <glyph glyph-name="uni0490" unicode="&#x490;" horiz-adv-x="480" 
d="M456 883v-238h-249v-645h-137v772h262v111h124z" />
    <glyph glyph-name="uni0401" unicode="&#x401;" 
d="M70 770h443v-120h-305v-198h260v-124h-260v-203h319v-126h-457v771zM105 885c0 88 143 92 143 0c0 -84 -143 -90 -143 0zM319 885c0 88 142 92 142 0c0 -84 -142 -90 -142 0z" />
    <glyph glyph-name="uni0404" unicode="&#x404;" horiz-adv-x="643" 
d="M442 236h138c0 -170 -80 -241 -264 -241s-258 71 -258 230v320c0 164 72 231 258 231c187 0 264 -68 264 -240h-138c0 75 -18 118 -126 118c-100 0 -119 -43 -119 -116v-86h183v-124h-183v-95c0 -73 19 -116 119 -116s126 43 126 119z" />
    <glyph glyph-name="uni0407" unicode="&#x407;" horiz-adv-x="279" 
d="M209 769v-770h-139v770h139zM-40 883c0 91 147 95 147 0c0 -88 -147 -94 -147 0zM181 883c0 91 147 95 147 0c0 -88 -147 -94 -147 0z" />
    <glyph glyph-name="uni0406" unicode="&#x406;" horiz-adv-x="279" 
d="M209 769v-770h-139v770h139z" />
    <glyph glyph-name="uni0456" unicode="&#x456;" horiz-adv-x="280" 
d="M208 577v-578h-137v578h137zM63 709c0 102 155 101 155 0c0 -100 -155 -101 -155 0z" />
    <glyph glyph-name="uni0491" unicode="&#x491;" horiz-adv-x="414" 
d="M197 0h-136v581h213v86h121v-208h-198v-459z" />
    <glyph glyph-name="uni0451" unicode="&#x451;" 
d="M376 181h135c0 -124 -74 -183 -229 -183s-229 71 -229 230v134c0 148 74 230 229 230s229 -71 229 -230v-117h-320v-15c0 -95 37 -113 93 -113c65 0 92 23 92 64zM286 473c-81 0 -95 -44 -95 -115h187c0 74 -14 115 -92 115zM109 709c0 86 142 90 142 0
c0 -84 -142 -90 -142 0zM322 709c0 86 141 90 141 0c0 -84 -141 -90 -141 0z" />
    <glyph glyph-name="uni2116" unicode="&#x2116;" horiz-adv-x="1023" 
d="M554 769v-769h-134l-226 488l12 -292v-196h-137v769h137l226 -507l-15 325v182h137zM820 433c-98 0 -178 63 -178 175c0 111 79 174 177 174c99 0 177 -63 177 -173c0 -111 -79 -176 -176 -176zM820 526c46 0 78 33 78 82c0 50 -35 85 -79 85c-43 0 -76 -35 -76 -84
s30 -83 77 -83zM660 390h321v-99h-321v99z" />
    <glyph glyph-name="uni0454" unicode="&#x454;" horiz-adv-x="552" 
d="M187 347h128v-119h-128c0 -66 11 -118 90 -118c70 0 96 31 97 99h128c0 -156 -73 -219 -225 -219c-154 0 -227 70 -227 229v131c0 156 77 233 230 233s222 -62 222 -219h-128c0 66 -25 98 -91 98c-78 0 -96 -45 -96 -115z" />
    <glyph glyph-name="uni0458" unicode="&#x458;" horiz-adv-x="286" 
d="M218 582v-550c0 -175 -58 -220 -217 -220v117c57 0 80 8 80 100v553h137zM73 709c0 102 155 101 155 0c0 -100 -155 -101 -155 0z" />
    <glyph glyph-name="uni0405" unicode="&#x405;" horiz-adv-x="604" 
d="M403 569c-4 65 -38 84 -105 84c-76 0 -107 -24 -107 -97c0 -97 77 -89 194 -107c89 -14 174 -50 174 -204c0 -178 -77 -253 -262 -253c-192 0 -253 93 -253 217h139c3 -59 29 -91 117 -91c83 0 121 35 121 122c0 91 -108 91 -190 102c-87 11 -179 54 -179 213
c0 144 88 219 246 219c139 0 231 -51 244 -205h-139z" />
    <glyph glyph-name="uni0455" unicode="&#x455;" horiz-adv-x="521" 
d="M483 405h-134c0 45 -35 65 -79 65c-53 0 -85 -21 -85 -62c0 -65 68 -56 147 -65s158 -56 158 -161c0 -129 -101 -185 -228 -185c-140 0 -224 71 -224 185h139c3 -41 25 -65 91 -65c55 0 83 31 83 60c0 50 -65 51 -136 60c-86 11 -169 48 -169 164c0 133 95 192 223 192
c145 0 214 -82 214 -188z" />
    <glyph glyph-name="uni0457" unicode="&#x457;" horiz-adv-x="260" 
d="M-42 712c0 94 147 98 147 0c0 -91 -147 -97 -147 0zM153 712c0 94 147 98 147 0c0 -91 -147 -97 -147 0zM198 577v-578h-137v578h137z" />
    <glyph glyph-name="uni0410" unicode="&#x410;" horiz-adv-x="578" 
d="M359 769l210 -769h-142l-39 136h-197l-40 -136h-142l213 769h137zM225 271h128l-64 285z" />
    <glyph glyph-name="uni0411" unicode="&#x411;" horiz-adv-x="579" 
d="M480 772v-127h-283v-166h73c172 0 273 -56 273 -239c0 -184 -101 -240 -273 -240h-210v772h420zM395 240c0 90 -35 113 -123 113h-75v-227h75c88 0 123 23 123 114z" />
    <glyph glyph-name="uni0412" unicode="&#x412;" horiz-adv-x="579" 
d="M60 0v772h221c133 0 229 -58 229 -199c0 -67 -30 -126 -95 -152c80 -17 128 -76 128 -181c0 -184 -99 -240 -274 -240h-209zM197 347v-221h74c89 0 124 20 124 111c0 75 -25 110 -126 110h-72zM281 648h-83v-173h84c56 0 83 41 83 90c0 39 -16 83 -84 83z" />
    <glyph glyph-name="uni0413" unicode="&#x413;" horiz-adv-x="480" 
d="M456 772v-127h-249v-645h-137v772h386z" />
    <glyph glyph-name="uni0414" unicode="&#x414;" horiz-adv-x="639" 
d="M5 122h54c57 66 67 199 67 282v368h419v-650h70v-232h-130v110h-350v-110h-130v232zM261 649v-245c0 -85 -15 -208 -64 -282h211v527h-147z" />
    <glyph glyph-name="uni0415" unicode="&#x415;" 
d="M70 770h443v-120h-305v-198h260v-124h-260v-203h319v-126h-457v771z" />
    <glyph glyph-name="uni0416" unicode="&#x416;" horiz-adv-x="948" 
d="M557 460c61 0 75 60 90 107c34 112 68 223 270 205l-10 -129c-105 6 -107 -27 -132 -115c-20 -62 -37 -112 -74 -146l246 -382h-169l-200 323h-35v-323h-134v323h-35l-200 -323h-169l246 382c-38 34 -54 84 -74 146c-26 88 -27 121 -132 115l-10 129
c202 18 236 -93 270 -205c15 -47 29 -107 90 -107h13v312h136v-312h13z" />
    <glyph glyph-name="uni0417" unicode="&#x417;" horiz-adv-x="552" 
d="M273 -9c-161 0 -234 80 -234 244h131c0 -81 34 -114 103 -114c67 0 97 29 97 108c0 72 -42 117 -116 117h-75v124c25 0 50 -2 75 0c68 0 110 23 110 97c0 57 -34 92 -92 92c-66 0 -94 -35 -94 -99h-129c0 159 71 218 224 221c133 2 221 -76 221 -211
c0 -43 -19 -128 -85 -159c79 -34 101 -111 101 -179c0 -156 -76 -241 -237 -241z" />
    <glyph glyph-name="uni0418" unicode="&#x418;" horiz-adv-x="625" 
d="M70 0v771h137v-182l-16 -327l228 509h137v-771h-137v197l12 293l-227 -490h-134z" />
    <glyph glyph-name="uni0419" unicode="&#x419;" horiz-adv-x="625" 
d="M70 0v771h137v-182l-16 -327l228 509h137v-771h-137v197l12 293l-227 -490h-134zM323 819c-122 0 -172 45 -173 155h110c1 -42 25 -52 63 -52c37 0 59 10 60 52h112c-1 -110 -52 -155 -172 -155z" />
    <glyph glyph-name="uni041A" unicode="&#x41a;" horiz-adv-x="632" 
d="M628 0h-169l-202 323h-54v-323h-138v772h139v-311h34c58 0 73 53 90 106c34 112 68 223 270 205l-10 -128c-105 5 -106 -28 -133 -115c-19 -62 -39 -114 -76 -147z" />
    <glyph glyph-name="uni041B" unicode="&#x41b;" horiz-adv-x="656" 
d="M587 772v-772h-138v646h-181l-7 -288c-5 -216 -29 -381 -256 -358l5 135c121 -10 113 134 115 223l7 414h455z" />
    <glyph glyph-name="uni041C" unicode="&#x41c;" horiz-adv-x="720" 
d="M376 182h-31l-153 310l16 -220v-272h-138v770h133l157 -341l158 341h133v-770h-138v272l16 220z" />
    <glyph glyph-name="uni041D" unicode="&#x41d;" horiz-adv-x="655" 
d="M586 771v-771h-137v318h-240v-318h-139v771h139v-327h240v327h137z" />
    <glyph glyph-name="uni041E" unicode="&#x41e;" horiz-adv-x="641" 
d="M316 -7c-183 0 -257 71 -257 230v326c0 163 71 230 257 230s263 -67 263 -230v-326c0 -159 -80 -230 -263 -230zM316 115c100 0 125 42 125 115v312c0 70 -18 115 -125 115c-100 0 -119 -45 -119 -115v-312c0 -73 19 -115 119 -115z" />
    <glyph glyph-name="uni041F" unicode="&#x41f;" horiz-adv-x="655" 
d="M586 772v-772h-137v646h-240v-646h-139v772h516z" />
    <glyph glyph-name="uni0420" unicode="&#x420;" horiz-adv-x="579" 
d="M70 770h194c186 0 273 -67 273 -230v-71c0 -159 -90 -233 -273 -233h-53v-236h-141v770zM210 369h54c100 0 133 34 133 107v57c0 73 -24 111 -131 111h-56v-275z" />
    <glyph glyph-name="uni0421" unicode="&#x421;" horiz-adv-x="623" 
d="M441 238h138c0 -169 -80 -240 -263 -240s-257 71 -257 230v313c0 163 71 230 257 230s263 -68 263 -239h-138c0 75 -18 117 -125 117c-100 0 -119 -42 -119 -115v-299c0 -73 19 -115 119 -115s125 42 125 118z" />
    <glyph glyph-name="uni0422" unicode="&#x422;" horiz-adv-x="472" 
d="M464 772v-123h-159v-649h-137v649h-160v123h456z" />
    <glyph glyph-name="uni0423" unicode="&#x423;" horiz-adv-x="536" 
d="M388 772h145l-217 -651c-41 -131 -139 -147 -270 -105l27 116c37 -8 91 -23 106 29l20 67l-187 544h148l54 -177l58 -194c16 65 40 129 58 194z" />
    <glyph glyph-name="uni0424" unicode="&#x424;" horiz-adv-x="861" 
d="M499 -3h-140v98h-27c-183 0 -273 69 -273 229v128c0 163 87 229 273 229h28v96h138v-96h28c185 0 273 -66 273 -229v-128c0 -160 -91 -229 -273 -229h-27v-98zM498 221h28c100 0 133 37 133 110v113c0 74 -24 115 -131 115h-30v-338zM360 221v338h-30
c-106 0 -131 -41 -131 -115v-113c0 -73 34 -110 133 -110h28z" />
    <glyph glyph-name="uni0425" unicode="&#x425;" horiz-adv-x="558" 
d="M23 770h150l51 -125l55 -164l54 161l52 128h150l-164 -381l178 -389h-149l-60 128l-61 167l-65 -176l-56 -119h-149l178 389z" />
    <glyph glyph-name="uni0426" unicode="&#x426;" horiz-adv-x="663" 
d="M70 0v772h137v-649h224v649h138v-649h69v-233h-130v110h-438z" />
    <glyph glyph-name="uni0427" unicode="&#x427;" horiz-adv-x="622" 
d="M413 772h140v-772h-141v254c-174 -36 -350 13 -350 232v286h141v-278c0 -125 114 -138 210 -108v386z" />
    <glyph glyph-name="uni0428" unicode="&#x428;" horiz-adv-x="956" 
d="M887 0h-817v772h139v-649h202v649h136v-649h200v649h140v-772z" />
    <glyph glyph-name="uni0429" unicode="&#x429;" horiz-adv-x="982" 
d="M887 772v-650h70v-232h-132v110h-755v772h139v-650h202v650h135v-650h201v650h140z" />
    <glyph glyph-name="uni042A" unicode="&#x42a;" horiz-adv-x="661" 
d="M345 0h-195v648h-152v124h293v-237h54c183 0 274 -74 274 -233v-71c0 -164 -88 -231 -274 -231zM345 406h-55v-282h57c107 0 130 41 130 114v56c0 73 -32 112 -132 112z" />
    <glyph glyph-name="uni042B" unicode="&#x42b;" horiz-adv-x="871" 
d="M265 0h-195v772h141v-237h54c183 0 273 -74 273 -233v-71c0 -164 -87 -231 -273 -231zM265 406h-55v-282h57c107 0 130 41 130 114v56c0 73 -33 112 -132 112zM805 0h-141v772h141v-772z" />
    <glyph glyph-name="uni042C" unicode="&#x42c;" horiz-adv-x="580" 
d="M265 0h-195v772h141v-237h54c183 0 273 -74 273 -233v-71c0 -164 -87 -231 -273 -231zM265 406h-55v-282h57c107 0 130 41 130 114v56c0 73 -33 112 -132 112z" />
    <glyph glyph-name="uni042D" unicode="&#x42d;" horiz-adv-x="643" 
d="M59 239h138c0 -76 26 -119 126 -119s119 43 119 116v92h-183v124h183v83c0 73 -19 116 -119 116c-108 0 -126 -43 -126 -118h-138c0 172 77 240 264 240c186 0 258 -67 258 -231v-314c0 -159 -74 -230 -258 -230s-264 71 -264 241z" />
    <glyph glyph-name="uni042E" unicode="&#x42e;" horiz-adv-x="915" 
d="M590 -7c-183 0 -259 71 -259 230v95h-122v-319h-139v773h139v-327h122v106c0 163 72 230 259 230c186 0 263 -67 263 -230v-328c0 -159 -80 -230 -263 -230zM590 115c101 0 125 42 125 116v312c0 70 -18 116 -125 116c-100 0 -120 -46 -120 -116v-312
c0 -74 20 -116 120 -116z" />
    <glyph glyph-name="uni042F" unicode="&#x42f;" horiz-adv-x="619" 
d="M207 0h-162l170 293c-94 31 -134 93 -134 207v40c0 164 88 232 274 232h195v-772h-138v272h-54zM355 399h58v246h-60c-107 0 -127 -39 -127 -112v-26c0 -73 29 -108 129 -108z" />
    <glyph glyph-name="uni0430" unicode="&#x430;" horiz-adv-x="543" 
d="M355 235c-140 14 -189 -18 -189 -65c0 -39 34 -52 81 -52c80 0 102 58 108 117zM185 387h-131c-9 147 70 206 211 206c154 0 221 -77 221 -230v-363h-112l-13 68c-33 -46 -89 -76 -155 -76c-97 0 -170 56 -170 167c0 139 116 194 319 180c0 88 -17 132 -89 132
c-60 0 -82 -21 -81 -84z" />
    <glyph glyph-name="uni0431" unicode="&#x431;" horiz-adv-x="550" 
d="M273 -4c-146 0 -223 67 -223 228v319c0 165 80 211 240 225c37 3 65 3 94 30l79 -86c-46 -51 -97 -62 -163 -68c-80 -7 -115 -11 -115 -101v-32c29 37 81 51 128 51c125 0 187 -79 187 -204v-133c0 -162 -79 -229 -227 -229zM278 439c-59 1 -93 -31 -93 -95v-117
c0 -70 20 -111 88 -111c54 0 92 29 92 112v114c0 71 -32 97 -87 97z" />
    <glyph glyph-name="uni0432" unicode="&#x432;" horiz-adv-x="522" 
d="M249 0h-194v582h214c100 0 184 -37 184 -150c0 -51 -24 -94 -72 -113c66 -14 97 -74 97 -137c0 -154 -99 -182 -229 -182zM191 251v-133h60c54 0 92 7 92 66s-42 67 -94 67h-58zM257 470h-66v-110h67c43 0 63 26 63 56c0 23 -13 54 -64 54z" />
    <glyph glyph-name="uni0433" unicode="&#x433;" horiz-adv-x="414" 
d="M197 0h-136v582h334v-122h-198v-460z" />
    <glyph glyph-name="uni0434" unicode="&#x434;" horiz-adv-x="599" 
d="M11 121h61c54 62 57 156 57 233v228h389v-461h68v-228h-128v107h-321v-107h-126v228zM207 121h177v339h-122v-106c0 -79 -9 -165 -55 -233z" />
    <glyph glyph-name="uni0435" unicode="&#x435;" 
d="M376 181h135c0 -124 -74 -183 -229 -183s-229 71 -229 230v134c0 148 74 230 229 230s229 -71 229 -230v-117h-320v-15c0 -95 37 -113 93 -113c65 0 92 23 92 64zM286 473c-81 0 -95 -44 -95 -115h187c0 74 -14 115 -92 115z" />
    <glyph glyph-name="uni0436" unicode="&#x436;" horiz-adv-x="822" 
d="M475 370h8c53 0 63 45 86 89c34 64 64 141 207 121l-8 -116c-54 9 -71 -20 -93 -68c-17 -36 -29 -70 -58 -93l192 -303h-151l-155 247h-28v-247h-134v247h-27l-156 -247h-150l192 303c-29 23 -42 57 -59 93c-23 48 -37 77 -93 68l-7 116c142 20 173 -57 206 -121
c22 -44 34 -89 86 -89h8v211h134v-211z" />
    <glyph glyph-name="uni0437" unicode="&#x437;" horiz-adv-x="482" 
d="M40 178h136c0 -49 31 -63 62 -63c32 0 63 22 62 68c0 39 -13 64 -58 63h-63v114h65c34 0 52 26 52 56c0 35 -17 62 -56 62c-36 0 -59 -18 -59 -55h-132c0 128 78 169 192 169c113 0 186 -54 186 -170c0 -46 -18 -91 -66 -115c56 -19 76 -83 75 -136
c-2 -106 -57 -180 -199 -180c-130 0 -197 59 -197 187z" />
    <glyph glyph-name="uni0438" unicode="&#x438;" 
d="M375 0v340l-72 -132l-119 -208h-126v581h135v-339l80 148l110 191h126v-581h-134z" />
    <glyph glyph-name="uni0439" unicode="&#x439;" 
d="M375 0v340l-72 -132l-119 -208h-126v581h135v-339l80 148l110 191h126v-581h-134zM290 625c-118 0 -168 43 -170 150h108c1 -41 26 -50 62 -50c37 0 59 10 59 50h111c-2 -107 -52 -150 -170 -150z" />
    <glyph glyph-name="uni043A" unicode="&#x43a;" horiz-adv-x="547" 
d="M542 0h-150l-162 247h-39v-247h-135v581h135v-211h20c51 0 69 45 92 89c33 64 63 141 206 121l-7 -116c-56 9 -71 -20 -93 -68c-17 -36 -36 -70 -64 -93z" />
    <glyph glyph-name="uni043B" unicode="&#x43b;" horiz-adv-x="571" 
d="M124 353l3 228h389v-581h-136v463h-124l-2 -112c-3 -212 -25 -375 -248 -352l5 121c125 -10 112 140 113 233z" />
    <glyph glyph-name="uni043C" unicode="&#x43c;" horiz-adv-x="688" 
d="M373 75h-53l-140 269l16 -196v-148h-137v581h137l150 -290l155 290h132v-581h-136v148l16 196z" />
    <glyph glyph-name="uni043D" unicode="&#x43d;" horiz-adv-x="565" 
d="M59 0v581h135v-219h182v219h134v-581h-134v244h-182v-244h-135z" />
    <glyph glyph-name="uni043E" unicode="&#x43e;" horiz-adv-x="558" 
d="M279 -10c-155 0 -229 71 -229 230v142c0 155 74 230 229 230s229 -71 229 -230v-142c0 -159 -74 -230 -229 -230zM279 112c72 0 91 42 91 115v128c0 73 -19 115 -91 115s-91 -42 -91 -115v-128c0 -73 19 -115 91 -115z" />
    <glyph glyph-name="uni043F" unicode="&#x43f;" horiz-adv-x="565" 
d="M59 0v581h451v-581h-134v463h-182v-463h-135z" />
    <glyph glyph-name="uni0440" unicode="&#x440;" horiz-adv-x="583" 
d="M66 590h113l10 -64c23 42 72 68 139 68c116 0 194 -64 194 -228v-152c0 -139 -67 -220 -198 -220c-48 0 -98 13 -121 52v-225h-137v769zM292 121c59 0 93 28 93 99v139c0 85 -35 113 -89 113c-68 0 -93 -50 -93 -118v-135c0 -71 34 -98 89 -98z" />
    <glyph glyph-name="uni0441" unicode="&#x441;" horiz-adv-x="553" 
d="M508 370h-130c0 67 -24 100 -92 100c-76 0 -98 -42 -98 -115v-128c0 -73 19 -115 91 -115s98 31 99 101h130c0 -159 -74 -223 -229 -223s-229 71 -229 233v132c0 159 78 237 233 237s225 -63 225 -222z" />
    <glyph glyph-name="uni0442" unicode="&#x442;" horiz-adv-x="413" 
d="M271 0h-134v463h-132v118h400v-118h-134v-463z" />
    <glyph glyph-name="uni0443" unicode="&#x443;" horiz-adv-x="510" 
d="M355 590h143l-175 -583h1l-32 -114c-38 -133 -117 -147 -230 -102l21 101c35 -8 72 -23 86 29l23 83l-177 586h143l53 -177c20 -80 36 -173 46 -248c11 76 26 167 46 248z" />
    <glyph glyph-name="uni0444" unicode="&#x444;" horiz-adv-x="816" 
d="M474 -175h-132v221c-19 -34 -71 -52 -108 -52c-138 0 -184 95 -184 218v160c0 123 46 216 184 216c37 0 89 -17 108 -51v222h132v-222c19 34 71 51 109 51c136 0 183 -93 183 -216v-160c0 -123 -47 -218 -183 -218c-38 0 -90 18 -109 52v-221zM634 217v149
c0 56 -22 97 -83 97c-48 0 -77 -31 -77 -96v-150c0 -67 29 -97 77 -97c61 0 83 42 83 97zM182 217c0 -55 22 -97 83 -97c48 0 77 30 77 97v150c0 65 -29 96 -77 96c-61 0 -83 -41 -83 -97v-149z" />
    <glyph glyph-name="uni0445" unicode="&#x445;" horiz-adv-x="527" 
d="M152 0h-143l178 300l-171 290h144l54 -91c15 -25 44 -86 50 -103c8 22 38 82 52 106l52 88h142l-171 -289l180 -301h-146l-52 88c-16 25 -47 89 -58 116c-12 -31 -46 -95 -60 -118z" />
    <glyph glyph-name="uni0446" unicode="&#x446;" horiz-adv-x="595" 
d="M502 581v-463h69v-227h-128v109h-384v581h134v-463h174v463h135z" />
    <glyph glyph-name="uni0447" unicode="&#x447;" horiz-adv-x="540" 
d="M44 581h135v-188c0 -71 28 -97 84 -98c58 0 87 32 87 97v189h135v-581h-135v223c-30 -36 -76 -51 -123 -51c-126 0 -183 80 -183 205v204z" />
    <glyph glyph-name="uni0448" unicode="&#x448;" horiz-adv-x="796" 
d="M741 581v-581h-682v581h135v-463h140v463h132v-463h140v463h135z" />
    <glyph glyph-name="uni0449" unicode="&#x449;" horiz-adv-x="833" 
d="M741 581v-463h68v-227h-128v109h-622v581h135v-463h140v463h133v-463h139v463h135z" />
    <glyph glyph-name="uni044A" unicode="&#x44a;" horiz-adv-x="623" 
d="M581 208c0 -2 20 -208 -224 -208h-228v462h-128v119h264v-163h93c148 0 219 -64 223 -210zM265 301v-184h93c64 0 88 39 88 91c0 58 -29 93 -88 93h-93z" />
    <glyph glyph-name="uni044B" unicode="&#x44b;" horiz-adv-x="802" 
d="M512 208c0 -2 19 -208 -226 -208h-227v581h134v-163h93c151 0 222 -64 226 -210zM193 301v-184h93c67 0 90 39 90 91c0 58 -28 93 -90 93h-93zM747 0h-134v581h134v-581z" />
    <glyph glyph-name="uni044C" unicode="&#x44c;" horiz-adv-x="548" 
d="M513 208c0 -2 19 -208 -226 -208h-227v581h134v-163h93c151 0 222 -64 226 -210zM194 301v-184h93c67 0 90 39 90 91c0 58 -28 93 -90 93h-93z" />
    <glyph glyph-name="uni044D" unicode="&#x44d;" horiz-adv-x="552" 
d="M365 347c0 70 -18 115 -96 115c-66 0 -91 -32 -91 -98h-128c0 157 69 219 222 219s230 -77 230 -233v-131c0 -159 -73 -229 -227 -229c-152 0 -225 63 -225 219h128c1 -68 27 -99 97 -99c79 0 90 52 90 118h-128v119h128z" />
    <glyph glyph-name="uni044E" unicode="&#x44e;" horiz-adv-x="771" 
d="M63 0v581h134v-219h85c0 146 74 225 223 225c150 0 220 -77 220 -226v-141c0 -149 -69 -226 -220 -226s-223 77 -223 226v24h-85v-244h-134zM505 466c-67 0 -85 -42 -85 -112v-128c0 -69 18 -112 85 -112c66 0 85 43 85 112v128c0 70 -19 112 -85 112z" />
    <glyph glyph-name="uni044F" unicode="&#x44f;" horiz-adv-x="543" 
d="M354 168h-34c-14 0 -28 1 -39 2l-97 -170h-159l120 206c-62 34 -93 83 -93 168c0 167 116 207 268 207h168v-581h-134v168zM354 293v162h-34c-66 0 -126 2 -126 -81c0 -80 77 -81 126 -81h34z" />
    </font>
</defs>
</svg>
